# Object Export From Tinkercad Server 2015

mtllib obj.mtl

o obj_0
v 112.3 		10.7 		25.2
v 112.3 		10.7 		23.2
v 112.3 		45.5 		23.2
v 112.3 		45.5 		25.2
v 63.903 		45.5 		25.2
v 63.903 		10.7 		25.2
v 108.4 		40.4779 		23.2
v 67.8 		40.4779 		23.2
v 69.4 		38.6286 		25.198
v 107.703 		15.919 		25.2
v 107.703 		15.919 		25.198
v 69.4 		16.5574 		25.198
v 69.4 		17.8731 		15.903
v 69.4 		38.9608 		15.903
v 68.898 		39.624 		25.198
v 67.8 		16.1238 		15.903
v 68.898 		15.919 		25.198
v 68.898 		39.624 		25.2
v 67.8 		15.0298 		23.2
v 63.903 		10.7 		23.2
v 63.903 		45.5 		23.2
v 67.8 		40.6787 		15.903
v 106.8 		16.5574 		25.198
v 108.4 		15.0298 		23.2
v 108.4 		40.6787 		15.903
v 108.4 		16.1238 		15.903
v 106.8 		38.9608 		15.903
v 106.8 		17.8731 		15.903
v 106.8 		38.6286 		25.198
v 107.703 		39.624 		25.2
v 107.703 		39.624 		25.198
v 68.898 		15.919 		25.2
# 32 vertices

g group_0_4634441

usemtl color_4634441
s 0

f 1 	2 	3
f 1 	3 	4
f 8 	21 	7
f 8 	7 	25
f 16 	26 	19
f 9 	12 	13
f 9 	13 	14
f 12 	9 	17
f 15 	17 	9
f 12 	17 	23
f 2 	24 	7
f 2 	7 	3
f 8 	25 	22
f 21 	8 	20
f 3 	7 	21
f 8 	19 	20
f 19 	24 	20
f 14 	13 	22
f 25 	14 	22
f 16 	22 	13
f 24 	19 	26
f 17 	10 	11
f 23 	29 	28
f 27 	28 	29
f 16 	13 	28
f 30 	31 	11
f 30 	11 	10
f 6 	20 	2
f 6 	2 	1
f 12 	23 	28
f 12 	28 	13
f 10 	1 	30
f 4 	30 	1
f 14 	27 	29
f 14 	29 	9
f 5 	3 	21
f 18 	30 	4
f 6 	5 	21
f 6 	21 	20
f 2 	20 	24
f 31 	29 	11
f 29 	23 	11
f 17 	11 	23
f 19 	8 	16
f 22 	16 	8
f 6 	1 	32
f 10 	32 	1
f 16 	28 	26
f 25 	26 	28
f 25 	28 	27
f 6 	18 	5
f 18 	6 	32
f 4 	5 	18
f 4 	3 	5
f 25 	7 	26
f 24 	26 	7
f 10 	17 	32
f 32 	17 	15
f 32 	15 	18
f 18 	15 	31
f 18 	31 	30
f 9 	29 	15
f 31 	15 	29
f 14 	25 	27
# 64 faces

 #end of obj_0

