# Object Export From Tinkercad Server 2015

mtllib obj.mtl

o obj_0
v 422.2121 		101.4058 		6.9957
v 422.3686 		101.7763 		6.9957
v 421.9498 		101.7993 		6.9948
v 421.9636 		101.8016 		6.9948
v 422.0625 		101.8108 		6.9957
v 422.0004 		101.8062 		6.9948
v 422.1454 		101.8108 		6.9957
v 422.2489 		101.7993 		6.9957
v 422.2792 		102.9567 		6.9957
v 420.4956 		101.3184 		6.994
v 420.2471 		101.8453 		6.994
v 420.7487 		100.7363 		6.994
v 422.317 		101.738 		5.707
v 422.2762 		101.7993 		5.707
v 422.323 		101.8055 		5.707
v 422.29 		101.8016 		5.707
v 422.3384 		101.8069 		5.7071
v 422.3889 		101.8108 		5.7071
v 422.3287 		101.8062 		5.707
v 420.5736 		101.8453 		5.7057
v 420.822 		101.3184 		5.7059
v 421.0751 		100.7363 		5.7061
v 421.1145 		100.6382 		5.7061
v 420.3365 		102.3124 		5.7055
v 420.5368 		101.9179 		5.7056
v 420.0871 		102.764 		5.7053
v 420.1179 		102.7128 		5.7053
v 420.1519 		102.6504 		5.7053
v 422.3824 		103.502 		6.9957
v 422.0763 		103.7022 		6.9957
v 421.3631 		104.1807 		6.9948
v 421.5563 		104.0496 		6.9948
v 421.7956 		103.8862 		6.9948
v 421.1882 		104.282 		6.9948
v 420.9972 		104.3671 		6.9948
v 420.797 		104.4338 		6.994
v 420.2034 		104.5328 		6.994
v 420.3944 		104.5167 		6.994
v 420.5945 		104.4822 		6.994
v 422.1677 		103.8576 		5.7069
v 422.4027 		103.7022 		5.7071
v 421.7215 		104.1604 		5.7066
v 421.6915 		104.1807 		5.7065
v 422.124 		103.8862 		5.7069
v 421.92 		104.0242 		5.7067
v 421.8828 		104.0496 		5.7067
v 421.6643 		104.1965 		5.7065
v 421.5145 		104.282 		5.7064
v 421.3236 		104.3671 		5.7063
v 421.2924 		104.3775 		5.7062
v 420.5318 		104.5328 		5.7056
v 420.5615 		104.5303 		5.7057
v 420.7208 		104.5167 		5.7058
v 420.384 		104.5347 		5.7055
v 420.3572 		104.5351 		5.7055
v 420.2076 		104.5236 		5.7054
v 420.1066 		104.5003 		5.7053
v 420.088 		104.496 		5.7053
v 421.1234 		104.4338 		5.7061
v 420.921 		104.4822 		5.7059
v 420.0101 		102.3124 		6.994
v 419.1174 		101.1504 		6.9931
v 418.885 		101.9604 		6.9931
v 419.7915 		102.7128 		6.9931
v 418.7285 		102.6736 		6.9931
v 419.4439 		101.1504 		5.7048
v 419.2475 		101.8342 		5.7046
v 419.2113 		101.9604 		5.7046
v 419.0549 		102.6736 		5.7045
v 417.7595 		101.3759 		5.7035
v 427.5916 		64.6578 		7
v 427.7918 		64.8971 		7
v 427.7941 		65.1295 		7
v 427.1128 		81.3809 		5.7108
v 426.8854 		81.2954 		5.7106
v 427.686 		65.3297 		7
v 426.8431 		81.2797 		5.7106
v 427.7941 		81.1393 		7
v 426.7972 		81.2607 		5.7105
v 426.5467 		81.1577 		5.7104
v 427.8378 		81.2705 		7
v 427.8332 		81.3671 		7
v 427.7849 		81.4338 		7
v 427.7021 		81.473 		7
v 427.5939 		81.4937 		7
v 427.2373 		64.4254 		6.9991
v 416.8337 		84.9724 		5.7027
v 416.8276 		84.9957 		5.7027
v 416.8667 		84.8461 		5.7028
v 416.747 		85.136 		5.7027
v 416.632 		85.2695 		5.7026
v 416.5561 		84.3008 		5.7025
v 416.701 		84.4273 		5.7026
v 427.5847 		65.4977 		7
v 416.8046 		84.5562 		5.7027
v 427.4927 		65.6679 		7
v 416.8512 		84.6669 		5.7027
v 416.8598 		84.6873 		5.7028
v 427.4053 		65.8704 		6.9991
v 416.3832 		84.1811 		5.7024
v 416.4104 		84.1998 		5.7024
v 427.3247 		66.1442 		6.9991
v 415.4448 		86.3233 		5.7016
v 416.4894 		85.4052 		5.7025
v 415.8136 		85.9796 		5.7019
v 415.7849 		86.0058 		5.7019
v 427.2488 		66.517 		6.9991
v 416.3261 		85.5433 		5.7023
v 416.1784 		85.6638 		5.7022
v 416.1509 		85.6859 		5.7022
v 427.1775 		67.0255 		6.9991
v 415.9953 		85.8142 		5.7021
v 415.967 		85.8378 		5.702
v 415.6353 		86.1593 		5.7018
v 415.6081 		86.1875 		5.7018
v 427.1693 		64.2408 		5.7108
v 427.5637 		64.4254 		5.7111
v 427.6188 		64.4616 		5.7112
v 427.918 		64.6578 		5.7114
v 428.1181 		64.8971 		5.7116
v 428.1204 		65.1295 		5.7116
v 428.0123 		65.3297 		5.7115
v 427.9111 		65.4977 		5.7114
v 427.7453 		65.8389 		5.7113
v 427.7316 		65.8704 		5.7113
v 415.0091 		77.7494 		5.7013
v 415.0928 		77.7455 		5.7014
v 427.8191 		65.6679 		5.7114
v 414.9937 		77.7501 		5.7013
v 417.7092 		92.591 		6.9923
v 415.1848 		77.734 		5.7014
v 427.6511 		66.1442 		5.7112
v 415.2676 		77.711 		5.7015
v 417.5412 		92.7889 		6.9914
v 427.5752 		66.517 		5.7112
v 415.3366 		77.6741 		5.7016
v 427.5039 		67.0255 		5.7111
v 414.8005 		77.7478 		5.7011
v 414.8948 		77.7501 		5.7012
v 426.7679 		64.2068 		6.9991
v 416.6416 		92.9638 		6.9914
v 416.798 		93.0466 		6.9914
v 425.1136 		63.7421 		6.9974
v 414.2874 		78.1366 		5.7007
v 414.3403 		78.04 		5.7008
v 425.6658 		63.8548 		6.9983
v 414.3909 		77.9572 		5.7008
v 414.4412 		77.8881 		5.7009
v 426.2295 		64.0136 		6.9983
v 414.3985 		77.9464 		5.7008
v 414.4491 		77.8795 		5.7009
v 417.1087 		93.0995 		6.9914
v 416.9545 		93.0949 		6.9914
v 414.4899 		77.8329 		5.7009
v 414.5382 		77.7915 		5.7009
v 414.5865 		77.7662 		5.701
v 414.6413 		77.7524 		5.701
v 414.5947 		77.764 		5.701
v 414.6528 		77.7517 		5.701
v 414.713 		77.7478 		5.7011
v 414.2322 		78.2494 		5.7007
v 427.0964 		64.2068 		5.7108
v 424.9476 		63.6845 		5.7091
v 425.4399 		63.7421 		5.7095
v 425.9923 		63.8548 		5.7099
v 413.9078 		79.1812 		5.7004
v 413.9677 		78.9212 		5.7005
v 426.0799 		63.8795 		5.71
v 414.0528 		78.6658 		5.7005
v 426.5578 		64.0136 		5.7104
v 414.1149 		78.514 		5.7006
v 414.1747 		78.3736 		5.7006
v 422.6033 		65.546 		6.9957
v 423.4408 		64.3817 		6.9966
v 416.3217 		91.3991 		6.9905
v 416.2274 		91.5809 		6.9905
v 417.631 		81.1255 		6.9923
v 423.9769 		63.7766 		6.9966
v 416.0709 		92.285 		6.9905
v 416.0433 		92.1584 		6.9905
v 424.2277 		63.6937 		6.9974
v 416.0502 		92.0273 		6.9905
v 416.0847 		91.8915 		6.9905
v 416.7451 		80.3662 		6.9914
v 416.1469 		91.742 		6.9905
v 424.6212 		63.6845 		6.9974
v 417.1731 		79.6759 		6.9914
v 417.3479 		81.5259 		6.9914
v 416.4276 		91.1966 		6.9905
v 416.4943 		92.8533 		6.9905
v 416.3563 		92.7245 		6.9905
v 416.2366 		92.5818 		6.9905
v 416.14 		92.4322 		6.9905
v 415.7695 		81.6317 		6.9905
v 416.0525 		81.3303 		6.9905
v 416.3747 		80.9115 		6.9905
v 417.4995 		79.6759 		5.7033
v 417.1381 		80.2587 		5.703
v 417.0714 		80.3662 		5.7029
v 417.5765 		79.5454 		5.7033
v 416.5538 		91.5809 		5.7025
v 416.6481 		91.3991 		5.7026
v 417.6744 		81.5259 		5.7034
v 416.6646 		91.3676 		5.7026
v 416.7559 		91.1966 		5.7027
v 426.2407 		81.0243 		5.7101
v 425.99 		80.9058 		5.7099
v 419.5155 		86.5742 		5.7048
v 419.4783 		86.6661 		5.7048
v 419.4465 		86.7434 		5.7048
v 425.0922 		80.1016 		5.7092
v 419.2734 		87.1631 		5.7046
v 418.9287 		87.9889 		5.7044
v 425.2881 		80.5407 		5.7094
v 419.0802 		87.6256 		5.7045
v 425.2601 		80.525 		5.7093
v 425.1543 		80.4537 		5.7093
v 418.9004 		88.0559 		5.7044
v 425.9438 		80.8839 		5.7099
v 425.67 		80.7482 		5.7097
v 425.4738 		80.6452 		5.7095
v 417.7411 		88.4724 		5.7034
v 417.9067 		87.9869 		5.7036
v 425.4376 		80.6262 		5.7095
v 424.8832 		81.519 		5.7091
v 418.8749 		88.1179 		5.7043
v 425.1455 		81.6616 		5.7093
v 418.7351 		88.454 		5.7042
v 424.7063 		79.2319 		6.9974
v 424.6557 		77.9733 		6.9974
v 423.1532 		78.1711 		6.9966
v 423.2751 		77.8582 		6.9966
v 422.9507 		78.5324 		6.9957
v 422.6677 		78.9442 		6.9957
v 423.144 		77.1541 		6.9966
v 423.2705 		77.3543 		6.9966
v 423.3142 		77.589 		6.9966
v 414.0369 		84.1972 		6.9888
v 413.7907 		84.547 		6.9888
v 413.8759 		84.4388 		6.9888
v 413.9587 		84.3169 		6.9888
v 413.7033 		84.6436 		6.9888
v 413.6159 		84.7265 		6.9888
v 423.6406 		77.589 		5.7081
v 423.6015 		77.8582 		5.708
v 423.4796 		78.1711 		5.7079
v 413.372 		84.9335 		6.9888
v 413.3029 		84.9911 		6.9888
v 413.4502 		84.8714 		6.9888
v 423.4704 		77.1541 		5.7079
v 423.5969 		77.3543 		5.708
v 413.2431 		85.0486 		6.9888
v 423.3086 		78.4762 		5.7078
v 423.2771 		78.5324 		5.7078
v 413.5307 		84.8024 		6.9888
v 422.9941 		78.9442 		5.7076
v 422.7046 		79.389 		5.7073
v 424.7638 		80.1016 		6.9974
v 413.1419 		85.1774 		6.988
v 413.1948 		85.1061 		6.988
v 423.6824 		81.3487 		6.9966
v 423.9723 		81.3671 		6.9966
v 424.2691 		81.4223 		6.9974
v 413.0981 		85.2465 		6.988
v 414.9274 		86.4015 		6.9897
v 415.1184 		86.3233 		6.9897
v 424.5567 		81.519 		6.9974
v 415.2817 		86.1875 		6.9897
v 422.8287 		81.6133 		6.9957
v 422.9093 		81.5006 		6.9957
v 423.0128 		81.4384 		6.9957
v 423.1854 		81.3901 		6.9966
v 423.4132 		81.3579 		6.9966
v 414.7157 		86.4291 		6.9897
v 414.4879 		86.413 		6.9897
v 414.2532 		86.3578 		6.9888
v 423.7414 		81.3579 		5.7082
v 423.7834 		81.3565 		5.7082
v 424.0088 		81.3487 		5.7084
v 424.2987 		81.3671 		5.7086
v 424.5955 		81.4223 		5.7088
v 424.3449 		81.3757 		5.7086
v 424.6403 		81.4374 		5.7089
v 413.0521 		85.5594 		6.988
v 413.036 		85.4996 		6.988
v 413.0337 		85.4374 		6.988
v 413.0429 		85.3753 		6.988
v 413.0659 		85.3109 		6.988
v 422.6512 		79.4712 		5.7073
v 423.1551 		81.6133 		5.7077
v 423.2357 		81.5006 		5.7078
v 423.3392 		81.4384 		5.7078
v 423.3661 		81.4309 		5.7079
v 413.1948 		85.7504 		6.988
v 423.5117 		81.3901 		5.708
v 423.5472 		81.3851 		5.708
v 425.0376 		81.8572 		6.9974
v 413.1304 		85.6859 		6.988
v 413.0843 		85.6215 		6.988
v 425.201 		82.1126 		6.9974
v 425.369 		82.6234 		6.9983
v 425.4587 		83.2171 		6.9983
v 414.0185 		86.2727 		6.9888
v 425.4771 		83.8774 		6.9983
v 413.7884 		86.1622 		6.9888
v 413.5698 		86.0334 		6.9888
v 413.3697 		85.893 		6.9888
v 425.364 		81.8572 		5.7094
v 425.5274 		82.1126 		5.7095
v 425.6691 		82.5439 		5.7097
v 425.6953 		82.6234 		5.7097
v 425.7851 		83.2171 		5.7098
v 425.8034 		83.8774 		5.7098
v 425.4288 		84.593 		6.9983
v 425.7551 		84.593 		5.7097
v 425.649 		85.35 		5.7097
v 425.3206 		85.35 		6.9983
v 425.6658 		85.2322 		5.7097
v 425.511 		86.0145 		5.7095
v 425.1596 		86.1369 		6.9974
v 425.486 		86.1369 		5.7095
v 422.4836 		82.3312 		6.9957
v 422.6125 		82.0413 		6.9957
v 422.7298 		81.7974 		6.9957
v 416.7587 		80.8267 		5.7027
v 416.701 		80.9115 		5.7026
v 416.6509 		80.9767 		5.7026
v 423.7673 		64.3817 		5.7082
v 424.3033 		63.7766 		5.7086
v 417.9347 		87.9059 		5.7036
v 424.3423 		63.7637 		5.7086
v 416.3809 		81.3303 		5.7024
v 416.1399 		81.5847 		5.7022
v 418.0862 		87.4669 		5.7037
v 424.5541 		63.6937 		5.7088
v 418.2817 		86.9169 		5.7039
v 416.0958 		81.6317 		5.7022
v 424.6153 		63.6923 		5.7088
v 418.3147 		86.8262 		5.7039
v 422.9297 		65.546 		5.7075
v 418.8965 		90.0462 		6.9931
v 421.8759 		67.129 		5.7067
v 421.5494 		67.129 		6.9948
v 413.5399 		79.4412 		6.9888
v 419.1335 		90.037 		6.9931
v 413.4939 		80.3846 		6.9888
v 419.5936 		103.0418 		6.9931
v 413.4985 		80.1752 		6.9888
v 419.3705 		90.0393 		6.9931
v 419.6005 		90.0531 		6.9931
v 427.4349 		67.7019 		5.7111
v 413.5031 		79.9428 		6.9888
v 427.3682 		68.5809 		5.711
v 427.3038 		69.6922 		5.711
v 413.4916 		80.571 		6.9888
v 427.2485 		70.9854 		5.7109
v 413.5169 		79.6966 		6.9888
v 424.9361 		69.1791 		5.7091
v 424.9937 		68.6706 		5.7091
v 427.1085 		67.7019 		6.9991
v 419.9273 		89.4871 		6.994
v 427.0417 		68.5809 		6.9991
v 419.8191 		90.0784 		6.994
v 418.2591 		88.8221 		6.9923
v 418.128 		89.158 		6.9923
v 418.0152 		89.4618 		6.9923
v 417.9255 		89.7356 		6.9923
v 426.9773 		69.6922 		6.9991
v 417.8565 		89.9795 		6.9923
v 424.8855 		71.5169 		5.7091
v 424.9016 		70.1708 		5.7091
v 417.8127 		90.1911 		6.9923
v 426.9221 		70.9854 		6.9991
v 417.9232 		90.1658 		6.9923
v 418.0704 		90.1359 		6.9923
v 418.2453 		90.1083 		6.9923
v 418.4478 		90.083 		6.9923
v 424.6097 		69.1791 		6.9974
v 418.6664 		90.0623 		6.9923
v 424.6672 		68.6706 		6.9974
v 419.9666 		82.8591 		5.7052
v 419.9476 		82.8995 		5.7052
v 419.9384 		82.3427 		5.7052
v 424.3612 		68.9652 		6.9974
v 419.7935 		82.4946 		5.7051
v 419.6417 		82.697 		5.7049
v 419.4116 		84.0523 		5.7047
v 419.6141 		83.6082 		5.7049
v 419.642 		83.5481 		5.7049
v 419.7955 		83.2217 		5.7051
v 419.8194 		83.1715 		5.7051
v 418.9743 		83.7762 		5.7044
v 419.4922 		82.9317 		5.7048
v 423.9079 		69.4898 		6.9966
v 419.4693 		82.9696 		5.7048
v 419.3447 		83.1756 		5.7047
v 419.2067 		83.4126 		5.7046
v 419.0825 		83.6197 		5.7045
v 418.9912 		83.7518 		5.7044
v 418.8892 		83.8659 		5.7043
v 418.7857 		83.8797 		5.7043
v 418.6293 		83.8291 		5.7041
v 418.436 		83.7256 		5.704
v 418.2514 		83.6071 		5.7038
v 418.2173 		83.5852 		5.7038
v 417.985 		83.4149 		5.7036
v 417.7888 		83.2595 		5.7035
v 417.7526 		83.2309 		5.7034
v 418.1671 		86.3348 		6.9923
v 418.3972 		85.7182 		6.9923
v 418.6365 		85.1107 		6.9923
v 418.6365 		85.1107 		6.9922
v 418.6365 		85.1107 		6.9922
v 420.017 		84.524 		6.994
v 419.6834 		85.35 		6.9931
v 419.3912 		86.0748 		6.9931
v 424.7352 		68.9193 		5.7089
v 424.6875 		68.9652 		5.7089
v 418.8666 		84.5539 		6.9931
v 424.3048 		69.4082 		5.7086
v 424.2343 		69.4898 		5.7085
v 423.7505 		70.0977 		5.7082
v 423.3349 		70.21 		6.9966
v 423.6613 		70.21 		5.7081
v 423.5576 		70.3472 		5.708
v 422.9964 		71.0912 		5.7076
v 422.67 		71.0912 		6.9957
v 424.559 		71.5169 		6.9974
v 424.5751 		70.1708 		6.9974
v 418.6365 		85.1107 		6.9922
v 427.214 		72.3521 		5.7109
v 427.2002 		73.7488 		5.7109
v 427.2405 		76.2552 		5.7109
v 427.2459 		76.4616 		5.7109
v 427.2094 		75.1339 		5.7109
v 418.4935 		86.3348 		5.704
v 418.7255 		85.7182 		5.7042
v 418.5293 		86.2389 		5.7041
v 424.8898 		73.0953 		5.7091
v 424.8894 		72.8501 		5.7091
v 418.7628 		85.6236 		5.7042
v 418.9628 		85.1107 		5.7044
v 426.8876 		72.3521 		6.9991
v 426.8738 		73.7488 		6.9991
v 419.765 		85.9621 		5.705
v 419.7196 		86.0748 		5.705
v 420.0098 		85.35 		5.7052
v 419.157 		84.6406 		5.7046
v 419.1929 		84.5539 		5.7046
v 424.9384 		76.4477 		5.7091
v 424.9334 		76.1885 		5.7091
v 424.9082 		74.7796 		5.7091
v 419.2269 		84.4758 		5.7046
v 426.883 		75.1339 		6.9991
v 426.9175 		76.4616 		6.9991
v 417.134 		81.8112 		6.9914
v 424.5613 		73.0953 		6.9974
v 424.612 		76.4477 		6.9974
v 419.2278 		104.0841 		6.9931
v 424.5797 		74.7796 		6.9974
v 419.1772 		103.9967 		6.9931
v 419.1542 		103.9 		6.9931
v 419.168 		103.785 		6.9931
v 422.5937 		76.6939 		5.7073
v 419.214 		103.6515 		6.9931
v 422.6424 		76.8274 		6.9957
v 422.6521 		76.7147 		5.7073
v 419.3014 		103.4905 		6.9931
v 416.8648 		82.0436 		6.9914
v 416.9361 		81.9953 		6.9914
v 422.9688 		76.8274 		5.7075
v 417.012 		81.9446 		6.9914
v 419.428 		103.2949 		6.9931
v 422.9346 		76.9793 		6.9957
v 423.261 		76.9793 		5.7078
v 423.2936 		77.0065 		5.7078
v 419.4439 		70.9624 		5.7048
v 419.1174 		70.9624 		6.9931
v 416.7037 		82.1954 		6.9914
v 416.7474 		82.1425 		6.9914
v 420.0308 		104.5351 		6.994
v 420.3599 		68.9836 		6.994
v 416.6669 		82.3174 		6.9914
v 420.6863 		68.9836 		5.7058
v 416.6761 		82.253 		6.9914
v 416.8003 		82.0919 		6.9914
v 421.9383 		72.0967 		6.9948
v 419.8813 		104.5236 		6.994
v 422.2646 		72.0967 		5.707
v 419.7616 		104.496 		6.9931
v 419.6765 		104.4546 		6.9931
v 419.5338 		104.3487 		6.9931
v 419.4096 		104.2544 		6.9931
v 419.306 		104.1692 		6.9931
v 417.0166 		82.8627 		6.9914
v 416.8648 		82.704 		6.9914
v 416.7635 		82.5774 		6.9914
v 416.7083 		82.4785 		6.9914
v 416.6761 		82.3933 		6.9914
v 417.6586 		83.4149 		6.9923
v 417.4262 		83.2309 		6.9914
v 417.2076 		83.0422 		6.9914
v 421.6159 		73.0251 		5.7065
v 421.4957 		73.1965 		5.7064
v 421.1675 		73.1965 		6.9948
v 420.8352 		74.174 		5.7059
v 420.7139 		74.3539 		5.7058
v 420.3875 		74.3539 		6.994
v 415.5141 		81.825 		6.9905
v 418.6388 		103.2972 		6.9923
v 418.5973 		103.8333 		6.9923
v 421.485 		76.526 		6.9948
v 421.8071 		76.5743 		6.9948
v 422.2673 		76.6939 		6.9957
v 418.595 		104.2866 		6.9923
v 418.6135 		104.6662 		6.9923
v 420.3691 		76.9977 		6.994
v 420.5416 		76.832 		6.994
v 420.7349 		76.6939 		6.994
v 422.52 		83.0077 		5.7072
v 420.9535 		76.5904 		6.9948
v 422.6696 		82.6579 		5.7073
v 422.6914 		82.607 		5.7073
v 422.8101 		82.3312 		5.7074
v 422.9408 		82.0413 		5.7075
v 421.202 		76.5329 		6.9948
v 422.8301 		82.2862 		5.7074
v 422.9591 		82.0034 		5.7075
v 423.0562 		81.7974 		5.7076
v 423.0864 		85.1084 		6.9957
v 420.6955 		76.9977 		5.7058
v 420.8681 		76.832 		5.7059
v 421.0613 		76.6939 		5.706
v 421.0953 		76.6778 		5.7061
v 421.2799 		76.5904 		5.7062
v 421.5283 		76.5329 		5.7064
v 421.8115 		76.526 		5.7066
v 421.5724 		76.5318 		5.7065
v 421.8615 		76.5335 		5.7067
v 422.1355 		76.5743 		5.7069
v 422.2071 		76.5929 		5.707
v 419.1183 		76.8807 		5.7045
v 419.619 		75.5343 		6.9931
v 419.9453 		75.5343 		5.7052
v 419.3334 		76.523 		5.7047
v 418.8942 		76.7055 		6.9931
v 419.2205 		76.7055 		5.7046
v 422.9277 		85.235 		6.9957
v 423.0473 		86.2773 		6.9957
v 423.1164 		85.6859 		6.9966
v 422.7183 		85.5065 		6.9957
v 422.4721 		85.8953 		6.9957
v 423.4128 		85.1084 		5.7079
v 423.2541 		85.235 		5.7078
v 423.3737 		86.2773 		5.7079
v 423.3845 		86.1852 		5.7079
v 423.438 		85.596 		5.7079
v 423.4427 		85.6859 		5.7079
v 423.0447 		85.5065 		5.7076
v 422.7986 		85.8953 		5.7074
v 422.5731 		86.2974 		5.7072
v 422.5315 		86.3716 		5.7072
v 420.0699 		77.3957 		6.994
v 418.9927 		90.0623 		5.7044
v 420.2126 		77.1886 		6.994
v 419.1869 		90.0487 		5.7046
v 419.2228 		90.0462 		5.7046
v 419.2597 		90.0448 		5.7046
v 419.4599 		90.037 		5.7048
v 419.6969 		90.0393 		5.705
v 419.9269 		90.0531 		5.7052
v 418.5855 		88.8221 		5.7041
v 418.4544 		89.158 		5.704
v 418.3417 		89.4618 		5.7039
v 418.2658 		89.6929 		5.7039
v 418.2518 		89.7356 		5.7038
v 418.6411 		104.9723 		6.9923
v 414.3844 		81.6961 		6.9897
v 416.9679 		92.9638 		5.7028
v 417.1244 		93.0466 		5.703
v 416.8436 		92.8705 		5.7027
v 416.8207 		92.8533 		5.7027
v 416.6826 		92.7245 		5.7026
v 416.563 		92.5818 		5.7025
v 417.6927 		92.9765 		5.7034
v 417.582 		93.0581 		5.7033
v 414.1796 		81.5926 		6.9888
v 418.6641 		105.2116 		6.9923
v 417.4576 		93.0931 		5.7032
v 417.4351 		93.0995 		5.7032
v 415.4566 		83.8981 		6.9905
v 417.4112 		93.0988 		5.7032
v 417.2829 		93.0949 		5.7031
v 417.1487 		93.0541 		5.703
v 415.8616 		84.073 		6.9905
v 418.2357 		72.9204 		5.7038
v 417.9094 		72.9204 		6.9923
v 418.4239 		72.6154 		5.704
v 415.6591 		83.9787 		6.9905
v 416.4664 		92.4322 		5.7024
v 416.3974 		92.285 		5.7024
v 416.3698 		92.1584 		5.7024
v 416.3767 		92.0273 		5.7024
v 416.4131 		91.8915 		5.7024
v 416.382 		92.0062 		5.7024
v 416.4228 		91.8683 		5.7024
v 416.4733 		91.742 		5.7024
v 413.4571 		80.9391 		6.9888
v 413.4594 		80.8402 		6.9888
v 425.0765 		96.261 		5.7092
v 413.9909 		81.4845 		6.9888
v 413.8252 		81.374 		6.9888
v 413.6826 		81.2636 		6.9888
v 424.75 		96.261 		6.9974
v 413.5721 		81.1531 		6.9888
v 413.4939 		81.045 		6.9888
v 413.4801 		80.7229 		6.9888
v 420.2605 		77.612 		5.7054
v 420.3963 		77.3957 		5.7055
v 420.541 		77.1886 		5.7056
v 420.4185 		77.3635 		5.7055
v 420.5653 		77.159 		5.7057
v 420.1271 		77.8306 		5.7053
v 420.1479 		77.7966 		5.7053
v 422.3248 		79.4712 		6.9957
v 421.9521 		80.1453 		6.9948
v 422.3365 		80.0404 		5.707
v 422.2785 		80.1453 		5.707
v 421.5632 		80.9368 		6.9948
v 416.8141 		74.7106 		6.9914
v 417.1405 		74.7106 		5.703
v 421.8897 		80.9368 		5.7067
v 415.9191 		76.1877 		6.9905
v 416.2456 		76.1877 		5.7023
v 416.3847 		75.9582 		5.7024
v 421.5535 		81.6691 		5.7064
v 427.2964 		77.4992 		5.7109
v 427.3061 		77.6902 		5.711
v 427.3958 		78.7763 		5.711
v 427.189 		79.6759 		6.9991
v 427.3408 		80.3455 		6.9991
v 427.6929 		80.9645 		7
v 427.5272 		80.7436 		7
v 419.046 		79.0087 		6.9931
v 419.3636 		78.5209 		6.9931
v 418.2384 		77.8306 		6.9923
v 427.4674 		81.4983 		6.9991
v 419.9342 		77.612 		6.994
v 413.8183 		80.542 		5.7004
v 413.8222 		80.3846 		5.7004
v 413.8179 		80.571 		5.7004
v 413.8229 		80.352 		5.7004
v 413.8248 		80.1752 		5.7004
v 413.8294 		79.9428 		5.7004
v 413.8433 		79.6966 		5.7004
v 413.8682 		79.4412 		5.7004
v 413.8468 		79.6569 		5.7004
v 413.8746 		79.4007 		5.7004
v 419.6213 		78.1159 		6.9931
v 414.7107 		81.6961 		5.7011
v 414.7444 		81.7116 		5.7011
v 414.5379 		81.6087 		5.7009
v 419.8007 		77.8306 		6.9931
v 414.506 		81.5926 		5.7009
v 414.3173 		81.4845 		5.7008
v 414.1517 		81.374 		5.7006
v 414.0091 		81.2636 		5.7005
v 413.9919 		81.2464 		5.7005
v 413.8985 		81.1531 		5.7004
v 418.5649 		77.8306 		5.7041
v 413.8222 		81.045 		5.7004
v 413.8863 		81.1363 		5.7004
v 418.083 		78.6795 		5.7037
v 413.8164 		81.0285 		5.7004
v 417.9942 		78.8361 		5.7036
v 413.7834 		80.9391 		5.7003
v 413.7877 		80.8402 		5.7003
v 413.7838 		80.9237 		5.7003
v 413.7909 		80.8219 		5.7003
v 419.4218 		78.9327 		5.7048
v 419.69 		78.5209 		5.705
v 413.8064 		80.7229 		5.7004
v 419.3723 		79.0087 		5.7047
v 421.7289 		84.0753 		6.9948
v 419.9476 		78.1159 		5.7052
v 422.3432 		82.6579 		6.9957
v 422.1937 		83.0077 		6.9957
v 422.0395 		83.3689 		6.9957
v 421.8854 		83.7302 		6.9948
v 417.9646 		80.6377 		6.9923
v 418.3258 		80.1016 		6.9923
v 418.694 		79.5471 		6.9923
v 420.3806 		83.6335 		6.994
v 420.7671 		82.7155 		6.994
v 421.1652 		81.8043 		6.9948
v 421.4915 		81.8043 		5.7064
v 422.0553 		84.0753 		5.7068
v 422.2357 		83.674 		5.707
v 422.3678 		83.3689 		5.7071
v 422.2117 		83.7302 		5.707
v 422.3918 		83.3127 		5.7071
v 421.0935 		82.7155 		5.7061
v 420.707 		83.6335 		5.7058
v 421.1555 		82.5737 		5.7061
v 420.0715 		82.6395 		5.7053
v 420.0851 		82.6095 		5.7053
v 420.157 		82.4462 		5.7053
v 420.2007 		82.3243 		5.7054
v 420.1984 		82.2737 		5.7054
v 420.0955 		82.264 		5.7053
v 420.0765 		82.2622 		5.7053
v 421.577 		84.3974 		6.9948
v 421.416 		84.7518 		6.9948
v 420.8315 		86.2888 		6.994
v 421.0363 		85.7136 		6.9948
v 421.2319 		85.1958 		6.9948
v 422.2052 		86.3716 		6.9957
v 421.7425 		84.7518 		5.7066
v 421.9035 		84.3974 		5.7067
v 421.3627 		85.7136 		5.7063
v 421.5582 		85.1958 		5.7064
v 421.5869 		85.1266 		5.7065
v 420.4 		84.3853 		5.7055
v 420.3434 		84.524 		5.7055
v 420.2914 		84.6527 		5.7054
v 421.1579 		86.2888 		5.7061
v 421.1898 		86.1993 		5.7062
v 419.8721 		82.2737 		6.994
v 419.8306 		82.4462 		6.994
v 419.8744 		82.3243 		6.994
v 419.6121 		82.3427 		6.9931
v 419.7501 		82.2622 		6.9931
v 419.6213 		82.8995 		6.9931
v 419.7432 		82.6395 		6.9931
v 419.3152 		82.697 		6.9931
v 419.4671 		82.4946 		6.9931
v 419.1657 		82.9317 		6.9931
v 419.0184 		83.1756 		6.9931
v 419.0851 		84.0523 		6.9931
v 419.2876 		83.6082 		6.9931
v 419.4671 		83.2217 		6.9931
v 418.648 		83.7762 		6.9923
v 418.5628 		83.8659 		6.9923
v 418.7561 		83.6197 		6.9931
v 418.8804 		83.4126 		6.9931
v 418.4593 		83.8797 		6.9923
v 427.3293 		81.4937 		6.9991
v 427.189 		81.4845 		6.9991
v 427.4987 		79.536 		5.7111
v 427.5173 		79.6759 		5.7111
v 427.6436 		80.2413 		5.7112
v 427.6672 		80.3455 		5.7112
v 427.8135 		81.4976 		5.7113
v 427.7938 		81.4983 		5.7113
v 427.9203 		81.4937 		5.7114
v 427.6557 		81.4937 		5.7112
v 427.5154 		81.4845 		5.7111
v 427.3429 		81.4523 		5.711
v 427.8794 		80.778 		5.7114
v 428.0212 		80.9645 		5.7115
v 427.8536 		80.7436 		5.7114
v 428.1224 		81.1393 		5.7116
v 428.1663 		81.2705 		5.7116
v 428.1595 		81.2501 		5.7116
v 428.1605 		81.3521 		5.7116
v 428.1597 		81.3671 		5.7116
v 427.8245 		80.6816 		5.7114
v 428.1188 		81.4234 		5.7116
v 428.1112 		81.4338 		5.7116
v 428.0284 		81.473 		5.7115
v 425.0417 		79.3671 		5.7092
v 425.0328 		79.2319 		5.7092
v 424.9821 		77.9733 		5.7091
v 426.9796 		77.6902 		6.9991
v 427.0693 		78.7763 		6.9991
v 427.0164 		81.4523 		6.9991
v 426.7863 		81.3809 		6.9991
v 426.5148 		81.2797 		6.9991
v 426.2203 		81.1577 		6.9983
v 425.9143 		81.0243 		6.9983
v 425.6175 		80.8839 		6.9983
v 425.3436 		80.7482 		6.9983
v 425.1113 		80.6262 		6.9974
v 424.9318 		80.525 		6.9974
v 424.8259 		80.4537 		6.9974
v 424.819 		81.6616 		6.9974
v 417.7184 		81.4636 		5.7034
v 418.0093 		81.0496 		5.7037
v 418.2911 		80.6377 		5.7039
v 417.9573 		81.1255 		5.7036
v 418.6523 		80.1016 		5.7042
v 419.0203 		79.5471 		5.7044
v 419.0752 		79.4633 		5.7045
v 418.1828 		89.9795 		5.7038
v 417.6678 		78.8361 		6.9923
v 424.6529 		97.2983 		5.7089
v 424.2484 		97.4897 		6.9974
v 424.5748 		97.4897 		5.7088
v 418.1391 		90.1911 		5.7038
v 418.2495 		90.1658 		5.7038
v 418.2724 		90.1612 		5.7039
v 418.3969 		90.1359 		5.704
v 418.5737 		90.1083 		5.7041
v 418.4241 		90.1316 		5.704
v 418.6052 		90.1044 		5.7041
v 418.7742 		90.083 		5.7043
v 417.4147 		88.4724 		6.9914
v 417.5803 		87.9869 		6.9914
v 424.1046 		98.5002 		5.7084
v 424.018 		98.6861 		5.7084
v 423.6916 		98.6861 		6.9966
v 423.4608 		99.7814 		5.7079
v 423.1325 		99.7814 		6.9966
v 423.5478 		99.6108 		5.708
v 423.0295 		100.5665 		5.7076
v 415.6334 		77.2071 		5.7018
v 415.385 		77.6212 		5.7016
v 414.7663 		77.7455 		6.9897
v 414.8584 		77.734 		6.9897
v 416.6554 		90.7089 		6.9914
v 416.7635 		90.4166 		6.9914
v 416.874 		90.0922 		6.9914
v 414.9412 		77.711 		6.9897
v 415.0102 		77.6741 		6.9897
v 415.307 		77.2071 		6.9897
v 415.0585 		77.6212 		6.9897
v 416.5403 		90.9666 		6.9914
v 424.7845 		101.323 		6.9974
v 424.9686 		101.445 		6.9974
v 425.1205 		101.5784 		6.9974
v 425.2148 		101.7073 		6.9974
v 417.1225 		89.3467 		6.9914
v 416.9936 		89.7356 		6.9914
v 417.2628 		88.9256 		6.9914
v 414.6674 		77.7501 		6.9897
v 414.5684 		77.7501 		6.9897
v 414.4741 		77.7478 		6.9897
v 417.3201 		89.7356 		5.7031
v 417.4489 		89.3467 		5.7032
v 417.5892 		88.9256 		5.7033
v 416.7735 		91.1608 		5.7027
v 416.8667 		90.9666 		5.7028
v 425.2539 		101.8338 		6.9974
v 425.2424 		101.9535 		6.9974
v 416.9817 		90.7089 		5.7028
v 425.1849 		102.0685 		6.9974
v 417.1071 		90.3661 		5.7029
v 417.2005 		90.0922 		5.703
v 417.0899 		90.4166 		5.7029
v 425.0813 		102.1743 		6.9974
v 424.9387 		102.2756 		6.9974
v 422.0832 		91.3462 		6.9957
v 421.676 		91.4451 		6.9948
v 421.294 		91.4843 		6.9948
v 421.2457 		92.8188 		6.9948
v 421.9705 		92.1976 		6.9948
v 420.1873 		91.8685 		6.994
v 420.3046 		91.5832 		6.994
v 424.9177 		101.2333 		5.7091
v 425.111 		101.323 		5.7092
v 425.295 		101.445 		5.7094
v 425.4468 		101.5784 		5.7095
v 425.5412 		101.7073 		5.7096
v 420.4059 		91.4152 		6.994
v 420.6452 		91.4521 		6.994
v 420.9466 		91.4797 		6.9948
v 425.5803 		101.8338 		5.7096
v 425.5707 		101.9535 		5.7096
v 425.5725 		101.9348 		5.7096
v 425.5202 		102.0506 		5.7095
v 425.5113 		102.0685 		5.7095
v 425.4077 		102.1743 		5.7095
v 425.2651 		102.2756 		5.7094
v 425.0834 		102.3676 		5.7092
v 424.8671 		102.4505 		5.709
v 424.3911 		101.1688 		6.9974
v 424.5912 		101.2333 		6.9974
v 423.779 		101.1481 		6.9966
v 423.9838 		101.1274 		6.9966
v 424.1886 		101.1343 		6.9966
v 424.7569 		102.3676 		6.9974
v 424.5406 		102.4505 		6.9974
v 424.2944 		102.5218 		6.9974
v 424.016 		102.6138 		6.9966
v 423.7077 		102.745 		6.9966
v 414.2023 		84.4388 		5.7007
v 414.2851 		84.3169 		5.7007
v 414.3633 		84.1972 		5.7008
v 413.9424 		84.7265 		5.7005
v 414.0298 		84.6436 		5.7005
v 414.1172 		84.547 		5.7006
v 413.8703 		84.7906 		5.7004
v 413.857 		84.8024 		5.7004
v 413.7003 		84.9335 		5.7003
v 423.1831 		101.3575 		6.9966
v 413.6312 		84.9911 		5.7002
v 413.7124 		84.9239 		5.7003
v 413.7765 		84.8714 		5.7003
v 413.5695 		85.0486 		5.7002
v 413.5788 		85.0396 		5.7002
v 423.3764 		101.2632 		6.9966
v 423.5765 		101.1918 		6.9966
v 413.4245 		85.2465 		5.7001
v 413.4682 		85.1774 		5.7001
v 413.5211 		85.1061 		5.7001
v 413.5287 		85.0972 		5.7001
v 422.624 		100.711 		6.9957
v 415.2538 		86.4015 		5.7015
v 415.0422 		86.4291 		5.7013
v 422.5043 		101.7372 		6.9957
v 414.8517 		86.4155 		5.7012
v 414.3867 		77.7478 		6.9897
v 422.6562 		101.6773 		6.9957
v 422.9967 		101.4772 		6.9957
v 422.8218 		101.5899 		6.9957
v 414.313 		77.7524 		6.9888
v 423.381 		102.9106 		6.9966
v 414.2601 		77.7662 		6.9888
v 414.2118 		77.7915 		6.9888
v 414.1129 		77.8881 		6.9888
v 414.1635 		77.8329 		6.9888
v 413.961 		78.1366 		6.9888
v 414.0139 		78.04 		6.9888
v 414.0645 		77.9572 		6.9888
v 413.5813 		79.1812 		6.9888
v 414.8162 		86.413 		5.7011
v 414.6181 		86.3664 		5.701
v 414.5815 		86.3578 		5.701
v 414.3814 		86.2859 		5.7008
v 414.3449 		86.2727 		5.7008
v 414.1149 		86.1622 		5.7006
v 413.9302 		86.0535 		5.7004
v 413.8962 		86.0334 		5.7004
v 413.696 		85.893 		5.7003
v 413.6688 		85.8708 		5.7002
v 413.5211 		85.7504 		5.7001
v 413.4567 		85.6859 		5.7001
v 413.4107 		85.6215 		5.7
v 413.3785 		85.5594 		5.7
v 413.3624 		85.4996 		5.7
v 413.3601 		85.4374 		5.7
v 413.3693 		85.3753 		5.7
v 413.3923 		85.3109 		5.7
v 425.2743 		86.9399 		5.7094
v 424.9479 		86.9399 		6.9974
v 425.0213 		87.743 		5.7092
v 422.6815 		87.4346 		6.9957
v 417.2147 		82.7287 		5.703
v 417.1911 		82.704 		5.703
v 422.8978 		86.8663 		6.9957
v 417.1267 		82.0919 		5.703
v 417.4604 		81.8112 		5.7032
v 417.1911 		82.0436 		5.703
v 417.3431 		82.8627 		5.7031
v 424.6948 		87.743 		6.9974
v 417.2515 		82.0028 		5.7031
v 424.4026 		88.5368 		6.9974
v 417.2626 		81.9953 		5.7031
v 417.3385 		81.9446 		5.7031
v 417.0899 		82.5774 		5.7029
v 417.0346 		82.4785 		5.7029
v 417.0024 		82.3933 		5.7029
v 416.9932 		82.3174 		5.7029
v 416.9947 		82.3074 		5.7029
v 417.0044 		82.253 		5.7029
v 417.032 		82.1954 		5.7029
v 417.0388 		82.1872 		5.7029
v 417.0737 		82.1425 		5.7029
v 417.534 		83.0422 		5.7033
v 422.748 		87.9685 		5.7074
v 423.0079 		87.4346 		5.7076
v 423.2242 		86.8663 		5.7077
v 415.6058 		81.9239 		5.7018
v 415.3804 		81.9423 		5.7016
v 415.8424 		81.825 		5.702
v 415.8822 		81.7949 		5.702
v 415.6423 		81.9085 		5.7018
v 422.4576 		88.4494 		5.7071
v 422.5031 		88.3745 		5.7072
v 415.4195 		83.7992 		5.7016
v 415.592 		83.8383 		5.7018
v 424.7764 		88.4131 		5.709
v 424.7309 		88.5368 		5.7089
v 415.6218 		83.8476 		5.7018
v 415.7849 		83.8981 		5.7019
v 415.9854 		83.9787 		5.7021
v 415.8164 		83.9107 		5.7019
v 416.017 		83.9934 		5.7021
v 423.7261 		89.9795 		6.9966
v 416.19 		84.073 		5.7022
v 423.3349 		90.5018 		6.9966
v 414.8284 		81.8871 		6.9897
v 414.6006 		81.7951 		6.9897
v 422.9254 		90.8906 		6.9957
v 415.0539 		81.9423 		6.9897
v 422.5043 		91.1667 		6.9957
v 415.2794 		81.9239 		6.9897
v 424.0804 		89.3076 		6.9966
v 414.8054 		83.7877 		6.9897
v 414.9527 		83.7854 		6.9897
v 413.6412 		78.9212 		6.9888
v 413.7263 		78.6658 		6.9888
v 413.7884 		78.514 		6.9888
v 413.8482 		78.3736 		6.9888
v 413.9058 		78.2494 		6.9888
v 415.093 		83.7992 		6.9897
v 422.4096 		91.3462 		5.7071
v 422.0658 		91.4298 		5.7068
v 422.0024 		91.4451 		5.7068
v 421.6205 		91.4843 		5.7065
v 421.327 		91.4804 		5.7063
v 421.273 		91.4797 		5.7062
v 421.574 		92.8188 		5.7065
v 421.6869 		92.722 		5.7065
v 422.2969 		92.1976 		5.707
v 420.6311 		91.5832 		5.7057
v 420.4048 		92.1987 		5.7055
v 420.3844 		92.2597 		5.7055
v 420.5138 		91.8685 		5.7056
v 420.7695 		91.421 		5.7058
v 420.7323 		91.4152 		5.7058
v 421.0204 		91.4564 		5.706
v 420.9735 		91.4521 		5.706
v 420.2659 		92.6599 		5.7054
v 420.124 		93.1922 		5.7053
v 420.1018 		93.2767 		5.7053
v 420.2444 		92.7337 		5.7054
v 420.5232 		93.707 		6.994
v 420.962 		93.5688 		5.706
v 420.8496 		93.707 		5.7059
v 420.1455 		94.8919 		5.7053
v 420.2551 		94.7074 		5.7054
v 420.0561 		92.2597 		6.994
v 418.9126 		91.5073 		6.9931
v 419.0989 		92.285 		6.9931
v 419.2301 		91.8524 		6.9931
v 419.3567 		91.4636 		6.9931
v 419.1335 		91.4521 		6.9931
v 418.9701 		92.7659 		6.9931
v 419.9181 		92.7337 		6.994
v 419.7754 		93.2767 		6.9931
v 418.0796 		92.163 		6.9923
v 418.2775 		91.9583 		6.9923
v 418.6963 		91.6177 		6.9923
v 418.4846 		91.7719 		6.9923
v 417.8887 		92.3793 		6.9923
v 418.8389 		93.2997 		6.9931
v 419.4254 		92.285 		5.7048
v 419.5566 		91.8524 		5.7049
v 419.5762 		91.792 		5.7049
v 419.685 		91.4636 		5.705
v 419.2071 		91.5245 		5.7046
v 419.0226 		91.6177 		5.7044
v 419.2409 		91.5073 		5.7046
v 419.4619 		91.4521 		5.7048
v 419.2753 		91.4987 		5.7046
v 419.1653 		93.2997 		5.7046
v 419.2964 		92.7659 		5.7047
v 419.3165 		92.691 		5.7047
v 418.811 		91.7719 		5.7043
v 418.604 		91.9583 		5.7041
v 418.4061 		92.163 		5.704
v 418.2448 		92.3456 		5.7038
v 418.215 		92.3793 		5.7038
v 418.0356 		92.591 		5.7037
v 417.8938 		92.7581 		5.7036
v 417.8676 		92.7889 		5.7035
v 417.7135 		92.9615 		5.7034
v 419.8191 		94.8919 		6.994
v 419.3659 		95.1404 		6.9931
v 419.2508 		95.7824 		6.9931
v 419.4947 		94.4962 		6.9931
v 419.6328 		93.8703 		6.9931
v 418.4478 		95.2532 		6.9923
v 418.5789 		94.5376 		6.9923
v 418.7101 		93.8887 		6.9923
v 418.7742 		95.2532 		5.7043
v 419.9591 		93.8703 		5.7052
v 419.8211 		94.4962 		5.7051
v 419.6923 		95.1404 		5.705
v 419.5773 		95.7824 		5.7049
v 418.9053 		94.5376 		5.7044
v 419.0365 		93.8887 		5.7045
v 419.0565 		93.797 		5.7045
v 419.5543 		104.0841 		5.7049
v 418.3028 		83.8291 		6.9923
v 418.9791 		103.2002 		5.7044
v 418.1096 		83.7256 		6.9923
v 417.891 		83.5852 		6.9923
v 418.9651 		103.2972 		5.7044
v 419.5037 		103.9967 		5.7048
v 419.4826 		103.9 		5.7048
v 419.5001 		103.9816 		5.7048
v 419.4847 		103.8822 		5.7048
v 419.4945 		103.785 		5.7048
v 419.5405 		103.6515 		5.7049
v 419.6279 		103.4905 		5.7049
v 419.7544 		103.2949 		5.705
v 419.7802 		103.2555 		5.705
v 419.922 		103.0418 		5.7052
v 418.9237 		103.8333 		5.7044
v 420.0029 		104.4546 		5.7052
v 419.8602 		104.3487 		5.7051
v 424.3536 		89.4122 		5.7086
v 424.0526 		89.9795 		5.7084
v 419.736 		104.2544 		5.705
v 423.6632 		90.5018 		5.7081
v 419.6325 		104.1692 		5.7049
v 423.7242 		90.4204 		5.7081
v 423.3155 		90.8301 		5.7078
v 418.9214 		104.2866 		5.7044
v 423.2518 		90.8906 		5.7078
v 422.8308 		91.1667 		5.7074
v 418.9398 		104.6662 		5.7044
v 424.4589 		89.1876 		5.7087
v 424.4088 		89.3076 		5.7087
v 418.9674 		104.9723 		5.7044
v 418.9904 		105.2116 		5.7044
v 424.7933 		91.7719 		5.709
v 417.7733 		105.0551 		5.7035
v 418.1096 		83.7256 		6.9922
v 418.1096 		83.7256 		6.9922
v 417.8975 		105.1448 		5.7036
v 424.895 		92.025 		6.9974
v 418.0287 		105.2369 		5.7037
v 424.86 		91.8113 		5.709
v 425.2214 		92.025 		5.7093
v 417.9179 		105.1592 		5.7036
v 425.532 		92.3609 		5.7096
v 418.1096 		83.7256 		6.9922
v 417.465 		102.7956 		5.7032
v 417.1386 		102.7956 		6.9914
v 417.6031 		102.1237 		5.7033
v 417.2766 		102.1237 		6.9914
v 417.4331 		101.3759 		6.9914
v 416.9568 		103.8839 		6.9914
v 417.0304 		103.3869 		6.9914
v 417.3295 		104.9723 		6.9914
v 417.4469 		105.0551 		6.9914
v 417.5711 		105.1448 		6.9914
v 417.7023 		105.2369 		6.9923
v 425.2056 		92.3609 		6.9974
v 425.7184 		92.9417 		5.7097
v 425.4265 		93.0489 		6.9983
v 425.7528 		93.0489 		5.7097
v 425.3897 		93.9739 		6.9983
v 425.716 		93.9739 		5.7097
v 425.1481 		95.0668 		6.9974
v 425.5121 		94.8967 		5.7095
v 425.4745 		95.0668 		5.7095
v 417.2214 		104.8894 		6.9914
v 417.1271 		104.8089 		6.9914
v 422.6723 		91.8133 		6.9957
v 423.3372 		91.6338 		6.9966
v 423.9401 		91.6315 		6.9966
v 424.467 		91.7719 		6.9974
v 422.7654 		91.1946 		5.7074
v 417.0511 		104.7284 		6.9914
v 416.9936 		104.6478 		6.9914
v 416.9591 		104.5673 		6.9914
v 416.9315 		104.2797 		6.9914
v 415.2656 		83.8383 		6.9897
v 417.2833 		103.8839 		5.7031
v 417.3569 		103.3869 		5.7031
v 417.6559 		104.9723 		5.7034
v 423.7027 		101.2632 		5.7081
v 423.7339 		101.2521 		5.7081
v 423.903 		101.1918 		5.7083
v 424.1055 		101.1481 		5.7084
v 417.5478 		104.8894 		5.7033
v 417.4535 		104.8089 		5.7032
v 424.3102 		101.1274 		5.7086
v 417.3776 		104.7284 		5.7032
v 424.5149 		101.1343 		5.7088
v 417.3201 		104.6478 		5.7031
v 424.7174 		101.1688 		5.7089
v 417.2856 		104.5673 		5.7031
v 424.5465 		101.1397 		5.7088
v 417.258 		104.2797 		5.7031
v 424.7486 		101.1789 		5.7089
v 418.6526 		105.5337 		6.9923
v 418.6687 		105.3956 		6.9923
v 418.6158 		105.6303 		6.9923
v 418.5605 		105.6901 		6.9923
v 418.4892 		105.7155 		6.9923
v 424.6591 		102.5107 		5.7089
v 418.4041 		105.7086 		6.9923
v 418.3074 		105.674 		6.9923
v 424.6208 		102.5218 		5.7088
v 424.3858 		102.5995 		5.7087
v 424.3424 		102.6138 		5.7086
v 418.1993 		105.6142 		6.9923
v 418.0842 		105.5337 		6.9923
v 423.7601 		102.8848 		5.7082
v 423.7092 		102.9106 		5.7081
v 417.96 		105.437 		6.9923
v 424.0341 		102.745 		5.7084
v 417.8311 		105.3335 		6.9923
v 422.7161 		101.7702 		5.7073
v 422.8327 		101.7372 		5.7074
v 422.6951 		101.7763 		5.7073
v 422.9846 		101.6773 		5.7076
v 423.0103 		101.6637 		5.7076
v 417.3871 		92.9615 		6.9914
v 417.2536 		93.0581 		6.9914
v 423.325 		101.4772 		5.7078
v 423.3541 		101.4585 		5.7078
v 423.5094 		101.3575 		5.708
v 423.1754 		101.5724 		5.7077
v 423.1482 		101.5899 		5.7077
v 422.5384 		101.4058 		5.7072
v 422.9504 		100.711 		5.7075
v 422.8864 		100.819 		5.7075
v 422.4717 		101.8108 		5.7072
v 422.5752 		101.7993 		5.7072
v 422.5939 		101.7957 		5.7073
v 423.4237 		103.068 		5.7079
v 423.3714 		103.097 		5.7079
v 423.045 		103.097 		6.9957
v 422.7091 		103.2972 		6.9957
v 423.0355 		103.2972 		5.7076
v 422.7089 		103.502 		5.7073
v 422.4504 		103.671 		5.7071
v 421.9038 		96.7787 		6.9948
v 421.89 		96.4404 		6.9948
v 421.7979 		96.2817 		6.9948
v 421.6346 		96.3001 		6.9948
v 421.4022 		96.5049 		6.9948
v 421.6829 		97.966 		6.9948
v 421.837 		97.2872 		6.9948
v 421.1054 		96.896 		6.9948
v 420.7487 		97.4759 		6.994
v 422.2301 		96.7787 		5.707
v 422.2164 		96.4404 		5.707
v 422.1243 		96.2817 		5.7069
v 421.961 		96.3001 		5.7068
v 421.7286 		96.5049 		5.7066
v 421.4779 		96.8351 		5.7064
v 421.4317 		96.896 		5.7063
v 422.0112 		97.966 		5.7068
v 422.0352 		97.8603 		5.7068
v 422.1634 		97.2872 		5.7069
v 421.1306 		97.3856 		5.7061
v 421.0751 		97.4759 		5.7061
v 420.3368 		98.2513 		6.994
v 421.0018 		100.1058 		6.9948
v 421.4735 		98.7161 		6.9948
v 421.2457 		99.4293 		6.9948
v 420.6633 		98.2513 		5.7057
v 420.5911 		98.4022 		5.7057
v 420.1984 		99.2223 		5.7054
v 421.3282 		100.1058 		5.7063
v 421.6075 		99.3182 		5.7065
v 421.8019 		98.7161 		5.7066
v 421.572 		99.4293 		5.7065
v 418.1901 		96.8914 		6.9923
v 418.0612 		97.821 		6.9923
v 418.3189 		96.0355 		6.9923
v 419.1519 		96.4059 		6.9931
v 418.5165 		96.8914 		5.7041
v 418.6454 		96.0355 		5.7042
v 418.3877 		97.821 		5.7039
v 419.4783 		96.4059 		5.7048
v 419.582 		96.1707 		5.7049
v 422.9987 		91.8133 		5.7076
v 423.1021 		91.7854 		5.7076
v 423.6636 		91.6338 		5.7081
v 423.7575 		91.6335 		5.7082
v 424.2684 		91.6315 		5.7086
v 418.995 		105.3956 		5.7044
v 418.9789 		105.5337 		5.7044
v 418.9421 		105.6303 		5.7044
v 418.8869 		105.6901 		5.7043
v 418.8156 		105.7155 		5.7043
v 418.7457 		105.7096 		5.7042
v 418.7324 		105.7086 		5.7042
v 418.6489 		105.6794 		5.7042
v 418.6339 		105.674 		5.7041
v 418.5257 		105.6142 		5.7041
v 418.4107 		105.5337 		5.704
v 418.3057 		105.4521 		5.7039
v 418.2863 		105.437 		5.7039
v 418.1575 		105.3335 		5.7038
v 414.3614 		83.8889 		6.9897
v 414.4557 		83.8475 		6.9897
v 414.1934 		84.0109 		6.9888
v 414.2739 		83.9418 		6.9888
v 414.5592 		83.8176 		6.9897
v 414.6766 		83.7992 		6.9897
v 414.1152 		84.0937 		6.9888
v 415.1549 		81.8871 		5.7014
v 414.9644 		81.8094 		5.7013
v 414.9289 		81.7951 		5.7012
v 414.4415 		84.0937 		5.7009
v 414.5198 		84.0109 		5.7009
v 414.6003 		83.9418 		5.701
v 414.6139 		83.9336 		5.701
v 414.6877 		83.8889 		5.701
v 414.7821 		83.8475 		5.7011
v 414.8875 		83.8176 		5.7012
v 414.7982 		83.8429 		5.7011
v 414.9058 		83.8147 		5.7012
v 415.0029 		83.7992 		5.7013
v 415.1338 		83.7877 		5.7014
v 415.023 		83.7974 		5.7013
v 415.1567 		83.7873 		5.7014
v 415.2791 		83.7854 		5.7015
v 416.5403 		84.8461 		6.9914
v 416.5334 		84.6873 		6.9914
v 416.5012 		84.9957 		6.9905
v 416.4207 		85.136 		6.9905
v 416.3056 		85.2695 		6.9905
v 416.4782 		84.5562 		6.9905
v 416.3747 		84.4273 		6.9905
v 416.2297 		84.3008 		6.9905
v 416.0548 		84.1811 		6.9905
v 416.163 		85.4052 		6.9905
v 415.4566 		86.0058 		6.9905
v 415.9996 		85.5433 		6.9905
v 415.8224 		85.6859 		6.9905
v 415.6407 		85.8378 		6.9905
v 424.7112 		91.75 		5.7089
v 422.4215 		87.9685 		6.9957
v 421.9314 		86.9077 		6.9948
v 421.6691 		87.4761 		6.9948
v 421.4321 		88.049 		6.9948
v 422.1293 		88.4494 		6.9957
v 420.2379 		88.2055 		6.994
v 420.4243 		87.5497 		6.994
v 421.2365 		88.5989 		6.9948
v 420.6245 		86.9054 		6.994
v 420.4224 		88.7552 		5.7055
v 420.5644 		88.2055 		5.7057
v 420.7237 		87.6516 		5.7058
v 420.7527 		87.5497 		5.7058
v 420.9197 		87.0057 		5.7059
v 422.3023 		86.8243 		5.707
v 422.2597 		86.9077 		5.707
v 421.9974 		87.4761 		5.7068
v 421.7605 		88.049 		5.7066
v 421.5933 		88.5132 		5.7065
v 421.5628 		88.5989 		5.7064
v 422.2011 		88.7952 		5.7069
v 420.9509 		86.9054 		5.706
v 421.531 		89.1856 		6.9948
v 421.2595 		89.4065 		6.9948
v 421.8278 		88.8589 		6.9948
v 420.0699 		88.8566 		6.994
v 421.0961 		89.0936 		6.9948
v 421.0271 		89.5101 		6.9948
v 421.8172 		89.22 		5.7066
v 421.8594 		89.1856 		5.7067
v 421.586 		89.4065 		5.7065
v 421.9056 		89.1348 		5.7067
v 422.1542 		88.8589 		5.7069
v 421.4225 		89.0936 		5.7063
v 421.3897 		89.4939 		5.7063
v 421.3535 		89.5101 		5.7063
v 420.1114 		90.0745 		5.7053
v 420.2536 		89.4871 		5.7054
v 420.3963 		88.8566 		5.7055
v 420.1455 		90.0784 		5.7053
v 419.1519 		86.6661 		6.9931
v 418.9471 		87.1631 		6.9931
v 418.7538 		87.6256 		6.9931
v 418.572 		88.0559 		6.9923
v 418.4087 		88.454 		6.9923
v 417.7598 		87.4669 		6.9923
v 417.9554 		86.9169 		6.9923
v 417.9251 		100.5614 		5.7036
v 417.7644 		99.694 		6.9923
v 417.9509 		100.4264 		5.7036
v 418.0908 		99.694 		5.7037
v 417.9209 		98.7759 		6.9923
v 418.2472 		98.7759 		5.7038
v 418.2691 		98.6271 		5.7039
v 419.8721 		99.2223 		6.994
v 419.4418 		100.2393 		6.9931
v 419.8351 		100.0811 		5.7051
v 419.7682 		100.2393 		5.705
v 417.5987 		100.5614 		6.9914
# 1381 vertices

g group_0_14541540

usemtl color_14541540
s 0

f 3 	14 	4
f 4 	15 	6
f 19 	5 	6
f 5 	18 	7
f 5 	7 	9
f 5 	9 	6
f 1214 	8 	7
f 8 	9 	7
f 2 	9 	8
f 22 	12 	21
f 11 	61 	25
f 3 	11 	10
f 1 	3 	12
f 12 	3 	10
f 11 	20 	10
f 10 	21 	12
f 1213 	1211 	1
f 16 	4 	14
f 4 	16 	15
f 5 	17 	18
f 5 	19 	17
f 3 	13 	14
f 13 	22 	14
f 14 	1223 	16
f 19 	6 	15
f 16 	1222 	15
f 1214 	7 	18
f 15 	1222 	19
f 19 	1222 	17
f 21 	10 	20
f 11 	25 	20
f 13 	1211 	22
f 23 	22 	1211
f 44 	40 	25
f 43 	42 	28
f 49 	48 	26
f 26 	1100 	59
f 21 	20 	14
f 21 	14 	22
f 50 	49 	26
f 59 	50 	26
f 33 	30 	44
f 33 	44 	45
f 32 	33 	46
f 29 	4 	6
f 6 	9 	29
f 3 	4 	30
f 61 	30 	33
f 30 	4 	29
f 30 	61 	11
f 3 	30 	11
f 31 	47 	34
f 36 	59 	60
f 36 	39 	347
f 52 	51 	38
f 39 	36 	60
f 60 	53 	39
f 493 	37 	492
f 492 	37 	481
f 462 	463 	38
f 463 	465 	38
f 465 	468 	38
f 468 	473 	38
f 38 	37 	493
f 37 	38 	51
f 38 	53 	52
f 51 	54 	37
f 30 	29 	41
f 1223 	41 	29
f 30 	41 	40
f 30 	40 	44
f 45 	46 	33
f 31 	43 	47
f 34 	47 	48
f 48 	49 	34
f 50 	59 	36
f 49 	50 	35
f 38 	39 	53
f 32 	42 	43
f 32 	43 	31
f 41 	1223 	25
f 20 	25 	1223
f 25 	24 	44
f 40 	41 	25
f 46 	42 	32
f 35 	34 	49
f 36 	35 	50
f 17 	1222 	18
f 47 	43 	28
f 28 	27 	47
f 42 	46 	28
f 24 	28 	46
f 46 	45 	24
f 45 	44 	24
f 48 	47 	26
f 27 	26 	47
f 56 	1103 	57
f 55 	1103 	56
f 54 	1103 	55
f 60 	59 	1100
f 53 	60 	1100
f 61 	24 	25
f 67 	63 	62
f 61 	32 	64
f 33 	32 	61
f 63 	67 	68
f 62 	66 	67
f 347 	26 	64
f 27 	28 	64
f 61 	64 	28
f 61 	28 	24
f 65 	63 	69
f 68 	69 	63
f 1380 	1372 	66
f 71 	72 	73
f 73 	76 	71
f 82 	83 	81
f 83 	84 	81
f 81 	84 	78
f 85 	78 	84
f 71 	119 	72
f 120 	72 	119
f 120 	73 	72
f 122 	76 	73
f 122 	123 	76
f 94 	76 	123
f 96 	94 	128
f 71 	76 	86
f 94 	86 	76
f 92 	91 	90
f 92 	90 	88
f 92 	88 	87
f 89 	97 	87
f 98 	97 	89
f 95 	87 	97
f 93 	87 	95
f 92 	87 	93
f 113 	112 	988
f 94 	140 	86
f 1004 	172 	1005
f 144 	922 	161
f 91 	92 	104
f 108 	104 	101
f 140 	94 	96
f 990 	988 	108
f 100 	990 	108
f 101 	100 	108
f 101 	104 	92
f 110 	109 	988
f 109 	108 	988
f 115 	114 	988
f 105 	113 	988
f 112 	110 	988
f 114 	106 	988
f 106 	105 	988
f 149 	99 	102
f 117 	86 	116
f 140 	162 	86
f 118 	119 	71
f 71 	86 	117
f 71 	117 	118
f 73 	120 	121
f 125 	124 	170
f 116 	162 	124
f 122 	121 	119
f 121 	120 	119
f 116 	123 	117
f 73 	121 	122
f 128 	94 	123
f 123 	122 	118
f 99 	96 	125
f 124 	125 	96
f 119 	118 	122
f 129 	139 	327
f 96 	128 	124
f 124 	128 	116
f 128 	123 	116
f 118 	117 	123
f 326 	325 	126
f 126 	129 	327
f 99 	125 	132
f 99 	132 	102
f 131 	127 	325
f 107 	102 	135
f 132 	135 	102
f 162 	170 	124
f 111 	107 	137
f 135 	137 	107
f 325 	199 	131
f 132 	125 	328
f 116 	86 	162
f 136 	133 	198
f 327 	326 	126
f 139 	138 	327
f 351 	360 	111
f 168 	149 	165
f 146 	165 	149
f 146 	102 	107
f 149 	102 	146
f 170 	149 	168
f 142 	1204 	153
f 141 	134 	142
f 162 	140 	170
f 149 	170 	140
f 140 	96 	99
f 140 	99 	149
f 138 	160 	327
f 160 	159 	327
f 159 	157 	327
f 157 	158 	327
f 158 	156 	327
f 156 	155 	327
f 155 	154 	327
f 151 	327 	154
f 151 	148 	327
f 150 	327 	148
f 150 	147 	327
f 145 	327 	147
f 144 	327 	145
f 161 	172 	327
f 144 	161 	327
f 143 	163 	164
f 143 	164 	146
f 165 	146 	164
f 1001 	166 	167
f 169 	1002 	167
f 1004 	171 	172
f 161 	1005 	172
f 328 	340 	132
f 168 	165 	125
f 328 	125 	164
f 165 	164 	125
f 163 	328 	164
f 342 	340 	173
f 172 	171 	327
f 171 	169 	327
f 169 	167 	327
f 166 	327 	167
f 178 	329 	181
f 181 	331 	335
f 335 	186 	181
f 186 	163 	143
f 690 	177 	788
f 187 	198 	184
f 199 	184 	198
f 582 	190 	141
f 582 	583 	190
f 600 	601 	193
f 177 	188 	787
f 203 	787 	188
f 580 	579 	142
f 141 	142 	579
f 152 	1205 	590
f 590 	592 	152
f 176 	201 	175
f 191 	190 	583
f 583 	584 	191
f 192 	191 	584
f 609 	196 	608
f 584 	600 	192
f 193 	192 	600
f 180 	179 	602
f 180 	602 	182
f 603 	182 	602
f 182 	603 	183
f 605 	183 	603
f 185 	183 	604
f 612 	613 	196
f 613 	615 	196
f 185 	607 	176
f 346 	348 	196
f 196 	352 	184
f 616 	196 	615
f 196 	616 	608
f 337 	194 	195
f 195 	196 	327
f 456 	952 	188
f 142 	153 	580
f 201 	202 	175
f 184 	325 	196
f 196 	326 	327
f 604 	183 	605
f 187 	200 	197
f 197 	198 	187
f 185 	604 	606
f 201 	176 	607
f 202 	189 	175
f 205 	189 	204
f 189 	202 	204
f 77 	75 	752
f 767 	752 	74
f 75 	74 	752
f 761 	767 	74
f 758 	761 	74
f 1364 	1363 	210
f 210 	212 	1364
f 213 	1365 	215
f 1365 	1364 	215
f 339 	336 	212
f 436 	339 	212
f 212 	210 	436
f 210 	209 	436
f 208 	438 	209
f 216 	639 	217
f 214 	639 	216
f 224 	639 	214
f 221 	639 	224
f 215 	212 	336
f 218 	1366 	213
f 750 	749 	220
f 219 	750 	220
f 207 	750 	219
f 226 	218 	330
f 251 	236 	250
f 236 	251 	237
f 244 	245 	237
f 243 	889 	242
f 891 	239 	890
f 772 	773 	229
f 230 	229 	773
f 241 	887 	238
f 458 	230 	450
f 246 	231 	232
f 231 	253 	233
f 234 	233 	256
f 254 	256 	233
f 234 	256 	257
f 235 	476 	250
f 476 	235 	475
f 235 	250 	236
f 244 	237 	251
f 276 	303 	242
f 245 	246 	232
f 232 	237 	245
f 250 	476 	245
f 244 	250 	245
f 251 	250 	244
f 254 	233 	253
f 231 	246 	253
f 476 	475 	246
f 305 	306 	255
f 303 	305 	243
f 246 	245 	476
f 475 	471 	246
f 253 	246 	471
f 771 	772 	229
f 243 	242 	303
f 279 	262 	261
f 293 	272 	292
f 271 	292 	272
f 261 	273 	277
f 271 	530 	270
f 324 	529 	269
f 291 	270 	290
f 269 	290 	270
f 292 	271 	291
f 271 	270 	291
f 272 	293 	295
f 277 	273 	296
f 239 	268 	266
f 273 	272 	295
f 273 	295 	296
f 261 	278 	279
f 275 	276 	242
f 266 	265 	239
f 283 	267 	281
f 263 	281 	267
f 239 	274 	275
f 267 	283 	225
f 275 	242 	239
f 239 	265 	274
f 261 	277 	278
f 255 	243 	305
f 279 	280 	262
f 282 	281 	263
f 263 	262 	280
f 263 	280 	282
f 282 	527 	281
f 286 	288 	285
f 287 	288 	286
f 264 	298 	288
f 259 	294 	264
f 285 	288 	284
f 298 	264 	294
f 283 	527 	225
f 281 	527 	283
f 280 	527 	282
f 225 	527 	227
f 279 	528 	280
f 278 	528 	279
f 277 	528 	278
f 471 	467 	253
f 260 	252 	307
f 252 	248 	307
f 260 	307 	259
f 296 	529 	277
f 295 	529 	296
f 529 	528 	277
f 293 	290 	295
f 292 	290 	293
f 291 	290 	292
f 529 	295 	290
f 299 	288 	298
f 284 	288 	299
f 936 	937 	294
f 937 	938 	298
f 929 	930 	276
f 313 	304 	312
f 259 	307 	294
f 249 	255 	306
f 247 	249 	306
f 306 	307 	247
f 248 	247 	307
f 297 	227 	308
f 297 	308 	300
f 300 	309 	310
f 242 	890 	239
f 311 	301 	310
f 300 	310 	301
f 891 	240 	239
f 301 	311 	302
f 240 	886 	241
f 302 	312 	304
f 890 	242 	889
f 309 	300 	308
f 308 	527 	309
f 312 	302 	311
f 897 	249 	894
f 310 	523 	311
f 309 	527 	310
f 227 	527 	308
f 311 	523 	312
f 312 	522 	313
f 252 	899 	248
f 313 	315 	304
f 314 	304 	315
f 314 	318 	317
f 899 	252 	906
f 316 	317 	318
f 315 	318 	314
f 316 	319 	317
f 320 	317 	319
f 320 	319 	321
f 945 	320 	944
f 887 	241 	886
f 892 	889 	243
f 319 	558 	321
f 260 	905 	252
f 269 	270 	530
f 892 	243 	893
f 326 	196 	325
f 904 	260 	259
f 325 	184 	199
f 265 	266 	908
f 103 	908 	266
f 173 	340 	174
f 328 	174 	340
f 127 	126 	325
f 133 	131 	198
f 198 	197 	136
f 174 	328 	178
f 329 	178 	328
f 331 	181 	329
f 332 	333 	195
f 195 	333 	337
f 186 	338 	163
f 186 	335 	338
f 195 	327 	332
f 170 	168 	125
f 329 	328 	331
f 359 	351 	340
f 338 	335 	328
f 338 	328 	163
f 331 	328 	335
f 327 	661 	332
f 332 	1292 	333
f 213 	215 	334
f 218 	213 	334
f 330 	218 	334
f 223 	222 	228
f 228 	226 	223
f 330 	223 	226
f 342 	417 	340
f 323 	324 	530
f 687 	686 	530
f 324 	269 	530
f 173 	343 	342
f 68 	67 	70
f 70 	1133 	68
f 68 	1133 	69
f 341 	567 	345
f 111 	137 	351
f 135 	340 	137
f 38 	347 	39
f 196 	348 	352
f 137 	340 	351
f 354 	353 	359
f 353 	351 	359
f 352 	357 	184
f 357 	344 	184
f 350 	1037 	349
f 345 	349 	1038
f 351 	353 	360
f 362 	360 	353
f 64 	35 	36
f 64 	32 	31
f 353 	354 	362
f 368 	362 	354
f 380 	111 	360
f 368 	354 	356
f 111 	380 	107
f 358 	371 	354
f 356 	354 	371
f 359 	358 	354
f 135 	132 	340
f 368 	356 	373
f 794 	799 	369
f 833 	369 	372
f 431 	373 	356
f 799 	374 	372
f 1121 	403 	404
f 371 	370 	356
f 358 	380 	378
f 429 	378 	368
f 368 	378 	380
f 362 	380 	360
f 382 	391 	703
f 362 	368 	380
f 791 	789 	383
f 788 	790 	385
f 380 	173 	174
f 380 	384 	343
f 173 	380 	343
f 391 	390 	703
f 146 	107 	380
f 181 	186 	380
f 178 	181 	380
f 380 	143 	146
f 178 	380 	174
f 723 	703 	389
f 389 	388 	723
f 387 	723 	388
f 420 	384 	418
f 420 	421 	394
f 420 	394 	384
f 397 	403 	398
f 396 	404 	397
f 1121 	1086 	403
f 396 	408 	407
f 407 	406 	396
f 396 	406 	405
f 396 	405 	404
f 403 	397 	404
f 402 	398 	403
f 401 	392 	402
f 400 	392 	401
f 392 	399 	402
f 399 	398 	402
f 411 	410 	441
f 411 	412 	413
f 441 	412 	411
f 442 	412 	441
f 445 	416 	415
f 343 	384 	394
f 143 	380 	186
f 419 	414 	415
f 358 	378 	371
f 359 	380 	358
f 417 	418 	380
f 418 	384 	380
f 417 	380 	359
f 418 	417 	342
f 359 	340 	417
f 421 	422 	394
f 420 	418 	342
f 394 	422 	423
f 422 	421 	342
f 421 	420 	342
f 422 	424 	423
f 425 	426 	427
f 424 	425 	423
f 427 	423 	425
f 1363 	409 	410
f 419 	415 	411
f 342 	484 	422
f 411 	430 	419
f 428 	370 	429
f 371 	429 	370
f 411 	416 	410
f 429 	371 	378
f 429 	373 	428
f 368 	373 	429
f 411 	415 	416
f 430 	411 	413
f 428 	373 	443
f 430 	448 	419
f 449 	453 	419
f 413 	412 	430
f 423 	427 	482
f 482 	427 	487
f 425 	424 	484
f 424 	422 	484
f 444 	443 	432
f 449 	419 	448
f 440 	439 	431
f 356 	370 	431
f 412 	442 	430
f 409 	339 	436
f 439 	452 	432
f 438 	437 	410
f 451 	450 	433
f 436 	438 	409
f 410 	409 	438
f 410 	437 	441
f 443 	373 	431
f 431 	432 	443
f 416 	445 	446
f 435 	454 	432
f 444 	432 	454
f 415 	447 	445
f 208 	416 	446
f 441 	437 	446
f 445 	441 	446
f 432 	431 	439
f 440 	431 	370
f 435 	432 	452
f 452 	451 	435
f 430 	442 	448
f 434 	455 	433
f 454 	433 	455
f 454 	435 	433
f 336 	334 	215
f 447 	725 	449
f 447 	442 	445
f 448 	447 	449
f 448 	442 	447
f 441 	445 	442
f 208 	446 	437
f 438 	208 	437
f 436 	209 	438
f 455 	434 	637
f 456 	746 	1086
f 456 	1086 	1088
f 444 	454 	460
f 434 	433 	450
f 433 	435 	451
f 501 	502 	456
f 452 	439 	460
f 500 	501 	456
f 428 	457 	440
f 439 	440 	457
f 34 	35 	64
f 443 	457 	428
f 31 	34 	64
f 742 	743 	456
f 370 	428 	440
f 64 	36 	347
f 457 	443 	444
f 773 	450 	230
f 452 	460 	451
f 450 	451 	458
f 460 	458 	451
f 457 	460 	439
f 458 	454 	455
f 458 	460 	454
f 444 	460 	457
f 467 	471 	466
f 472 	456 	502
f 495 	496 	472
f 471 	475 	474
f 471 	474 	466
f 347 	473 	1098
f 470 	472 	496
f 475 	235 	474
f 257 	256 	539
f 627 	289 	619
f 536 	535 	257
f 347 	38 	473
f 37 	55 	481
f 478 	477 	482
f 484 	482 	477
f 479 	480 	496
f 480 	486 	496
f 486 	469 	496
f 469 	470 	496
f 485 	479 	496
f 426 	489 	427
f 487 	427 	489
f 484 	343 	482
f 484 	342 	343
f 494 	493 	1108
f 497 	498 	496
f 498 	499 	496
f 499 	483 	496
f 483 	485 	496
f 1108 	1085 	494
f 343 	423 	482
f 491 	488 	490
f 492 	488 	491
f 343 	394 	423
f 494 	38 	493
f 478 	482 	487
f 495 	472 	502
f 38 	494 	459
f 38 	459 	461
f 477 	503 	489
f 426 	484 	489
f 426 	425 	484
f 477 	489 	484
f 461 	462 	38
f 504 	505 	503
f 487 	503 	505
f 487 	489 	503
f 407 	408 	500
f 505 	478 	487
f 506 	507 	508
f 506 	508 	505
f 505 	504 	506
f 492 	481 	488
f 503 	477 	504
f 507 	506 	598
f 506 	504 	598
f 477 	598 	504
f 512 	537 	513
f 511 	1159 	1160
f 511 	1158 	1159
f 513 	540 	514
f 1136 	1137 	511
f 511 	1137 	510
f 514 	464 	466
f 515 	511 	1111
f 1101 	1111 	511
f 507 	544 	508
f 524 	527 	322
f 517 	531 	518
f 324 	323 	525
f 324 	525 	528
f 529 	324 	528
f 290 	269 	529
f 518 	532 	519
f 520 	313 	522
f 519 	533 	521
f 523 	524 	322
f 322 	686 	523
f 525 	323 	527
f 323 	322 	527
f 524 	310 	527
f 528 	525 	280
f 527 	280 	525
f 523 	310 	524
f 522 	312 	523
f 701 	313 	520
f 513 	514 	517
f 235 	517 	474
f 232 	231 	517
f 237 	232 	517
f 236 	237 	517
f 235 	236 	517
f 466 	474 	517
f 514 	466 	517
f 526 	512 	519
f 526 	519 	521
f 519 	512 	518
f 513 	517 	518
f 513 	518 	512
f 517 	622 	531
f 518 	531 	532
f 519 	532 	533
f 534 	521 	533
f 314 	317 	530
f 304 	314 	530
f 534 	535 	521
f 302 	304 	530
f 535 	536 	526
f 535 	526 	521
f 538 	537 	512
f 553 	554 	530
f 538 	512 	536
f 526 	536 	512
f 271 	272 	530
f 539 	513 	537
f 300 	301 	530
f 301 	302 	530
f 539 	540 	513
f 530 	263 	267
f 514 	541 	464
f 541 	514 	540
f 530 	267 	786
f 467 	466 	464
f 530 	262 	263
f 530 	786 	297
f 538 	536 	257
f 535 	534 	257
f 621 	619 	289
f 533 	532 	257
f 534 	533 	257
f 619 	618 	627
f 531 	622 	257
f 289 	257 	622
f 622 	620 	289
f 532 	531 	257
f 620 	621 	289
f 300 	530 	297
f 530 	273 	261
f 543 	508 	544
f 530 	261 	262
f 272 	273 	530
f 598 	596 	507
f 543 	544 	545
f 688 	687 	530
f 544 	507 	596
f 546 	543 	545
f 546 	545 	547
f 544 	631 	545
f 567 	341 	566
f 550 	549 	556
f 550 	320 	549
f 376 	1044 	375
f 558 	557 	550
f 530 	317 	550
f 345 	569 	349
f 570 	571 	350
f 317 	320 	550
f 349 	570 	350
f 571 	1359 	350
f 1359 	363 	350
f 573 	365 	364
f 573 	574 	365
f 366 	365 	574
f 366 	574 	575
f 576 	367 	575
f 366 	575 	367
f 369 	367 	794
f 576 	794 	367
f 372 	369 	799
f 801 	375 	800
f 549 	555 	556
f 804 	803 	376
f 550 	556 	558
f 805 	377 	803
f 530 	557 	553
f 377 	806 	379
f 530 	550 	557
f 379 	564 	566
f 551 	548 	559
f 551 	560 	552
f 561 	552 	560
f 313 	553 	315
f 701 	699 	313
f 345 	568 	569
f 568 	345 	567
f 570 	349 	569
f 548 	530 	554
f 313 	700 	553
f 318 	315 	553
f 554 	559 	548
f 697 	719 	554
f 553 	697 	554
f 555 	321 	556
f 558 	316 	557
f 557 	316 	553
f 556 	321 	558
f 800 	374 	799
f 551 	559 	560
f 374 	800 	375
f 375 	802 	376
f 719 	718 	559
f 559 	554 	719
f 376 	803 	377
f 805 	806 	377
f 722 	721 	560
f 561 	560 	720
f 564 	379 	806
f 379 	566 	341
f 619 	565 	563
f 565 	620 	517
f 622 	517 	620
f 234 	257 	625
f 1056 	1055 	568
f 568 	567 	1056
f 567 	566 	1056
f 566 	564 	1056
f 805 	1052 	806
f 364 	1367 	572
f 228 	222 	572
f 233 	234 	517
f 572 	573 	364
f 573 	572 	222
f 231 	233 	517
f 573 	222 	840
f 516 	515 	1111
f 653 	352 	348
f 607 	606 	1065
f 201 	607 	1065
f 515 	1138 	1151
f 1065 	1064 	201
f 578 	196 	195
f 141 	579 	581
f 516 	1114 	577
f 581 	582 	141
f 993 	195 	194
f 196 	578 	587
f 577 	1117 	588
f 153 	152 	592
f 592 	593 	153
f 153 	593 	594
f 153 	594 	580
f 546 	547 	542
f 584 	583 	1067
f 600 	584 	1067
f 583 	582 	1067
f 582 	581 	1067
f 581 	579 	1067
f 1068 	1067 	579
f 585 	1068 	579
f 585 	579 	580
f 585 	580 	594
f 585 	594 	593
f 592 	585 	593
f 590 	589 	592
f 589 	585 	592
f 586 	585 	589
f 631 	596 	597
f 1196 	1198 	577
f 196 	355 	346
f 577 	588 	1196
f 577 	1198 	516
f 1193 	1196 	588
f 1182 	1192 	588
f 179 	193 	601
f 179 	601 	602
f 607 	185 	606
f 660 	662 	578
f 662 	664 	578
f 845 	842 	1061
f 1066 	1065 	606
f 606 	604 	1066
f 604 	605 	1066
f 1067 	1066 	605
f 605 	603 	1067
f 603 	602 	1067
f 601 	1067 	602
f 600 	1067 	601
f 587 	611 	196
f 610 	1148 	1150
f 611 	612 	196
f 975 	977 	509
f 517 	234 	565
f 617 	196 	609
f 565 	234 	563
f 563 	234 	648
f 617 	355 	196
f 515 	1139 	1138
f 621 	620 	565
f 565 	619 	621
f 651 	355 	682
f 537 	538 	257
f 289 	625 	257
f 613 	612 	667
f 1085 	1091 	459
f 461 	459 	1091
f 628 	627 	618
f 618 	624 	628
f 539 	537 	257
f 540 	539 	256
f 541 	540 	256
f 632 	628 	624
f 623 	632 	624
f 598 	477 	478
f 667 	668 	613
f 596 	598 	597
f 478 	597 	598
f 630 	546 	633
f 626 	625 	627
f 626 	627 	628
f 543 	546 	630
f 508 	543 	597
f 674 	608 	616
f 625 	289 	627
f 597 	505 	508
f 597 	543 	630
f 478 	505 	597
f 678 	609 	608
f 254 	253 	467
f 635 	542 	547
f 545 	631 	547
f 631 	544 	596
f 635 	547 	631
f 629 	626 	632
f 597 	630 	631
f 628 	632 	626
f 650 	652 	346
f 346 	355 	649
f 651 	649 	355
f 348 	652 	653
f 352 	654 	357
f 634 	633 	816
f 256 	254 	467
f 344 	357 	657
f 655 	657 	357
f 634 	635 	633
f 630 	633 	635
f 635 	631 	630
f 675 	673 	816
f 587 	578 	664
f 434 	450 	637
f 629 	632 	636
f 664 	665 	587
f 450 	773 	637
f 648 	234 	625
f 615 	668 	669
f 637 	773 	638
f 615 	613 	668
f 80 	79 	752
f 221 	220 	639
f 638 	773 	639
f 648 	625 	663
f 677 	609 	678
f 640 	641 	779
f 608 	676 	678
f 679 	617 	677
f 346 	649 	650
f 348 	346 	652
f 464 	541 	256
f 467 	464 	256
f 643 	761 	642
f 654 	352 	653
f 655 	357 	654
f 656 	344 	657
f 764 	81 	78
f 78 	762 	764
f 641 	767 	643
f 761 	643 	767
f 611 	587 	665
f 665 	666 	611
f 612 	666 	667
f 777 	641 	643
f 644 	692 	793
f 616 	671 	674
f 753 	754 	85
f 646 	546 	542
f 609 	677 	617
f 633 	546 	646
f 679 	682 	617
f 617 	682 	355
f 1091 	1093 	461
f 1092 	1094 	462
f 1095 	463 	1094
f 648 	618 	563
f 651 	682 	327
f 619 	563 	618
f 650 	649 	327
f 649 	651 	327
f 465 	1096 	468
f 468 	1097 	473
f 347 	1098 	1099
f 644 	645 	626
f 27 	64 	26
f 657 	327 	656
f 626 	645 	659
f 626 	629 	644
f 657 	655 	327
f 658 	327 	166
f 656 	327 	658
f 653 	652 	327
f 652 	650 	327
f 37 	54 	55
f 55 	56 	481
f 659 	625 	626
f 488 	481 	56
f 663 	623 	648
f 491 	490 	1102
f 1102 	1103 	491
f 493 	492 	1106
f 1293 	332 	661
f 665 	664 	327
f 662 	327 	664
f 660 	327 	662
f 661 	327 	660
f 625 	659 	663
f 1106 	1108 	493
f 612 	611 	666
f 669 	672 	615
f 668 	327 	669
f 646 	542 	670
f 510 	1090 	1101
f 671 	616 	672
f 673 	646 	670
f 616 	615 	672
f 516 	1111 	1114
f 646 	673 	795
f 672 	327 	671
f 1117 	577 	1114
f 608 	674 	676
f 673 	670 	816
f 634 	816 	670
f 542 	635 	670
f 459 	494 	1085
f 680 	681 	645
f 678 	676 	327
f 644 	793 	683
f 674 	327 	676
f 677 	678 	327
f 462 	1093 	1092
f 645 	644 	680
f 683 	680 	644
f 462 	461 	1093
f 327 	666 	665
f 655 	654 	327
f 654 	653 	327
f 682 	679 	327
f 679 	677 	327
f 674 	671 	327
f 669 	327 	672
f 667 	327 	668
f 666 	327 	667
f 683 	632 	680
f 463 	462 	1094
f 634 	670 	635
f 463 	1095 	465
f 659 	645 	681
f 659 	681 	685
f 680 	632 	681
f 659 	685 	663
f 623 	663 	685
f 685 	632 	623
f 681 	632 	685
f 624 	648 	623
f 1098 	473 	1097
f 347 	1099 	1100
f 618 	648 	624
f 26 	347 	1100
f 488 	56 	57
f 57 	58 	488
f 490 	58 	1102
f 530 	548 	684
f 492 	1103 	1106
f 692 	644 	629
f 686 	322 	530
f 322 	323 	530
f 689 	530 	684
f 693 	694 	703
f 629 	636 	695
f 695 	692 	629
f 695 	696 	704
f 695 	730 	728
f 691 	692 	695
f 694 	702 	703
f 702 	694 	704
f 694 	695 	704
f 696 	695 	636
f 684 	697 	689
f 522 	686 	520
f 687 	520 	686
f 700 	689 	697
f 700 	698 	689
f 699 	701 	688
f 687 	701 	520
f 522 	523 	686
f 632 	792 	636
f 684 	719 	697
f 699 	688 	698
f 688 	689 	698
f 697 	553 	700
f 687 	688 	701
f 699 	698 	313
f 698 	700 	313
f 702 	704 	708
f 381 	382 	703
f 705 	381 	703
f 729 	707 	730
f 706 	705 	702
f 703 	702 	705
f 709 	708 	704
f 708 	707 	702
f 707 	706 	702
f 709 	696 	791
f 704 	696 	709
f 636 	791 	696
f 711 	791 	383
f 710 	709 	791
f 713 	718 	712
f 719 	684 	712
f 715 	720 	716
f 721 	722 	716
f 552 	561 	717
f 562 	717 	561
f 548 	712 	684
f 551 	713 	548
f 712 	548 	713
f 552 	717 	715
f 530 	689 	688
f 716 	552 	715
f 717 	714 	715
f 716 	713 	551
f 552 	716 	551
f 724 	414 	723
f 723 	414 	693
f 724 	725 	414
f 719 	712 	718
f 715 	714 	727
f 721 	716 	720
f 713 	722 	718
f 713 	716 	722
f 715 	727 	720
f 560 	559 	722
f 718 	722 	559
f 720 	560 	721
f 693 	703 	723
f 415 	414 	725
f 723 	387 	724
f 714 	726 	727
f 1338 	1337 	726
f 1344 	1338 	726
f 725 	447 	415
f 725 	724 	387
f 453 	449 	725
f 390 	389 	703
f 453 	725 	387
f 695 	728 	691
f 730 	695 	694
f 730 	694 	729
f 710 	711 	728
f 694 	733 	734
f 694 	693 	733
f 694 	734 	729
f 706 	729 	705
f 728 	730 	709
f 710 	728 	709
f 386 	735 	736
f 386 	393 	735
f 739 	740 	414
f 414 	419 	739
f 414 	740 	693
f 740 	741 	693
f 741 	733 	693
f 393 	737 	735
f 738 	737 	395
f 393 	395 	737
f 395 	396 	738
f 390 	741 	389
f 388 	389 	740
f 733 	741 	391
f 396 	397 	738
f 456 	188 	737
f 188 	735 	737
f 456 	744 	742
f 456 	743 	746
f 456 	738 	745
f 456 	737 	738
f 456 	745 	744
f 755 	753 	85
f 768 	769 	82
f 770 	84 	83
f 770 	755 	84
f 84 	755 	85
f 647 	642 	78
f 78 	85 	647
f 747 	643 	642
f 748 	643 	747
f 747 	642 	647
f 647 	85 	754
f 754 	756 	647
f 748 	747 	757
f 757 	758 	748
f 759 	760 	642
f 642 	761 	759
f 762 	78 	760
f 642 	760 	78
f 763 	765 	81
f 81 	765 	82
f 766 	82 	765
f 766 	768 	82
f 775 	749 	640
f 750 	640 	749
f 640 	751 	641
f 641 	752 	767
f 640 	750 	751
f 749 	639 	220
f 752 	641 	751
f 207 	206 	750
f 79 	77 	752
f 758 	757 	759
f 206 	80 	751
f 751 	750 	206
f 747 	647 	756
f 747 	756 	757
f 776 	748 	758
f 759 	756 	760
f 763 	81 	764
f 764 	768 	763
f 756 	754 	760
f 764 	762 	768
f 761 	758 	759
f 765 	763 	768
f 766 	765 	768
f 83 	82 	769
f 769 	770 	83
f 756 	759 	757
f 753 	755 	760
f 754 	753 	760
f 762 	760 	755
f 770 	762 	755
f 768 	762 	769
f 769 	762 	770
f 752 	751 	80
f 638 	774 	637
f 455 	637 	774
f 639 	775 	638
f 774 	638 	775
f 775 	639 	749
f 775 	258 	229
f 230 	774 	775
f 458 	455 	774
f 229 	230 	775
f 774 	230 	458
f 773 	772 	639
f 771 	211 	639
f 211 	217 	639
f 771 	639 	772
f 777 	643 	776
f 643 	748 	776
f 778 	641 	777
f 775 	640 	782
f 784 	785 	775
f 785 	258 	775
f 778 	779 	641
f 779 	206 	780
f 785 	211 	258
f 640 	779 	780
f 781 	640 	780
f 782 	640 	781
f 783 	784 	775
f 775 	782 	783
f 227 	786 	225
f 267 	225 	786
f 297 	786 	227
f 777 	776 	74
f 776 	758 	74
f 777 	74 	75
f 778 	777 	77
f 75 	77 	777
f 258 	211 	771
f 258 	771 	229
f 779 	79 	80
f 779 	778 	79
f 77 	79 	778
f 779 	80 	206
f 781 	780 	219
f 207 	219 	780
f 206 	207 	780
f 219 	220 	781
f 782 	781 	220
f 221 	782 	220
f 782 	224 	783
f 782 	221 	224
f 224 	214 	783
f 784 	783 	216
f 214 	216 	783
f 785 	784 	217
f 216 	217 	784
f 785 	217 	211
f 690 	731 	736
f 177 	690 	736
f 961 	962 	498
f 177 	736 	735
f 962 	963 	499
f 691 	728 	732
f 963 	485 	483
f 791 	692 	691
f 792 	793 	692
f 691 	732 	690
f 731 	690 	732
f 188 	177 	735
f 956 	470 	469
f 959 	456 	472
f 1089 	406 	500
f 406 	407 	500
f 791 	691 	789
f 789 	691 	690
f 976 	975 	194
f 690 	788 	789
f 987 	986 	599
f 591 	985 	599
f 177 	787 	790
f 986 	595 	599
f 948 	949 	495
f 961 	498 	497
f 499 	498 	962
f 483 	499 	963
f 790 	788 	177
f 787 	203 	393
f 386 	385 	790
f 790 	787 	386
f 965 	479 	485
f 692 	791 	792
f 951 	486 	968
f 793 	632 	683
f 792 	632 	793
f 791 	636 	792
f 951 	469 	486
f 948 	495 	954
f 711 	710 	791
f 385 	383 	789
f 789 	788 	385
f 393 	386 	787
f 470 	958 	472
f 633 	646 	825
f 840 	839 	574
f 574 	573 	840
f 1148 	610 	614
f 796 	614 	610
f 797 	614 	796
f 797 	796 	798
f 825 	646 	795
f 184 	823 	824
f 184 	824 	187
f 801 	802 	375
f 804 	376 	802
f 187 	826 	795
f 675 	795 	673
f 795 	200 	187
f 825 	816 	633
f 1052 	1054 	806
f 803 	1053 	805
f 841 	205 	1062
f 1064 	1063 	205
f 1063 	1062 	205
f 675 	200 	795
f 834 	840 	807
f 222 	807 	840
f 1234 	1233 	610
f 798 	1242 	809
f 798 	809 	797
f 807 	222 	808
f 223 	808 	222
f 797 	809 	811
f 810 	811 	809
f 200 	675 	817
f 811 	814 	813
f 223 	330 	808
f 812 	813 	814
f 810 	814 	811
f 812 	815 	813
f 826 	817 	825
f 365 	834 	807
f 816 	817 	675
f 817 	136 	200
f 197 	200 	136
f 199 	198 	131
f 575 	574 	839
f 849 	847 	821
f 810 	1254 	814
f 814 	1254 	812
f 845 	820 	842
f 829 	861 	830
f 822 	821 	847
f 863 	831 	862
f 795 	826 	825
f 827 	841 	842
f 827 	842 	820
f 824 	826 	187
f 960 	497 	496
f 136 	826 	824
f 849 	821 	845
f 820 	845 	821
f 833 	838 	832
f 136 	824 	133
f 832 	834 	366
f 366 	367 	832
f 832 	367 	833
f 822 	848 	833
f 838 	833 	848
f 408 	969 	501
f 833 	367 	369
f 954 	495 	502
f 819 	131 	823
f 365 	366 	834
f 591 	984 	985
f 372 	822 	833
f 822 	372 	821
f 987 	599 	985
f 823 	133 	824
f 595 	988 	990
f 509 	194 	975
f 835 	129 	818
f 997 	509 	973
f 841 	827 	205
f 189 	205 	827
f 203 	188 	952
f 1090 	510 	1087
f 65 	1087 	510
f 511 	510 	1101
f 839 	832 	838
f 839 	834 	832
f 839 	840 	834
f 839 	838 	576
f 576 	575 	839
f 794 	576 	838
f 831 	863 	843
f 202 	201 	1064
f 843 	869 	844
f 204 	202 	1064
f 842 	841 	1062
f 822 	847 	848
f 871 	846 	844
f 871 	872 	846
f 1062 	1061 	842
f 205 	204 	1064
f 849 	845 	1060
f 799 	794 	838
f 838 	848 	799
f 848 	847 	799
f 851 	850 	873
f 854 	853 	1010
f 873 	874 	851
f 856 	855 	1014
f 828 	860 	829
f 861 	829 	860
f 862 	830 	861
f 830 	862 	831
f 867 	843 	863
f 868 	844 	869
f 867 	869 	843
f 850 	872 	873
f 1018 	1033 	1017
f 857 	858 	1019
f 857 	1019 	1017
f 874 	873 	861
f 860 	874 	861
f 859 	875 	860
f 908 	909 	265
f 274 	265 	909
f 911 	274 	909
f 274 	926 	275
f 911 	926 	274
f 927 	275 	926
f 844 	868 	870
f 276 	275 	928
f 927 	928 	275
f 844 	870 	871
f 303 	276 	930
f 850 	846 	872
f 276 	928 	929
f 115 	268 	1318
f 266 	268 	103
f 115 	103 	268
f 470 	956 	958
f 305 	933 	306
f 959 	472 	958
f 456 	959 	952
f 933 	934 	306
f 307 	306 	934
f 934 	935 	307
f 497 	960 	961
f 298 	294 	937
f 284 	299 	939
f 938 	939 	299
f 485 	964 	965
f 939 	940 	284
f 964 	485 	963
f 941 	286 	285
f 286 	941 	287
f 1294 	1290 	888
f 874 	860 	875
f 873 	872 	861
f 862 	861 	872
f 872 	871 	862
f 871 	870 	862
f 863 	862 	870
f 868 	869 	870
f 863 	870 	869
f 867 	863 	869
f 240 	891 	886
f 238 	887 	888
f 894 	247 	896
f 248 	896 	247
f 247 	894 	249
f 859 	828 	877
f 877 	828 	876
f 249 	898 	255
f 255 	893 	243
f 844 	846 	880
f 264 	903 	259
f 880 	843 	844
f 828 	880 	876
f 900 	896 	248
f 851 	881 	880
f 248 	899 	900
f 893 	255 	898
f 906 	252 	905
f 831 	843 	880
f 830 	831 	880
f 829 	830 	880
f 828 	829 	880
f 260 	904 	905
f 874 	881 	851
f 874 	875 	881
f 930 	931 	303
f 299 	298 	938
f 287 	942 	288
f 943 	288 	942
f 903 	264 	943
f 884 	1197 	885
f 883 	884 	879
f 887 	886 	986
f 988 	986 	886
f 882 	883 	880
f 880 	881 	882
f 890 	988 	891
f 850 	851 	880
f 886 	891 	988
f 880 	846 	850
f 880 	883 	879
f 895 	901 	884
f 885 	917 	915
f 890 	889 	988
f 889 	892 	988
f 893 	988 	892
f 249 	897 	898
f 905 	988 	906
f 900 	899 	988
f 896 	900 	988
f 906 	988 	899
f 1169 	878 	1168
f 288 	943 	264
f 902 	884 	901
f 879 	884 	878
f 904 	259 	903
f 884 	914 	895
f 904 	988 	905
f 813 	815 	907
f 893 	898 	988
f 898 	897 	988
f 897 	894 	988
f 894 	896 	988
f 903 	988 	904
f 907 	1248 	813
f 1207 	895 	1206
f 915 	917 	913
f 925 	836 	835
f 914 	885 	915
f 878 	884 	902
f 914 	884 	885
f 912 	925 	916
f 921 	919 	916
f 922 	923 	916
f 923 	924 	916
f 924 	920 	916
f 920 	921 	916
f 919 	918 	916
f 913 	1219 	910
f 9 	2 	1219
f 882 	881 	875
f 819 	184 	818
f 184 	819 	823
f 883 	1189 	1190
f 835 	818 	184
f 884 	883 	1191
f 1190 	1191 	883
f 836 	925 	837
f 184 	344 	925
f 835 	184 	925
f 878 	1169 	879
f 1174 	880 	1172
f 879 	1172 	880
f 911 	988 	926
f 1174 	876 	880
f 1180 	877 	1176
f 877 	1180 	859
f 828 	859 	860
f 103 	115 	988
f 908 	103 	988
f 909 	908 	988
f 930 	929 	988
f 929 	928 	988
f 927 	988 	928
f 927 	926 	988
f 909 	988 	911
f 305 	303 	931
f 305 	932 	933
f 907 	815 	1212
f 932 	305 	931
f 907 	1213 	1
f 935 	936 	294
f 294 	307 	935
f 1202 	913 	1200
f 910 	1200 	913
f 913 	1202 	915
f 1203 	915 	1202
f 285 	284 	940
f 914 	1206 	895
f 940 	941 	285
f 287 	941 	942
f 914 	1209 	1206
f 1209 	914 	1210
f 915 	1210 	914
f 895 	1208 	901
f 1167 	1168 	902
f 932 	988 	933
f 934 	933 	988
f 935 	934 	988
f 931 	988 	932
f 930 	988 	931
f 936 	935 	988
f 903 	943 	988
f 943 	942 	988
f 942 	941 	988
f 941 	940 	988
f 940 	939 	988
f 939 	938 	988
f 938 	937 	988
f 936 	988 	937
f 1167 	902 	1166
f 901 	1166 	902
f 321 	944 	320
f 944 	946 	945
f 955 	945 	946
f 479 	966 	480
f 549 	320 	945
f 967 	968 	480
f 480 	968 	486
f 321 	555 	944
f 953 	469 	951
f 947 	970 	971
f 953 	956 	469
f 496 	495 	949
f 972 	950 	971
f 947 	971 	950
f 549 	950 	972
f 393 	203 	952
f 396 	395 	952
f 959 	396 	952
f 951 	960 	953
f 947 	955 	957
f 955 	947 	950
f 950 	945 	955
f 954 	959 	948
f 953 	949 	956
f 956 	949 	958
f 393 	952 	395
f 969 	959 	954
f 948 	959 	949
f 958 	949 	959
f 949 	960 	496
f 950 	549 	945
f 955 	946 	982
f 1323 	947 	957
f 966 	479 	965
f 957 	998 	1323
f 982 	983 	957
f 955 	982 	957
f 967 	480 	966
f 963 	962 	964
f 962 	961 	964
f 965 	964 	961
f 949 	953 	960
f 960 	951 	961
f 968 	961 	951
f 967 	961 	968
f 967 	966 	961
f 965 	961 	966
f 501 	500 	408
f 502 	501 	969
f 969 	954 	502
f 396 	959 	969
f 408 	396 	969
f 972 	555 	549
f 318 	553 	316
f 972 	944 	555
f 316 	558 	319
f 337 	976 	194
f 720 	727 	562
f 977 	975 	1291
f 976 	1291 	975
f 976 	337 	1291
f 333 	1292 	337
f 971 	946 	972
f 1105 	1104 	978
f 978 	1343 	1105
f 1343 	1355 	1105
f 970 	982 	971
f 982 	970 	983
f 946 	971 	982
f 944 	972 	946
f 595 	986 	988
f 985 	984 	1306
f 984 	981 	1306
f 987 	985 	1306
f 980 	1307 	981
f 1307 	1306 	981
f 194 	509 	992
f 989 	1109 	991
f 992 	509 	995
f 993 	194 	992
f 993 	578 	195
f 1107 	1110 	991
f 660 	578 	993
f 994 	991 	1110
f 509 	997 	995
f 1292 	1293 	992
f 993 	661 	660
f 1116 	1104 	998
f 912 	837 	925
f 916 	925 	1001
f 916 	1001 	1002
f 916 	1002 	1003
f 916 	1003 	1004
f 916 	1004 	1005
f 916 	1005 	922
f 818 	126 	127
f 127 	819 	818
f 133 	823 	131
f 155 	919 	154
f 837 	138 	836
f 159 	160 	912
f 837 	912 	160
f 836 	139 	835
f 921 	154 	919
f 919 	155 	918
f 156 	918 	155
f 158 	157 	916
f 916 	918 	156
f 916 	156 	158
f 916 	157 	912
f 159 	912 	157
f 922 	144 	923
f 145 	923 	144
f 923 	145 	924
f 924 	145 	147
f 148 	921 	920
f 344 	656 	658
f 925 	344 	658
f 658 	166 	925
f 166 	1001 	925
f 1001 	167 	1002
f 1002 	169 	1003
f 171 	1003 	169
f 1003 	171 	1004
f 1005 	161 	922
f 126 	818 	129
f 819 	127 	131
f 826 	136 	817
f 816 	825 	817
f 835 	139 	129
f 139 	836 	138
f 837 	160 	138
f 150 	148 	920
f 150 	920 	147
f 924 	147 	920
f 921 	148 	151
f 154 	921 	151
f 855 	1013 	1014
f 865 	1020 	1021
f 865 	1021 	864
f 852 	1157 	1007
f 1008 	1009 	852
f 852 	1007 	1008
f 853 	1009 	1010
f 1011 	1012 	854
f 854 	1010 	1011
f 1022 	1023 	866
f 852 	996 	1157
f 1021 	1016 	864
f 853 	852 	1009
f 866 	854 	1012
f 1010 	1009 	1358
f 1009 	1008 	1358
f 1357 	1358 	1008
f 1353 	1357 	1008
f 1007 	1353 	1008
f 856 	1014 	1015
f 1014 	1013 	610
f 858 	1016 	1019
f 1051 	1050 	1019
f 1012 	1022 	866
f 865 	866 	1023
f 1023 	1020 	865
f 1023 	1022 	1358
f 1022 	1012 	1358
f 1012 	1011 	1358
f 1011 	1010 	1358
f 858 	864 	1016
f 1024 	1048 	1027
f 1017 	1019 	1050
f 1051 	1019 	1016
f 1051 	1016 	1021
f 1033 	1018 	1024
f 1018 	1048 	1024
f 1025 	1027 	1059
f 1059 	1058 	1025
f 1028 	1069 	1032
f 855 	1029 	1013
f 855 	1028 	1029
f 1030 	1029 	1028
f 1028 	1032 	1030
f 1032 	1031 	1236
f 610 	1150 	1014
f 1013 	1029 	610
f 1030 	1235 	1029
f 858 	857 	1037
f 857 	1033 	1036
f 1037 	363 	864
f 864 	858 	1037
f 857 	1017 	1033
f 1033 	1040 	1035
f 1035 	1036 	1033
f 1037 	857 	1036
f 1037 	1036 	1050
f 1049 	1050 	1036
f 1037 	350 	363
f 1038 	349 	1037
f 1038 	1055 	1056
f 1056 	1054 	1038
f 1034 	1038 	1054
f 379 	341 	1038
f 341 	345 	1038
f 1038 	1034 	379
f 377 	1034 	376
f 1034 	1044 	376
f 1039 	1040 	1041
f 1035 	1040 	1039
f 1025 	1041 	1040
f 1039 	1041 	1047
f 377 	379 	1034
f 375 	1044 	374
f 1054 	1052 	1034
f 820 	1043 	827
f 372 	374 	1045
f 1044 	1045 	374
f 1043 	1062 	1042
f 1042 	1062 	1063
f 1046 	1042 	1064
f 1045 	821 	372
f 1053 	1060 	1044
f 1043 	1061 	1062
f 1046 	1064 	1065
f 1046 	1065 	130
f 1065 	1066 	130
f 1057 	1058 	1039
f 1033 	1024 	1040
f 1025 	1040 	1027
f 1057 	1039 	1047
f 1053 	1044 	1052
f 1044 	1034 	1052
f 1064 	1042 	1063
f 1066 	1067 	130
f 1027 	1040 	1024
f 1058 	1059 	1039
f 1035 	1048 	1036
f 1038 	1037 	1055
f 1061 	1043 	1045
f 1059 	1048 	1035
f 1049 	1036 	1048
f 1050 	1051 	1037
f 1018 	1017 	1049
f 1049 	1048 	1018
f 1059 	1027 	1048
f 570 	569 	1055
f 1054 	1056 	564
f 1037 	1051 	1055
f 571 	570 	1051
f 1050 	1049 	1017
f 1052 	805 	1053
f 569 	568 	1055
f 1055 	1051 	570
f 1041 	1025 	1026
f 1035 	1039 	1059
f 1026 	1025 	1058
f 1026 	1058 	1057
f 1045 	1044 	1060
f 1060 	1061 	1045
f 803 	804 	1053
f 564 	806 	1054
f 802 	801 	1053
f 804 	802 	1053
f 801 	800 	1060
f 1060 	1053 	801
f 134 	130 	1067
f 1067 	1068 	134
f 1061 	1060 	845
f 847 	849 	1060
f 799 	847 	1060
f 800 	799 	1060
f 1032 	1069 	1031
f 1078 	1079 	1073
f 1080 	1070 	1072
f 1080 	1081 	1070
f 1047 	1041 	1073
f 1074 	1075 	1070
f 1071 	1074 	1070
f 1070 	1075 	1072
f 1076 	1073 	1072
f 1076 	1047 	1073
f 1075 	1076 	1072
f 1074 	1077 	1075
f 1082 	1076 	1075
f 1078 	1073 	1041
f 1069 	1264 	1031
f 1082 	1075 	1077
f 1076 	1082 	1083
f 1083 	1084 	1076
f 1074 	1261 	1077
f 1041 	1026 	1078
f 1026 	1057 	1078
f 1072 	1073 	1079
f 1264 	1263 	1239
f 1072 	1079 	1080
f 1084 	1083 	1078
f 1057 	1084 	1078
f 1071 	1070 	1081
f 1084 	1057 	1047
f 1047 	1076 	1084
f 1079 	1078 	1083
f 1083 	1082 	1079
f 1079 	1082 	1080
f 1081 	1080 	1077
f 1077 	1080 	1082
f 1261 	1081 	1077
f 1045 	1043 	820
f 820 	821 	1045
f 827 	1043 	1042
f 189 	827 	1042
f 1118 	588 	1117
f 400 	743 	742
f 400 	401 	743
f 599 	595 	1006
f 744 	745 	398
f 591 	599 	1006
f 456 	1088 	1089
f 1189 	883 	882
f 1194 	1195 	885
f 917 	885 	1195
f 885 	1197 	1194
f 902 	1168 	878
f 1172 	879 	1169
f 1306 	1307 	1000
f 980 	1006 	1307
f 69 	1131 	1087
f 876 	1176 	877
f 69 	1087 	65
f 1096 	465 	1095
f 468 	1096 	1097
f 915 	1203 	1210
f 1095 	54 	1096
f 1097 	1096 	54
f 1098 	1097 	54
f 54 	51 	1098
f 907 	1212 	1213
f 52 	53 	1100
f 1100 	1099 	52
f 51 	52 	1099
f 1099 	1098 	51
f 54 	1095 	1094
f 1094 	1092 	54
f 54 	1092 	1093
f 54 	1093 	1091
f 54 	1091 	1085
f 1087 	1131 	1090
f 1123 	1128 	1111
f 1131 	1164 	1090
f 490 	488 	58
f 989 	998 	1104
f 492 	491 	1103
f 989 	1104 	1105
f 1109 	1107 	991
f 1105 	1109 	989
f 1085 	1108 	54
f 1108 	1106 	54
f 1106 	1103 	54
f 1102 	57 	1103
f 58 	57 	1102
f 994 	1110 	1112
f 1112 	1113 	994
f 996 	994 	1113
f 1164 	1163 	1101
f 957 	1115 	998
f 1116 	998 	1115
f 957 	983 	1115
f 1120 	1123 	1111
f 1117 	1114 	1283
f 1110 	1352 	1112
f 1110 	1107 	1352
f 979 	978 	1104
f 1104 	1116 	979
f 1115 	979 	1116
f 983 	970 	1115
f 970 	979 	1115
f 1088 	1121 	1122
f 1126 	1127 	1124
f 1283 	1114 	1125
f 1088 	1086 	1121
f 1122 	1130 	1088
f 1088 	1130 	1089
f 1283 	1282 	1117
f 1114 	1111 	1128
f 1125 	1114 	1128
f 1122 	1121 	1130
f 1131 	1132 	1164
f 1131 	1133 	1134
f 1131 	1134 	1132
f 456 	1089 	500
f 392 	400 	742
f 1134 	1133 	1135
f 1135 	1133 	70
f 746 	743 	401
f 401 	402 	746
f 1086 	746 	402
f 402 	403 	1086
f 1130 	404 	405
f 1130 	405 	1089
f 404 	1130 	1121
f 1101 	1090 	1164
f 1131 	69 	1133
f 405 	406 	1089
f 745 	397 	398
f 1370 	1381 	70
f 744 	398 	399
f 1132 	1134 	65
f 399 	392 	744
f 742 	744 	392
f 510 	1132 	65
f 705 	734 	381
f 733 	382 	734
f 381 	734 	382
f 734 	705 	729
f 729 	706 	707
f 62 	63 	1135
f 65 	1134 	63
f 708 	730 	707
f 730 	708 	709
f 732 	728 	711
f 1135 	63 	1134
f 731 	732 	383
f 711 	383 	732
f 731 	383 	385
f 731 	385 	736
f 736 	385 	386
f 387 	739 	453
f 739 	419 	453
f 739 	387 	740
f 388 	740 	387
f 741 	740 	389
f 733 	391 	382
f 510 	1137 	1132
f 741 	390 	391
f 745 	738 	397
f 1141 	1125 	1128
f 1127 	1129 	1142
f 1127 	1142 	1124
f 1129 	1143 	1142
f 1128 	1123 	1141
f 1144 	1142 	1143
f 1144 	1143 	1145
f 1146 	1144 	1147
f 1145 	1147 	1144
f 1148 	1146 	1149
f 1148 	1149 	1150
f 1140 	1141 	1123
f 1147 	1149 	1146
f 1170 	1171 	1151
f 1171 	1173 	1152
f 1127 	1126 	1143
f 1145 	1143 	1147
f 1129 	1127 	1143
f 1147 	1143 	1126
f 1126 	1119 	1147
f 1119 	1322 	1147
f 1322 	1269 	1147
f 1269 	1268 	1147
f 1113 	1157 	996
f 856 	1015 	1153
f 1265 	1153 	1015
f 1265 	1154 	1153
f 511 	515 	1152
f 1154 	1267 	1155
f 511 	1152 	1158
f 1156 	1119 	1124
f 1126 	1124 	1119
f 1152 	515 	1151
f 1140 	515 	516
f 516 	1141 	1140
f 515 	1140 	1139
f 1351 	1353 	1112
f 1179 	1161 	1160
f 1179 	1136 	1161
f 1161 	511 	1160
f 1136 	511 	1161
f 1120 	1165 	1139
f 1123 	1120 	1140
f 1311 	1312 	1006
f 1165 	1170 	1138
f 1151 	1138 	1170
f 1152 	1151 	1171
f 1158 	1152 	1173
f 1173 	1175 	1158
f 1159 	1158 	1175
f 1175 	1177 	1159
f 1160 	1159 	1177
f 1177 	1179 	1160
f 1136 	1163 	1137
f 1310 	1311 	1006
f 1137 	1164 	1132
f 1136 	1179 	1163
f 1164 	1137 	1163
f 2 	1216 	1201
f 1111 	1101 	1163
f 1163 	1179 	1111
f 1179 	1177 	1111
f 1138 	1139 	1165
f 1120 	1111 	1165
f 1139 	1140 	1120
f 1178 	1176 	876
f 876 	1174 	1178
f 1175 	1111 	1177
f 1173 	1111 	1175
f 1171 	1111 	1173
f 1170 	1111 	1171
f 1165 	1111 	1170
f 1270 	1271 	1182
f 1180 	875 	859
f 1176 	1186 	1180
f 1178 	1186 	1176
f 1190 	1189 	1172
f 1169 	1190 	1172
f 1168 	1190 	1169
f 1167 	1191 	1168
f 875 	1186 	882
f 1186 	1189 	882
f 875 	1180 	1186
f 588 	1118 	1182
f 1178 	1174 	1189
f 1189 	1186 	1178
f 1197 	884 	1191
f 1184 	1185 	1183
f 1185 	1187 	1183
f 1181 	1183 	1187
f 1187 	1188 	1181
f 1182 	1181 	1188
f 1188 	1192 	1182
f 1190 	1168 	1191
f 1174 	1172 	1189
f 1196 	1193 	1282
f 1166 	1208 	1191
f 1167 	1166 	1191
f 1283 	1125 	1198
f 1141 	1198 	1125
f 1198 	1196 	1283
f 1208 	1207 	1191
f 1193 	588 	1192
f 1141 	516 	1198
f 1181 	1182 	1271
f 1197 	1191 	1207
f 1207 	1206 	1197
f 1271 	1272 	1181
f 1185 	1184 	1274
f 1200 	910 	1199
f 176 	130 	185
f 910 	1201 	1199
f 1201 	1221 	1199
f 189 	1042 	1046
f 130 	176 	1046
f 176 	175 	1046
f 1199 	1218 	1200
f 175 	189 	1046
f 1200 	1217 	1202
f 153 	1204 	152
f 1205 	152 	1204
f 1204 	142 	134
f 141 	190 	134
f 895 	1207 	1208
f 1166 	901 	1208
f 1068 	585 	1204
f 1205 	586 	589
f 1209 	1210 	1197
f 589 	590 	1205
f 134 	190 	191
f 134 	1068 	1204
f 1202 	1195 	1203
f 1205 	585 	586
f 1205 	1204 	585
f 1206 	1209 	1197
f 1194 	1197 	1210
f 1195 	1194 	1210
f 1203 	1195 	1210
f 134 	191 	130
f 192 	130 	191
f 193 	130 	192
f 1255 	1252 	815
f 1254 	1253 	812
f 179 	130 	193
f 180 	130 	179
f 182 	130 	180
f 130 	182 	183
f 1215 	8 	1214
f 185 	130 	183
f 1214 	1221 	1215
f 18 	1222 	1214
f 8 	1215 	2
f 1216 	2 	1215
f 1216 	1221 	1201
f 1215 	1221 	1216
f 1195 	1217 	917
f 1219 	917 	1218
f 1218 	917 	1217
f 1218 	1221 	1219
f 1220 	1219 	1221
f 1220 	1221 	1222
f 1222 	29 	1220
f 917 	1219 	913
f 1195 	1202 	1217
f 1223 	29 	1222
f 1218 	1199 	1221
f 1217 	1200 	1218
f 1222 	16 	1223
f 1221 	1214 	1222
f 29 	9 	1220
f 1220 	9 	1219
f 14 	20 	1223
f 1224 	1225 	614
f 1224 	614 	797
f 1148 	1225 	1226
f 1148 	614 	1225
f 1235 	1236 	1226
f 1153 	1154 	1226
f 1154 	1155 	1226
f 1226 	1155 	1156
f 1146 	1226 	1144
f 1226 	1227 	1028
f 856 	1153 	1226
f 855 	856 	1226
f 1226 	1028 	855
f 1069 	1028 	1227
f 1224 	1230 	1242
f 797 	1229 	1230
f 1229 	797 	811
f 1224 	797 	1230
f 1069 	1228 	1231
f 1069 	1227 	1228
f 1240 	1241 	1229
f 1241 	1242 	1230
f 1242 	1233 	1224
f 1235 	1226 	1225
f 1227 	1226 	1236
f 1228 	1227 	1237
f 1236 	1237 	1227
f 1228 	1238 	1231
f 1231 	1243 	1232
f 1231 	1239 	1243
f 1225 	1224 	1234
f 1233 	1234 	1224
f 796 	610 	1233
f 1242 	798 	1233
f 1234 	1235 	1225
f 1234 	610 	1235
f 610 	1029 	1235
f 1238 	1228 	1237
f 1030 	1032 	1236
f 1236 	1235 	1030
f 1239 	1231 	1238
f 1031 	1264 	1238
f 1237 	1236 	1031
f 1229 	1254 	1240
f 1230 	1229 	1241
f 810 	809 	1240
f 796 	1233 	798
f 1241 	809 	1242
f 1241 	1240 	809
f 1232 	1243 	1244
f 1238 	1237 	1031
f 1244 	1243 	1263
f 22 	23 	12
f 1248 	1246 	1252
f 1247 	1253 	1254
f 1247 	1248 	1253
f 1247 	813 	1248
f 1229 	1247 	1254
f 1247 	1229 	811
f 1 	12 	1246
f 1 	1246 	907
f 1246 	1248 	907
f 1247 	811 	813
f 1249 	1245 	1232
f 1232 	1244 	1249
f 1246 	12 	23
f 1252 	1246 	23
f 1248 	1252 	1255
f 1248 	1255 	1253
f 1213 	1212 	1252
f 1211 	1213 	23
f 1252 	23 	1213
f 815 	812 	1255
f 1253 	1255 	812
f 1240 	1254 	810
f 1212 	815 	1252
f 1249 	1260 	1250
f 1256 	1260 	1258
f 1258 	1261 	1074
f 1074 	1071 	1258
f 1257 	1262 	1256
f 1232 	1245 	1259
f 1232 	1259 	1231
f 1259 	1069 	1231
f 1263 	1264 	1259
f 1264 	1069 	1259
f 1259 	1071 	1263
f 1259 	1258 	1071
f 1259 	1256 	1258
f 1245 	1257 	1256
f 1245 	1256 	1259
f 1261 	1258 	1260
f 1249 	1263 	1260
f 1260 	1256 	1262
f 1239 	1238 	1264
f 1243 	1239 	1263
f 1249 	1244 	1263
f 1081 	1263 	1071
f 1262 	1250 	1260
f 1261 	1260 	1263
f 1081 	1261 	1263
f 1184 	1273 	1274
f 1185 	1274 	1275
f 1187 	1185 	1276
f 1275 	1276 	1185
f 1154 	1265 	1266
f 1277 	1278 	1187
f 1267 	1154 	1266
f 1276 	1277 	1187
f 1268 	1269 	1155
f 1155 	1267 	1268
f 1193 	1192 	1280
f 1193 	1281 	1282
f 1280 	1281 	1193
f 1196 	1282 	1283
f 1270 	1182 	1118
f 1183 	1181 	1272
f 1118 	1117 	1281
f 1184 	1183 	1273
f 1272 	1273 	1183
f 1188 	1187 	1278
f 1192 	1188 	1279
f 1278 	1279 	1188
f 1192 	1279 	1280
f 1281 	1280 	1118
f 1280 	1279 	1118
f 1282 	1281 	1117
f 1270 	1118 	1279
f 1279 	1278 	1270
f 1271 	1270 	1277
f 1277 	1276 	1271
f 1272 	1271 	1275
f 1277 	1270 	1278
f 1275 	1274 	1272
f 1275 	1271 	1276
f 1273 	1272 	1274
f 1006 	1162 	591
f 1305 	999 	1303
f 1000 	1307 	1006
f 1006 	980 	1162
f 984 	591 	981
f 1162 	981 	591
f 1295 	1286 	1294
f 1295 	1287 	1286
f 1285 	1299 	1288
f 999 	1289 	1303
f 1290 	1294 	1286
f 973 	974 	997
f 977 	973 	509
f 238 	888 	1290
f 1296 	1287 	1295
f 1297 	1284 	1296
f 1287 	1296 	1284
f 999 	1304 	1000
f 981 	1162 	980
f 995 	997 	974
f 993 	992 	1293
f 993 	1293 	661
f 1284 	1297 	1298
f 1299 	1285 	1298
f 1284 	1298 	1285
f 1301 	1288 	1299
f 992 	995 	1291
f 974 	1291 	995
f 1291 	1292 	992
f 1292 	332 	1293
f 1291 	337 	1292
f 973 	977 	1291
f 974 	973 	1291
f 1300 	1288 	1301
f 1302 	1289 	1300
f 1288 	1300 	1289
f 1301 	1299 	986
f 1289 	1302 	1303
f 1304 	999 	1305
f 1306 	1000 	1304
f 1306 	1304 	987
f 1304 	1305 	987
f 986 	987 	1305
f 1305 	1303 	986
f 1303 	1302 	986
f 1302 	1300 	986
f 1300 	1301 	986
f 1299 	1298 	986
f 1298 	1297 	986
f 1297 	1296 	986
f 1294 	888 	986
f 1295 	1294 	986
f 1296 	1295 	986
f 888 	887 	986
f 1309 	98 	1308
f 88 	90 	1310
f 101 	1315 	100
f 1308 	1310 	1006
f 1313 	1309 	1006
f 1308 	1006 	1309
f 1006 	1314 	1313
f 1006 	1315 	1314
f 1316 	1315 	1006
f 1316 	1006 	595
f 595 	990 	1316
f 112 	113 	1320
f 1321 	1320 	113
f 1000 	1006 	1321
f 1321 	1290 	1286
f 1321 	238 	1290
f 1321 	240 	241
f 1155 	1322 	1156
f 1119 	1156 	1322
f 1149 	1147 	1268
f 1269 	1322 	1155
f 1268 	1267 	1149
f 1267 	1266 	1149
f 1266 	1265 	1149
f 1265 	1015 	1149
f 1015 	1014 	1149
f 1150 	1149 	1014
f 1142 	1144 	1226
f 1226 	1146 	1148
f 1226 	1156 	1124
f 1142 	1226 	1124
f 947 	1323 	970
f 717 	1337 	1324
f 1338 	1339 	1324
f 1325 	1324 	1339
f 1339 	1340 	1325
f 1323 	1327 	979
f 978 	979 	1327
f 970 	1323 	979
f 998 	1327 	1323
f 989 	1327 	998
f 714 	717 	1324
f 1329 	1336 	1331
f 1342 	1330 	1341
f 1342 	1356 	1330
f 1344 	714 	1331
f 1328 	1330 	1348
f 1329 	1326 	1328
f 1325 	1326 	1329
f 1331 	1325 	1329
f 1331 	1324 	1325
f 1324 	1331 	714
f 1328 	1326 	1330
f 1328 	1348 	1332
f 1328 	1334 	1329
f 1335 	1329 	1334
f 1336 	1329 	1335
f 1344 	1331 	1336
f 1338 	1324 	1337
f 717 	562 	1337
f 1326 	1325 	1340
f 1326 	1341 	1330
f 1341 	1326 	1340
f 1327 	1343 	978
f 726 	714 	1344
f 1332 	1333 	1328
f 1333 	1334 	1328
f 1337 	562 	727
f 562 	561 	720
f 1339 	1338 	1344
f 727 	726 	1337
f 1340 	1339 	1335
f 1336 	1335 	1339
f 1344 	1336 	1339
f 1109 	1105 	1355
f 1341 	1340 	1334
f 1356 	1342 	1332
f 1335 	1334 	1340
f 1334 	1333 	1341
f 1345 	1352 	1347
f 989 	1347 	1327
f 1347 	991 	1345
f 1350 	1358 	1346
f 989 	991 	1347
f 1345 	991 	994
f 1345 	994 	1346
f 1346 	852 	1350
f 996 	852 	1346
f 1346 	994 	996
f 1361 	1332 	1348
f 1349 	1330 	1356
f 1349 	1348 	1330
f 1356 	1358 	1349
f 1349 	1350 	1348
f 361 	1348 	1350
f 866 	1350 	854
f 853 	854 	1350
f 852 	853 	1350
f 1350 	864 	363
f 1350 	866 	865
f 1350 	865 	864
f 363 	361 	1350
f 1361 	1348 	1360
f 361 	1360 	1348
f 363 	1362 	361
f 1352 	1345 	1351
f 1346 	1351 	1345
f 1354 	1347 	1352
f 1343 	1327 	1347
f 1355 	1343 	1347
f 1350 	1349 	1358
f 1357 	1346 	1358
f 1353 	1351 	1346
f 1157 	1113 	1353
f 1351 	1112 	1352
f 1113 	1112 	1353
f 1347 	1354 	1355
f 1352 	1107 	1354
f 1355 	1354 	1109
f 1107 	1109 	1354
f 1342 	1341 	1333
f 1332 	1361 	1356
f 1333 	1332 	1342
f 1346 	1357 	1353
f 1007 	1157 	1353
f 1020 	1023 	1358
f 1358 	1362 	1021
f 1362 	363 	1359
f 571 	1051 	1359
f 1359 	1051 	1362
f 1360 	361 	1362
f 1021 	1020 	1358
f 1360 	1358 	1361
f 1356 	1361 	1358
f 1362 	1358 	1360
f 1051 	1021 	1362
f 416 	208 	1363
f 209 	1363 	208
f 209 	210 	1363
f 212 	215 	1364
f 1365 	213 	1366
f 416 	1363 	410
f 1321 	241 	238
f 239 	1321 	1318
f 1285 	1321 	1284
f 1285 	1288 	1321
f 999 	1000 	1321
f 1320 	1006 	1319
f 1321 	1287 	1284
f 1288 	1289 	1321
f 1289 	999 	1321
f 1320 	1321 	1006
f 1319 	1006 	1317
f 1006 	1312 	1317
f 1321 	1286 	1287
f 1321 	239 	240
f 268 	239 	1318
f 88 	1310 	1308
f 1311 	1310 	90
f 90 	91 	1311
f 1312 	1311 	91
f 91 	104 	1312
f 1316 	990 	100
f 101 	92 	1315
f 1316 	100 	1315
f 92 	93 	1314
f 92 	1314 	1315
f 1314 	93 	1313
f 95 	1313 	93
f 97 	1313 	95
f 98 	1309 	97
f 109 	110 	1319
f 105 	106 	1321
f 1318 	106 	114
f 114 	115 	1318
f 1308 	87 	88
f 1308 	89 	87
f 1313 	97 	1309
f 89 	1308 	98
f 1317 	1312 	104
f 1318 	1321 	106
f 108 	1319 	1317
f 104 	108 	1317
f 1320 	1319 	110
f 109 	1319 	108
f 112 	1320 	110
f 1321 	113 	105
f 1367 	1366 	226
f 218 	226 	1366
f 226 	228 	1367
f 228 	572 	1367
f 1368 	808 	330
f 1368 	330 	334
f 1368 	334 	1369
f 336 	1369 	334
f 336 	339 	1369
f 409 	1369 	339
f 409 	1364 	1369
f 409 	1363 	1364
f 1369 	1364 	1365
f 1365 	1368 	1369
f 1368 	1366 	808
f 1368 	1365 	1366
f 807 	364 	365
f 808 	1367 	807
f 364 	807 	1367
f 808 	1366 	1367
f 1371 	1381 	1372
f 1371 	1372 	1373
f 1370 	66 	1372
f 70 	66 	1370
f 1375 	1374 	1373
f 1371 	1373 	1374
f 1380 	1379 	1373
f 1373 	1372 	1380
f 1375 	1376 	1374
f 1257 	1374 	1376
f 1377 	1245 	1250
f 1249 	1250 	1245
f 1250 	1251 	1377
f 1378 	1377 	1379
f 1378 	1379 	1380
f 1377 	1251 	1379
f 1257 	1377 	1374
f 1257 	1245 	1377
f 1251 	1250 	1376
f 1380 	66 	1378
f 62 	1378 	66
f 1262 	1257 	1376
f 1374 	1377 	1371
f 1377 	1378 	1371
f 67 	66 	70
f 1251 	1375 	1379
f 1376 	1250 	1262
f 1375 	1251 	1376
f 1373 	1379 	1375
f 1135 	70 	1381
f 1370 	1372 	1381
f 1378 	1381 	1371
f 1381 	62 	1135
f 1381 	1378 	62
f 2 	1201 	910
f 910 	1219 	2
f 13 	3 	1
f 1 	1211 	13
# 2754 faces

 #end of obj_0

o obj_1
v 426.55 		108.7 		5.8
v 428.906 		107.126 		5.0966
v 412.1155 		106.3842 		5
v 412.122 		106.483 		5
v 412.1063 		106.2501 		5
v 413.674 		108.506 		5.0966
v 412.187 		106.81 		5
v 414.65 		108.7 		5.8
v 428.102 		61.227 		5
v 412.1 		106.15 		5
v 427.583 		60.9222 		5
v 427.825 		61.042 		5
v 426.55 		108.7 		5
v 414.317 		108.678 		5
v 413.99 		108.613 		5
v 414.65 		108.7 		5
v 427.5331 		60.8974 		5
v 427.526 		60.894 		5.0966
v 412.1 		106.15 		5.8
v 414.5513 		108.6935 		5
v 414.45 		108.6871 		5
v 429.1 		65.968 		5
v 429.1 		63.25 		5
v 429.0937 		63.1499 		5
v 429.1 		106.15 		5.8
v 429.0845 		63.0157 		5
v 429.013 		62.59 		5
v 428.906 		62.274 		5
v 428.758 		61.975 		5
v 412.1 		65.968 		5.0001
v 428.573 		61.698 		5
v 428.4757 		61.5867 		5
v 428.4182 		61.5214 		5
v 427.526 		60.894 		5
v 413.674 		108.506 		5
v 429.1 		65.968 		5.0001
v 426.6488 		60.7065 		5
v 426.75 		60.7129 		5
v 413.667 		108.5026 		5
v 426.883 		60.722 		5
v 429.1 		106.15 		5
v 412.294 		107.126 		5
v 426.55 		60.7 		5
v 412.442 		107.425 		5
v 427.21 		60.787 		5
v 429.013 		106.81 		5.8
v 429.078 		106.483 		5.8
v 429.0805 		106.4447 		5.8
v 429.013 		106.81 		5
v 413.375 		108.358 		5
v 429.0795 		106.4612 		5.8
v 429.078 		106.483 		5
v 413.617 		108.4778 		5
v 429.0935 		106.2487 		5
v 429.0871 		106.35 		5
v 414.5499 		60.7063 		5
v 414.65 		60.7 		5
v 412.627 		107.702 		5
v 413.674 		60.894 		5
v 412.847 		107.953 		5
v 428.353 		107.953 		5.8
v 428.3623 		107.9425 		5.8
v 413.375 		61.042 		5
v 428.906 		107.126 		5
v 428.758 		107.425 		5.8
v 428.906 		107.126 		5.8
v 412.7818 		107.8786 		5
v 412.1 		65.968 		5
v 426.55 		60.7 		5.8
v 412.7243 		107.8133 		5
v 427.526 		108.506 		5.8
v 413.098 		61.227 		5
v 427.825 		108.358 		5.8
v 413.098 		108.173 		5
v 412.847 		61.447 		5
v 428.102 		108.173 		5.8
v 412.7903 		61.5114 		5
v 412.627 		61.698 		5
v 412.101 		106.1664 		5.8
v 412.6922 		61.6236 		5
v 412.1025 		106.1883 		5.8
v 414.65 		60.7 		5.8
v 412.122 		106.483 		5.8
v 428.3783 		107.9241 		5.8
v 428.573 		107.702 		5.8
v 414.6336 		60.701 		5.8
v 412.187 		106.81 		5.8
v 413.098 		61.227 		5.8
v 412.847 		61.447 		5.8
v 412.8377 		61.4575 		5.8
v 412.8217 		61.4759 		5.8
v 412.627 		61.698 		5.8
v 412.1 		104.538 		5
v 412.1 		104.538 		5.0001
v 429.1 		63.25 		5.8
v 429.1 		104.538 		5.0001
v 429.1 		104.538 		5
v 413.99 		108.613 		5.8
v 414.317 		108.678 		5.8
v 428.9026 		107.133 		5
v 412.294 		62.274 		5.0966
v 414.3387 		108.6795 		5.8
v 414.3553 		108.6805 		5.8
v 427.825 		108.358 		5
v 426.5883 		108.6975 		5.8
v 426.883 		108.678 		5.8
v 428.102 		108.173 		5
v 414.6117 		60.7025 		5.8
v 414.317 		60.722 		5.8
v 426.5664 		108.699 		5.8
v 412.1 		77.7 		5.0001
v 413.674 		108.506 		5.8
v 413.99 		60.787 		5.8
v 429.1 		77.7 		5.0001
v 414.4158 		60.7155 		5
v 413.674 		60.894 		5.8
v 412.847 		107.953 		5.8
v 427.21 		108.613 		5.8
v 412.6523 		107.7309 		5.8
v 414.317 		60.722 		5
v 413.375 		61.042 		5.8
v 413.99 		60.787 		5
v 412.6429 		107.7202 		5.8
v 412.627 		107.702 		5.8
v 413.098 		108.173 		5.8
v 412.1 		63.25 		5.8
v 413.375 		108.358 		5.8
v 412.442 		61.975 		5.8
v 412.442 		61.975 		5
v 412.294 		62.274 		5.8
v 412.187 		62.59 		5.8
v 412.294 		107.126 		5.8
v 412.3222 		62.217 		5
v 412.1195 		62.9553 		5.8
v 412.442 		107.425 		5.8
v 412.2974 		62.2669 		5
v 412.1205 		62.9387 		5.8
v 428.4097 		107.8886 		5
v 412.122 		62.917 		5.8
v 428.353 		107.953 		5
v 428.8778 		107.183 		5
v 428.758 		107.425 		5
v 412.1 		63.25 		5
v 412.187 		62.59 		5
v 412.294 		62.274 		5
v 427.526 		108.506 		5
v 412.1065 		63.1512 		5
v 429.078 		62.917 		5
v 428.573 		61.698 		5.8
v 412.1129 		63.05 		5
v 428.5571 		61.6798 		5.8
v 412.122 		62.917 		5
v 428.5477 		61.6691 		5.8
v 428.353 		61.447 		5.8
v 428.573 		107.702 		5
v 428.5078 		107.7764 		5
v 428.102 		61.227 		5.8
v 427.825 		61.042 		5.8
v 427.526 		60.894 		5.8
v 428.353 		61.447 		5
v 426.883 		108.678 		5
v 426.7843 		108.6845 		5
v 429.099 		63.2336 		5.8
v 426.6501 		108.6937 		5
v 429.0975 		63.2117 		5.8
v 429.078 		62.917 		5.8
v 427.21 		108.613 		5
v 429.013 		62.59 		5.8
v 428.906 		62.274 		5.8
v 428.758 		61.975 		5.8
v 426.8613 		60.7205 		5.8
v 426.8447 		60.7195 		5.8
v 426.883 		60.722 		5.8
v 427.21 		60.787 		5.8
# 174 vertices

g group_1_10988977

usemtl color_10988977
s 0

f 1523 	1446 	1383
f 1394 	1389 	1382
f 1385 	1434 	1384
f 1388 	1434 	1385
f 1384 	1434 	1386
f 1423 	1434 	1388
f 1392 	1414 	1393
f 1394 	1397 	1389
f 1442 	1521 	1457
f 1484 	1401 	1402
f 1401 	1397 	1474
f 1484 	1389 	1401
f 1397 	1401 	1389
f 1421 	1419 	1407
f 1407 	1529 	1421
f 1529 	1408 	1421
f 1426 	1421 	1408
f 1415 	1426 	1409
f 1410 	1392 	1409
f 1412 	1392 	1410
f 1413 	1392 	1412
f 1414 	1392 	1413
f 1393 	1414 	1390
f 1398 	1409 	1392
f 1415 	1409 	1398
f 1396 	1416 	1387
f 1416 	1420 	1387
f 1403 	1404 	1418
f 1415 	1399 	1426
f 1425 	1434 	1423
f 1439 	1434 	1425
f 1432 	1428 	1486
f 1419 	1418 	1405
f 1404 	1405 	1418
f 1405 	1407 	1419
f 1424 	1403 	1418
f 1393 	1539 	1399
f 1392 	1393 	1399
f 1392 	1399 	1398
f 1434 	1431 	1387
f 1429 	1406 	1435
f 1438 	1437 	1403
f 1424 	1438 	1403
f 1411 	1417 	1403
f 1420 	1434 	1387
f 1432 	1429 	1436
f 1450 	1424 	1418
f 1432 	1436 	1433
f 1425 	1516 	1439
f 1487 	1486 	1428
f 1428 	1427 	1487
f 1499 	1487 	1427
f 1430 	1474 	1445
f 1478 	1474 	1422
f 1433 	1474 	1430
f 1436 	1474 	1433
f 1435 	1474 	1436
f 1422 	1474 	1435
f 1447 	1383 	1446
f 1431 	1448 	1455
f 1504 	1500 	1451
f 1451 	1439 	1504
f 1505 	1504 	1439
f 1382 	1491 	1394
f 1472 	1473 	1461
f 1468 	1423 	1388
f 1536 	1537 	1466
f 1501 	1496 	1490
f 1406 	1400 	1476
f 1551 	1550 	1400
f 1465 	1443 	1499
f 1424 	1450 	1463
f 1450 	1553 	1400
f 1470 	1456 	1469
f 1395 	1474 	1396
f 1402 	1474 	1395
f 1401 	1474 	1402
f 1397 	1394 	1474
f 1545 	1474 	1394
f 1416 	1396 	1474
f 1420 	1416 	1474
f 1391 	1434 	1474
f 1451 	1434 	1439
f 1448 	1434 	1451
f 1441 	1455 	1448
f 1434 	1448 	1431
f 1420 	1474 	1434
f 1463 	1438 	1424
f 1440 	1502 	1444
f 1502 	1469 	1444
f 1462 	1429 	1464
f 1427 	1447 	1499
f 1446 	1466 	1499
f 1466 	1465 	1499
f 1447 	1446 	1499
f 1443 	1442 	1499
f 1452 	1499 	1442
f 1457 	1454 	1442
f 1452 	1442 	1454
f 1391 	1474 	1475
f 1400 	1391 	1475
f 1505 	1429 	1504
f 1406 	1477 	1422
f 1472 	1471 	1400
f 1445 	1481 	1383
f 1400 	1406 	1460
f 1460 	1406 	1462
f 1478 	1477 	1474
f 1457 	1488 	1454
f 1386 	1434 	1391
f 1493 	1508 	1479
f 1463 	1400 	1467
f 1472 	1461 	1458
f 1475 	1474 	1477
f 1526 	1482 	1525
f 1511 	1512 	1482
f 1545 	1491 	1486
f 1493 	1479 	1387
f 1479 	1396 	1387
f 1496 	1437 	1489
f 1545 	1394 	1491
f 1503 	1440 	1403
f 1440 	1494 	1497
f 1499 	1548 	1487
f 1500 	1498 	1448
f 1441 	1448 	1498
f 1489 	1490 	1496
f 1497 	1502 	1440
f 1500 	1429 	1389
f 1503 	1501 	1494
f 1490 	1494 	1501
f 1453 	1444 	1469
f 1495 	1492 	1477
f 1475 	1477 	1492
f 1448 	1451 	1500
f 1475 	1492 	1400
f 1494 	1440 	1503
f 1429 	1462 	1406
f 1429 	1432 	1486
f 1491 	1429 	1486
f 1382 	1429 	1491
f 1406 	1476 	1495
f 1477 	1406 	1495
f 1478 	1422 	1477
f 1382 	1389 	1429
f 1441 	1498 	1455
f 1506 	1455 	1498
f 1400 	1507 	1472
f 1471 	1470 	1400
f 1470 	1469 	1400
f 1469 	1502 	1400
f 1502 	1497 	1400
f 1494 	1400 	1497
f 1490 	1400 	1494
f 1489 	1400 	1490
f 1467 	1400 	1489
f 1427 	1383 	1447
f 1506 	1508 	1431
f 1506 	1431 	1455
f 1501 	1503 	1403
f 1444 	1403 	1440
f 1453 	1403 	1444
f 1496 	1501 	1403
f 1437 	1496 	1403
f 1456 	1403 	1453
f 1458 	1403 	1456
f 1461 	1403 	1458
f 1459 	1403 	1461
f 1493 	1387 	1508
f 1431 	1508 	1387
f 1445 	1383 	1430
f 1383 	1427 	1430
f 1514 	1510 	1482
f 1509 	1482 	1510
f 1423 	1468 	1513
f 1430 	1427 	1433
f 1428 	1433 	1427
f 1514 	1517 	1403
f 1509 	1473 	1520
f 1513 	1516 	1425
f 1513 	1425 	1423
f 1422 	1435 	1406
f 1517 	1514 	1482
f 1495 	1417 	1411
f 1507 	1411 	1524
f 1485 	1454 	1488
f 1505 	1439 	1516
f 1449 	1524 	1411
f 1435 	1436 	1429
f 1443 	1519 	1521
f 1442 	1443 	1521
f 1428 	1432 	1433
f 1411 	1507 	1492
f 1400 	1492 	1507
f 1522 	1523 	1383
f 1492 	1495 	1411
f 1508 	1506 	1480
f 1480 	1479 	1508
f 1506 	1498 	1480
f 1498 	1500 	1480
f 1483 	1480 	1500
f 1484 	1483 	1500
f 1389 	1484 	1500
f 1504 	1429 	1500
f 1505 	1516 	1429
f 1468 	1429 	1513
f 1464 	1429 	1468
f 1516 	1513 	1429
f 1522 	1474 	1523
f 1511 	1482 	1509
f 1410 	1530 	1412
f 1460 	1386 	1391
f 1460 	1391 	1400
f 1417 	1476 	1404
f 1481 	1522 	1383
f 1384 	1462 	1464
f 1530 	1532 	1412
f 1413 	1412 	1532
f 1417 	1495 	1476
f 1404 	1403 	1417
f 1473 	1472 	1520
f 1520 	1512 	1509
f 1511 	1509 	1512
f 1518 	1520 	1472
f 1515 	1518 	1472
f 1507 	1515 	1472
f 1449 	1403 	1524
f 1460 	1462 	1386
f 1384 	1386 	1462
f 1452 	1454 	1485
f 1452 	1485 	1527
f 1518 	1515 	1531
f 1388 	1464 	1468
f 1463 	1467 	1438
f 1437 	1438 	1467
f 1482 	1526 	1517
f 1408 	1409 	1426
f 1453 	1469 	1456
f 1499 	1452 	1527
f 1520 	1533 	1525
f 1396 	1479 	1395
f 1480 	1395 	1479
f 1520 	1518 	1533
f 1531 	1533 	1518
f 1521 	1488 	1457
f 1470 	1471 	1456
f 1458 	1456 	1471
f 1402 	1483 	1484
f 1459 	1461 	1473
f 1465 	1466 	1537
f 1549 	1550 	1408
f 1480 	1483 	1395
f 1402 	1395 	1483
f 1473 	1510 	1459
f 1466 	1446 	1523
f 1459 	1510 	1403
f 1510 	1514 	1403
f 1517 	1526 	1403
f 1526 	1525 	1403
f 1533 	1403 	1525
f 1531 	1403 	1533
f 1528 	1403 	1531
f 1524 	1403 	1528
f 1449 	1411 	1403
f 1523 	1474 	1536
f 1458 	1471 	1472
f 1529 	1549 	1408
f 1443 	1465 	1519
f 1537 	1519 	1465
f 1473 	1509 	1510
f 1536 	1466 	1523
f 1393 	1538 	1539
f 1415 	1398 	1399
f 1540 	1399 	1539
f 1525 	1482 	1512
f 1534 	1535 	1414
f 1541 	1414 	1535
f 1515 	1507 	1528
f 1524 	1528 	1507
f 1521 	1474 	1488
f 1519 	1474 	1521
f 1537 	1474 	1519
f 1536 	1474 	1537
f 1481 	1474 	1522
f 1445 	1474 	1481
f 1542 	1548 	1474
f 1535 	1538 	1541
f 1528 	1531 	1515
f 1541 	1390 	1414
f 1543 	1542 	1474
f 1488 	1474 	1485
f 1525 	1512 	1520
f 1542 	1543 	1487
f 1486 	1487 	1543
f 1534 	1414 	1413
f 1532 	1534 	1413
f 1487 	1548 	1542
f 1534 	1400 	1535
f 1530 	1400 	1532
f 1532 	1400 	1534
f 1539 	1538 	1400
f 1538 	1535 	1400
f 1485 	1474 	1527
f 1538 	1390 	1541
f 1486 	1543 	1545
f 1467 	1489 	1437
f 1538 	1393 	1390
f 1548 	1499 	1527
f 1546 	1400 	1547
f 1543 	1474 	1545
f 1548 	1527 	1474
f 1385 	1384 	1464
f 1410 	1550 	1551
f 1464 	1388 	1385
f 1410 	1551 	1530
f 1553 	1552 	1400
f 1549 	1400 	1550
f 1547 	1400 	1549
f 1544 	1400 	1546
f 1476 	1400 	1544
f 1418 	1419 	1553
f 1552 	1553 	1419
f 1419 	1421 	1552
f 1554 	1552 	1421
f 1555 	1540 	1400
f 1553 	1450 	1418
f 1555 	1554 	1426
f 1421 	1426 	1554
f 1551 	1400 	1530
f 1554 	1555 	1400
f 1540 	1539 	1400
f 1552 	1554 	1400
f 1463 	1450 	1400
f 1544 	1405 	1404
f 1544 	1404 	1476
f 1546 	1547 	1407
f 1529 	1407 	1547
f 1547 	1549 	1529
f 1544 	1546 	1405
f 1407 	1405 	1546
f 1409 	1408 	1550
f 1410 	1409 	1550
f 1399 	1540 	1555
f 1555 	1426 	1399
# 344 faces

 #end of obj_1

