# Object Export From Tinkercad Server 2015

mtllib obj.mtl

o obj_0
v -509.325 		274.5 		12.383
v -509.598 		274.5 		11.975
v -509.815 		274.5 		11.535
v -509.972 		274.5 		11.071
v -510.068 		274.5 		10.589
v -510.1 		274.5 		10.1
v -510.068 		274.5 		9.611
v -509.972 		274.5 		9.129
v -509.815 		274.5 		8.665
v -509.598 		274.5 		8.225
v -509.1 		274.5 		10.1
v -509.325 		274.5 		7.817
v -504.733 		269.382 		7.993
v -510.1 		275.7 		10.1
v -510.068 		275.7 		10.589
v -509.972 		275.7 		11.071
v -509.815 		275.7 		11.535
v -509.598 		275.7 		11.975
v -509.325 		275.7 		12.383
v -509.598 		275.7 		8.225
v -509.815 		275.7 		8.665
v -509.972 		275.7 		9.129
v -510.068 		275.7 		9.611
v -509.325 		275.7 		7.817
v -504.676 		269.7 		7.918
v -504.69 		269.639 		7.937
v -506.35 		274.5 		6.35
v -505.861 		274.5 		6.382
v -504.405 		269.7 		8.155
v -505.379 		274.5 		6.478
v -504.915 		274.5 		6.635
v -504.475 		274.5 		6.852
v -504.067 		274.5 		7.125
v -506.35 		274.5 		7.35
v -508.633 		274.5 		7.125
v -508.225 		274.5 		6.852
v -507.785 		274.5 		6.635
v -507.321 		274.5 		6.478
v -506.839 		274.5 		6.382
v -504.067 		275.7 		7.125
v -504.475 		275.7 		6.852
v -504.915 		275.7 		6.635
v -505.379 		275.7 		6.478
v -505.861 		275.7 		6.382
v -506.35 		275.7 		6.35
v -506.839 		275.7 		6.382
v -504.422 		269.639 		8.172
v -507.321 		275.7 		6.478
v -507.785 		275.7 		6.635
v -508.225 		275.7 		6.852
v -508.633 		275.7 		7.125
v -507.261 		268.9 		12.3
v -507.008 		269.135 		12.554
v -505.994 		267.968 		10.716
v -507.322 		269.135 		12.447
v -506.039 		267.917 		10.279
v -507.62 		269.135 		12.3
v -506.065 		267.917 		10.319
v -506.096 		267.917 		10.354
v -503.716 		269.382 		10.447
v -506.132 		267.917 		10.385
v -506.171 		267.917 		10.411
v -506.213 		267.917 		10.432
v -503.784 		269.382 		10.788
v -506.257 		267.917 		10.447
v -506.303 		267.917 		10.456
v -506.35 		267.917 		10.459
v -503.624 		269.7 		10.459
v -503.647 		269.639 		10.456
v -503.694 		269.7 		10.812
v -503.716 		269.639 		10.806
v -506.706 		267.968 		10.716
v -506.783 		267.968 		10.665
v -506.853 		267.968 		10.603
v -503.6416 		269.7 		10.4567
v -503.6416 		269.7 		10.456
v -503.6276 		269.7 		10.24
v -503.7108 		269.7 		10.8074
v -503.658 		269.7 		10.5392
v -506.397 		267.917 		10.456
v -503.808 		269.7 		11.0928
v -506.443 		267.917 		10.447
v -503.7377 		269.7 		10.8869
v -506.487 		267.917 		10.432
v -506.529 		267.917 		10.411
v -506.569 		267.917 		10.385
v -506.604 		267.917 		10.354
v -506.635 		267.917 		10.319
v -506.661 		267.917 		10.279
v -503.716 		269.382 		9.753
v -503.694 		269.382 		10.1
v -503.624 		269.7 		9.741
v -506.991 		268.052 		10.935
v -503.647 		269.639 		9.744
v -507.094 		268.052 		10.844
v -503.6 		269.7 		10.1
v -503.624 		269.639 		10.1
v -507.187 		268.168 		11.191
v -507.322 		268.168 		11.072
v -507.441 		268.168 		10.937
v -507.541 		268.168 		10.788
v -503.375 		274.5 		12.383
v -503.102 		274.5 		8.225
v -502.885 		274.5 		8.665
v -502.728 		274.5 		9.129
v -502.632 		274.5 		9.611
v -502.6 		274.5 		10.1
v -502.632 		274.5 		10.589
v -502.728 		274.5 		11.071
v -502.885 		274.5 		11.535
v -503.102 		274.5 		11.975
v -503.6 		274.5 		10.1
v -503.375 		274.5 		7.817
v -503.375 		275.7 		12.383
v -502.6 		275.7 		10.1
v -502.632 		275.7 		9.611
v -502.728 		275.7 		9.129
v -502.885 		275.7 		8.665
v -503.102 		275.7 		8.225
v -503.102 		275.7 		11.975
v -502.885 		275.7 		11.535
v -502.728 		275.7 		11.071
v -502.632 		275.7 		10.589
v -503.375 		275.7 		7.817
v -506.915 		267.968 		10.533
v -506.966 		267.968 		10.456
v -507.008 		267.968 		10.372
v -507.038 		267.968 		10.284
v -503.6416 		269.7 		9.7433
v -503.6447 		269.7 		9.728
v -507.185 		268.052 		10.741
v -503.6184 		269.7 		10.1
v -503.6185 		269.7 		10.0985
v -503.636 		269.7 		9.8272
v -507.261 		268.052 		10.626
v -507.322 		268.052 		10.503
v -503.624 		269.7 		10.1839
v -507.367 		268.052 		10.372
v -503.784 		269.382 		9.413
v -503.694 		269.7 		9.388
v -503.716 		269.639 		9.394
v -507.62 		268.168 		10.626
v -507.678 		268.168 		10.456
v -507.713 		268.168 		10.279
v -503.7108 		269.7 		9.3926
v -503.7711 		269.7 		9.216
v -503.6945 		269.7 		9.4751
v -503.799 		269.7 		9.1344
v -503.808 		269.7 		9.1077
v -503.989 		268.9 		9.789
v -503.968 		268.9 		10.1
v -503.831 		269.135 		9.768
v -503.809 		269.135 		10.1
v -504.69 		268.313 		9.881
v -504.472 		269.382 		11.978
v -504.733 		269.382 		12.207
v -504.676 		268.313 		10.1
v -504.405 		269.7 		12.045
v -504.422 		268.486 		9.846
v -504.422 		269.639 		12.028
v -504.405 		268.486 		10.1
v -504.676 		269.7 		12.282
v -504.187 		268.682 		9.815
v -504.69 		269.639 		12.263
v -504.168 		268.682 		10.1
v -504.05 		268.9 		9.484
v -507.785 		275.7 		13.565
v -507.321 		275.7 		13.722
v -506.839 		275.7 		13.818
v -506.35 		275.7 		13.85
v -505.861 		275.7 		13.818
v -505.379 		275.7 		13.722
v -504.915 		275.7 		13.565
v -504.475 		275.7 		13.348
v -504.067 		275.7 		13.075
v -503.698 		275.7 		12.752
v -505.333 		268.052 		9.828
v -503.896 		269.135 		9.442
v -509.002 		275.7 		12.752
v -508.633 		275.7 		13.075
v -508.225 		275.7 		13.348
v -503.698 		275.7 		7.448
v -505.307 		268.052 		9.963
v -509.002 		275.7 		7.448
v -505.298 		268.052 		10.1
v -505.307 		268.052 		10.237
v -504.803 		268.313 		9.459
v -505.022 		268.168 		9.744
v -504.733 		268.313 		9.667
v -504.067 		274.5 		13.075
v -504.475 		274.5 		13.348
v -504.915 		274.5 		13.565
v -505.379 		274.5 		13.722
v -505.861 		274.5 		13.818
v -506.35 		274.5 		13.85
v -506.839 		274.5 		13.818
v -507.321 		274.5 		13.722
v -507.785 		274.5 		13.565
v -506.35 		274.5 		12.85
v -508.225 		274.5 		13.348
v -508.633 		274.5 		13.075
v -504.987 		268.168 		9.921
v -504.975 		268.168 		10.1
v -504.553 		268.486 		9.356
v -508.984 		269.382 		10.447
v -504.472 		268.486 		9.597
v -503.698 		274.5 		12.752
v -504.975 		274.5 		12.482
v -509.006 		269.7 		10.812
v -505.298 		274.5 		12.641
v -508.984 		269.639 		10.806
v -505.638 		274.5 		12.756
v -505.991 		274.5 		12.826
v -504.334 		268.682 		9.265
v -506.709 		274.5 		12.826
v -507.062 		274.5 		12.756
v -504.243 		268.682 		9.535
v -509.076 		269.7 		10.459
v -504.003 		269.135 		11.072
v -507.402 		274.5 		12.641
v -504.15 		268.9 		11.011
v -507.725 		274.5 		12.482
v -504.168 		274.5 		8.426
v -509.053 		269.639 		10.456
v -504.6867 		269.7 		7.9326
v -504.832 		269.7 		7.8357
v -503.968 		274.5 		8.725
v -503.809 		274.5 		9.048
v -503.694 		274.5 		9.388
v -504.9 		268.313 		9.263
v -503.624 		274.5 		9.741
v -504.418 		269.7 		8.168
v -504.4187 		269.7 		8.1675
v -504.6234 		269.7 		7.9879
v -504.418 		269.7 		12.032
v -504.4175 		269.7 		12.0313
v -504.238 		269.7 		11.8266
v -503.624 		274.5 		10.459
v -503.694 		274.5 		10.812
v -503.809 		274.5 		11.152
v -504.05 		269.382 		8.772
v -503.968 		274.5 		11.475
v -504.1937 		269.7 		11.776
v -504.168 		274.5 		11.774
v -504.3971 		269.7 		8.192
v -504.405 		274.5 		12.045
v -504.676 		274.5 		12.282
v -504.6867 		269.7 		12.2674
v -504.4814 		269.7 		12.0874
v -508.9891 		269.7 		10.8074
v -508.928 		269.7 		10.9866
v -509.0584 		269.7 		10.4567
v -509.0055 		269.7 		10.7249
v -503.989 		268.9 		10.411
v -503.896 		269.382 		9.083
v -504.7175 		269.7 		12.288
v -503.968 		269.7 		8.725
v -506.35 		267.968 		9.388
v -503.989 		269.639 		8.737
v -506.257 		267.968 		9.394
v -509.0726 		269.7 		10.24
v -509.064 		269.7 		10.3728
v -506.166 		267.968 		9.413
v -503.809 		269.7 		9.048
v -508.024 		274.5 		12.282
v -509.002 		274.5 		12.752
v -506.078 		267.968 		9.442
v -505.663 		269.382 		7.534
v -503.831 		269.639 		9.057
v -505.994 		267.968 		9.484
v -508.295 		274.5 		12.045
v -505.917 		267.968 		9.535
v -508.532 		274.5 		11.774
v -505.333 		269.382 		7.646
v -508.732 		274.5 		11.475
v -508.034 		268.486 		11.072
v -508.891 		274.5 		11.152
v -505.022 		269.382 		7.8
v -509.006 		274.5 		10.812
v -508.147 		268.486 		10.844
v -509.076 		274.5 		10.459
v -505.638 		269.7 		7.444
v -508.239 		268.682 		11.191
v -509.076 		274.5 		9.741
v -509.006 		274.5 		9.388
v -508.366 		268.682 		10.935
v -505.644 		269.639 		7.466
v -508.891 		274.5 		9.048
v -508.732 		274.5 		8.725
v -503.9841 		269.7 		8.7342
v -503.9845 		269.7 		8.7335
v -504.0042 		269.7 		8.704
v -508.532 		274.5 		8.426
v -504.05 		268.9 		10.716
v -508.55 		268.9 		11.011
v -503.831 		269.135 		10.432
v -503.698 		274.5 		7.448
v -505.991 		274.5 		7.374
v -505.638 		274.5 		7.444
v -503.8259 		269.7 		9.0549
v -503.8266 		269.7 		9.0533
v -503.9469 		269.7 		8.8097
v -504.05 		269.382 		11.428
v -505.298 		274.5 		7.559
v -504.975 		274.5 		7.718
v -508.697 		269.135 		11.072
v -504.676 		274.5 		7.918
v -504.243 		269.382 		11.717
v -504.405 		274.5 		8.155
v -508.804 		269.135 		10.758
v -504.69 		268.313 		10.319
v -508.295 		274.5 		8.155
v -509.002 		274.5 		7.448
v -503.968 		269.7 		11.475
v -504.733 		268.313 		10.533
v -508.024 		274.5 		7.918
v -503.989 		269.639 		11.463
v -507.725 		274.5 		7.718
v -508.65 		268.9 		10.716
v -507.402 		274.5 		7.559
v -505.298 		269.7 		7.559
v -508.711 		268.9 		10.411
v -507.062 		274.5 		7.444
v -506.709 		274.5 		7.374
v -505.307 		269.639 		7.581
v -505.734 		267.968 		9.744
v -508.869 		269.135 		10.432
v -504.168 		269.7 		11.774
v -505.692 		267.968 		9.828
v -504.187 		269.639 		11.76
v -505.663 		267.968 		9.916
v -504.803 		268.313 		10.741
v -505.644 		267.968 		10.007
v -504.422 		268.486 		10.354
v -505.638 		267.968 		10.1
v -504.472 		268.486 		10.603
v -507.967 		268.313 		10.533
v -504.832 		269.7 		12.3644
v -504.7566 		269.7 		12.3142
v -504.975 		269.7 		7.718
v -503.9841 		269.7 		11.4658
v -503.9836 		269.7 		11.4649
v -503.8845 		269.7 		11.264
v -508.01 		268.313 		10.319
v -504.987 		269.639 		7.739
v -504.187 		268.682 		10.385
v -504.243 		268.682 		10.665
v -504.1826 		269.7 		11.7633
v -504.0308 		269.7 		11.5357
v -505.644 		267.968 		10.193
v -504.472 		269.382 		8.222
v -508.228 		268.486 		10.603
v -504.243 		269.382 		8.483
v -508.278 		268.486 		10.354
v -505.022 		269.382 		12.4
v -504.168 		269.7 		8.426
v -505.333 		269.382 		12.554
v -505.663 		269.382 		12.666
v -504.9 		268.313 		10.937
v -504.187 		269.639 		8.44
v -505.6426 		269.7 		7.4609
v -505.856 		269.7 		7.4188
v -504.975 		269.7 		12.482
v -505.022 		268.313 		11.119
v -504.987 		269.639 		12.461
v -505.3049 		269.7 		7.5759
v -504.666 		268.9 		11.784
v -508.457 		268.682 		10.665
v -505.298 		269.7 		12.641
v -506.853 		267.968 		9.597
v -506.783 		267.968 		9.535
v -508.513 		268.682 		10.385
v -505.663 		268.168 		11.291
v -506.706 		267.968 		9.484
v -505.307 		269.639 		12.619
v -506.622 		267.968 		9.442
v -505.5631 		269.7 		7.4877
v -506.534 		267.968 		9.413
v -505.259 		268.168 		9.263
v -506.443 		267.968 		9.394
v -505.159 		268.168 		9.413
v -504.1826 		269.7 		8.4367
v -504.3626 		269.7 		8.2314
v -505.824 		268.168 		11.37
v -505.638 		269.7 		12.756
v -505.644 		269.639 		12.734
v -504.553 		269.135 		11.897
v -504.1358 		269.7 		8.5066
v -505.606 		268.052 		10.844
v -504.807 		268.486 		8.916
v -505.08 		268.168 		9.574
v -504.9842 		269.7 		7.7341
v -504.9851 		269.7 		7.7336
v -505.2294 		269.7 		7.613
v -504.9842 		269.7 		12.4659
v -505.709 		268.052 		10.935
v -504.9835 		269.7 		12.4655
v -504.666 		268.486 		9.128
v -507.062 		267.968 		10.1
v -507.056 		267.968 		10.007
v -505.3049 		269.7 		12.6241
v -504.803 		269.135 		12.116
v -505.3033 		269.7 		12.6234
v -505.0597 		269.7 		12.5031
v -505.6426 		269.7 		12.7391
v -505.3844 		269.7 		12.651
v -507.038 		267.968 		9.916
v -504.9143 		269.7 		7.7808
v -504.807 		268.486 		11.284
v -507.008 		267.968 		9.828
v -505.856 		269.7 		12.7813
v -505.7251 		269.7 		12.7555
v -505.785 		268.682 		7.993
v -506.966 		267.968 		9.744
v -504.619 		268.682 		11.428
v -507.056 		267.968 		10.193
v -504.807 		268.682 		11.643
v -505.847 		267.968 		9.597
v -505.439 		268.9 		12.3
v -505.515 		268.682 		8.084
v -504.619 		268.682 		8.772
v -505.734 		268.9 		12.4
v -505.824 		268.052 		11.011
v -504.461 		268.682 		9.009
v -505.08 		269.135 		12.3
v -505.785 		267.968 		9.667
v -508.916 		269.382 		9.413
v -505.378 		269.135 		12.447
v -505.159 		268.168 		10.788
v -504.288 		268.9 		11.291
v -505.692 		269.135 		12.554
v -505.709 		268.052 		9.265
v -505.259 		268.168 		10.937
v -504.461 		268.9 		11.55
v -505.606 		268.052 		9.356
v -508.984 		269.382 		9.753
v -509.006 		269.382 		10.1
v -505.378 		268.168 		11.072
v -505.515 		268.052 		9.459
v -509.1 		269.7 		10.1
v -505.513 		268.168 		11.191
v -509.076 		269.7 		9.741
v -505.439 		268.052 		9.574
v -505.734 		268.9 		7.8
v -504.15 		269.135 		11.37
v -505.439 		268.9 		7.9
v -505.378 		268.052 		9.697
v -504.334 		269.135 		11.647
v -505.159 		268.9 		8.038
v -509.076 		269.639 		10.1
v -509.053 		269.639 		9.744
v -507.367 		268.052 		9.828
v -505.692 		269.135 		7.646
v -504.288 		268.9 		8.909
v -505.333 		268.052 		10.372
v -504.15 		268.9 		9.189
v -504.987 		268.168 		10.279
v -505.022 		268.168 		10.456
v -504.15 		269.135 		8.83
v -504.9 		268.9 		11.989
v -506.003 		269.382 		12.734
v -505.159 		268.9 		12.163
v -505.08 		268.168 		10.626
v -506.35 		269.382 		12.756
v -504.003 		269.135 		9.128
v -507.402 		268.052 		10.1
v -507.393 		268.052 		9.963
v -506.697 		269.382 		12.734
v -505.991 		269.7 		12.826
v -505.994 		269.639 		12.803
v -507.393 		268.052 		10.237
v -505.785 		267.968 		10.533
v -504.807 		268.682 		8.557
v -506.35 		269.7 		12.85
v -505.847 		267.968 		10.603
v -507.725 		268.168 		10.1
v -507.713 		268.168 		9.921
v -506.35 		269.639 		12.826
v -505.378 		268.052 		10.503
v -505.378 		268.486 		11.784
v -505.378 		269.135 		7.753
v -505.439 		268.052 		10.626
v -505.515 		268.052 		10.741
v -505.824 		268.052 		9.189
v -506.709 		269.7 		12.826
v -507.678 		268.168 		9.744
v -506.706 		269.639 		12.803
v -505.824 		268.168 		8.83
v -505.663 		268.168 		8.909
v -505.606 		268.486 		11.897
v -505.08 		269.135 		7.9
v -504.666 		268.9 		8.416
v -504.461 		268.9 		8.65
v -505.847 		268.486 		11.978
v -504.803 		269.135 		8.084
v -504.553 		269.135 		8.303
v -505.022 		268.682 		11.831
v -504.334 		269.135 		8.553
v -505.259 		268.682 		11.989
v -505.513 		268.168 		9.009
v -505.515 		268.682 		12.116
v -505.785 		268.682 		12.207
v -505.9933 		269.7 		12.8084
v -505.378 		268.168 		9.128
v -505.663 		267.968 		10.284
v -506.35 		269.7 		12.8316
v -506.3485 		269.7 		12.8315
v -506.0772 		269.7 		12.814
v -505.692 		267.968 		10.372
v -506.915 		267.968 		9.667
v -505.734 		267.968 		10.456
v -506.7067 		269.7 		12.8084
v -506.706 		269.7 		12.8084
v -506.4339 		269.7 		12.826
v -509.0584 		269.7 		9.7433
v -509.0584 		269.7 		9.744
v -509.076 		269.7 		10.0161
v -509.0816 		269.7 		10.1
v -506.88 		269.7 		12.7741
v -506.7892 		269.7 		12.792
v -509.0815 		269.7 		10.1015
v -507.322 		268.052 		9.697
v -507.261 		268.052 		9.574
v -507.185 		268.052 		9.459
v -509.0553 		269.7 		9.728
v -507.897 		268.313 		9.459
v -507.094 		268.052 		9.356
v -506.096 		268.486 		12.028
v -507.8 		268.313 		9.263
v -506.35 		268.486 		12.045
v -507.038 		269.382 		12.666
v -506.604 		268.486 		12.028
v -507.367 		269.382 		12.554
v -505.331 		268.313 		8.772
v -505.166 		268.313 		8.916
v -507.678 		269.382 		12.4
v -506.853 		268.486 		11.978
v -506.991 		268.052 		9.265
v -506.065 		268.682 		12.263
v -507.062 		269.7 		12.756
v -505.022 		268.313 		9.081
v -507.056 		269.639 		12.734
v -509.006 		269.7 		9.388
v -506.35 		268.682 		12.282
v -508.984 		269.639 		9.394
v -506.635 		268.682 		12.263
v -504.975 		268.486 		8.725
v -507.402 		269.7 		12.641
v -507.393 		269.639 		12.619
v -505.166 		268.313 		11.284
v -504.9 		268.9 		8.211
v -505.331 		268.313 		11.428
v -507.725 		269.7 		12.482
v -505.917 		268.313 		11.717
v -507.713 		269.639 		12.461
v -506.132 		268.313 		11.76
v -505.513 		268.313 		11.55
v -506.697 		269.382 		7.466
v -505.709 		268.313 		11.647
v -506.35 		268.313 		11.774
v -506.35 		269.382 		7.444
v -504.975 		268.486 		11.475
v -506.569 		268.313 		11.76
v -505.166 		268.486 		11.643
v -506.003 		269.382 		7.466
v -507.0574 		269.7 		12.7391
v -506.783 		268.313 		11.717
v -506.709 		269.7 		7.374
v -506.706 		269.639 		7.397
v -507.62 		268.168 		9.574
v -507.541 		268.168 		9.413
v -507.441 		268.168 		9.263
v -505.709 		268.313 		8.553
v -508.9891 		269.7 		9.3926
v -509.042 		269.7 		9.6608
v -506.35 		269.7 		7.35
v -506.35 		269.639 		7.374
v -508.9291 		269.7 		9.216
v -508.9622 		269.7 		9.3131
v -505.991 		269.7 		7.374
v -505.994 		269.639 		7.397
v -507.541 		268.9 		12.163
v -508.732 		268.9 		10.1
v -508.711 		268.9 		9.789
v -503.896 		269.382 		11.117
v -507.8 		268.9 		11.989
v -507.3951 		269.7 		12.6241
v -507.1369 		269.7 		12.7123
v -503.809 		269.7 		11.152
v -505.513 		268.313 		8.65
v -503.831 		269.639 		11.143
v -507.7158 		269.7 		12.4659
v -507.7149 		269.7 		12.4664
v -507.4706 		269.7 		12.587
v -506.35 		268.052 		9.048
v -505.847 		268.486 		8.222
v -507.897 		269.135 		12.116
v -507.904 		269.7 		12.3403
v -507.7857 		269.7 		12.4192
v -506.7067 		269.7 		7.3916
v -506.88 		269.7 		7.4258
v -505.606 		268.486 		8.303
v -506.783 		268.313 		8.483
v -503.8259 		269.7 		11.1451
v -506.569 		268.313 		8.44
v -506.039 		268.9 		12.461
v -506.35 		269.7 		7.3684
v -506.3515 		269.7 		7.3685
v -506.6228 		269.7 		7.386
v -505.378 		268.486 		8.416
v -506.35 		268.9 		12.482
v -506.35 		268.313 		8.426
v -503.863 		269.7 		11.2206
v -506.661 		268.9 		12.461
v -505.166 		268.486 		8.557
v -506.132 		268.313 		8.44
v -505.9933 		269.7 		7.3916
v -505.994 		269.7 		7.3916
v -506.2661 		269.7 		7.374
v -506.018 		269.135 		12.619
v -505.917 		268.313 		8.483
v -506.35 		269.135 		12.641
v -505.9108 		269.7 		7.408
v -504.553 		268.486 		10.844
v -504.666 		268.486 		11.072
v -506.682 		269.135 		12.619
v -505.259 		268.682 		8.211
v -507.094 		268.486 		11.897
v -505.022 		268.682 		8.369
v -504.334 		268.682 		10.935
v -506.213 		268.052 		9.057
v -507.322 		268.486 		11.784
v -504.461 		268.682 		11.191
v -506.078 		268.052 		9.083
v -506.966 		268.9 		12.4
v -506.853 		268.486 		8.222
v -505.947 		268.052 		9.128
v -506.35 		268.168 		8.725
v -507.678 		269.382 		7.8
v -507.367 		269.382 		7.646
v -506.171 		268.168 		8.737
v -508.869 		269.135 		9.768
v -508.891 		269.135 		10.1
v -506.915 		268.682 		12.207
v -507.038 		269.382 		7.534
v -503.896 		269.135 		10.758
v -507.185 		268.682 		12.116
v -507.725 		269.7 		7.718
v -507.713 		269.639 		7.739
v -508.01 		268.313 		9.881
v -507.441 		268.682 		11.989
v -508.024 		268.313 		10.1
v -507.678 		268.682 		11.831
v -508.295 		268.486 		10.1
v -508.278 		268.486 		9.846
v -507.402 		269.7 		7.559
v -505.994 		268.168 		8.772
v -507.393 		269.639 		7.581
v -508.513 		268.682 		9.815
v -508.532 		268.682 		10.1
v -507.062 		269.7 		7.444
v -507.056 		269.639 		7.466
v -506.876 		268.052 		9.189
v -506.753 		268.052 		9.128
v -507.967 		268.313 		9.667
v -506.622 		268.052 		9.083
v -508.228 		268.486 		9.597
v -508.147 		268.486 		9.356
v -506.487 		268.052 		9.057
v -507.7158 		269.7 		7.7341
v -507.7165 		269.7 		7.7345
v -507.904 		269.7 		7.8596
v -508.457 		268.682 		9.535
v -506.876 		268.168 		8.83
v -506.706 		268.168 		8.772
v -508.366 		268.682 		9.265
v -507.3951 		269.7 		7.5759
v -507.3967 		269.7 		7.5766
v -507.6403 		269.7 		7.6969
v -506.529 		268.168 		8.737
v -507.0574 		269.7 		7.4609
v -507.3156 		269.7 		7.549
v -506.991 		268.313 		11.647
v -508.65 		268.9 		9.484
v -506.9749 		269.7 		7.4445
v -507.187 		268.313 		11.55
v -506.661 		268.9 		7.739
v -507.369 		268.313 		11.428
v -506.35 		268.9 		7.718
v -507.534 		268.313 		11.284
v -508.804 		269.135 		9.442
v -506.039 		268.9 		7.739
v -506.682 		269.135 		7.581
v -507.534 		268.486 		11.643
v -506.35 		269.135 		7.559
v -507.322 		268.168 		9.128
v -507.725 		268.486 		11.475
v -506.018 		269.135 		7.581
v -507.187 		268.168 		9.009
v -507.893 		268.486 		11.284
v -507.038 		268.168 		8.909
v -508.804 		269.382 		9.083
v -507.893 		268.682 		11.643
v -508.65 		269.382 		8.772
v -506.604 		268.486 		8.172
v -506.35 		268.486 		8.155
v -508.891 		269.7 		9.048
v -508.869 		269.639 		9.057
v -506.096 		268.486 		8.172
v -508.732 		269.7 		8.725
v -507.678 		268.313 		9.081
v -508.711 		269.639 		8.737
v -506.635 		268.682 		7.937
v -507.534 		268.313 		8.916
v -506.35 		268.682 		7.918
v -507.9824 		269.7 		12.288
v -507.369 		268.313 		8.772
v -506.065 		268.682 		7.937
v -508.8741 		269.7 		9.0549
v -508.928 		269.7 		9.2127
v -508.7159 		269.7 		8.7342
v -507.541 		268.9 		8.038
v -508.7163 		269.7 		8.7351
v -508.837 		269.7 		8.9794
v -507.678 		268.313 		11.119
v -507.261 		268.9 		7.9
v -506.966 		268.9 		7.8
v -507.8 		268.313 		10.937
v -508.6957 		269.7 		8.704
v -507.897 		269.135 		8.084
v -507.897 		268.313 		10.741
v -507.62 		269.135 		7.9
v -507.967 		269.382 		12.207
v -507.322 		269.135 		7.753
v -508.228 		269.382 		11.978
v -507.893 		268.486 		8.916
v -507.008 		269.135 		7.646
v -508.457 		269.382 		8.483
v -508.228 		269.382 		8.222
v -507.725 		268.486 		8.725
v -508.532 		269.7 		8.426
v -508.024 		269.7 		12.282
v -505.994 		268.168 		11.428
v -508.513 		269.639 		8.44
v -506.171 		268.168 		11.463
v -506.35 		268.168 		11.475
v -507.185 		268.682 		8.084
v -507.8 		268.9 		8.211
v -506.915 		268.682 		7.993
v -508.01 		269.639 		12.263
v -508.295 		269.7 		12.045
v -508.278 		269.639 		12.028
v -508.5174 		269.7 		8.4367
v -508.6692 		269.7 		8.6643
v -507.187 		268.313 		8.65
v -506.529 		268.168 		11.463
v -506.991 		268.313 		8.553
v -508.303 		269.7 		8.192
v -508.462 		269.7 		8.3734
v -506.706 		268.168 		11.428
v -507.534 		268.486 		8.557
v -507.967 		269.382 		7.993
v -507.322 		268.486 		8.416
v -506.876 		268.168 		11.37
v -508.295 		269.7 		8.155
v -507.094 		268.486 		8.303
v -508.278 		269.639 		8.172
v -508.0133 		269.7 		12.2674
v -508.034 		268.486 		9.128
v -508.024 		269.7 		7.918
v -508.282 		269.7 		12.032
v -508.2813 		269.7 		12.0325
v -508.0766 		269.7 		12.212
v -508.01 		269.639 		7.937
v -507.893 		268.682 		8.557
v -508.239 		268.682 		9.009
v -508.081 		268.682 		8.772
v -507.678 		268.682 		8.369
v -508.5063 		269.7 		11.776
v -508.3374 		269.7 		11.9686
v -507.038 		268.168 		11.291
v -508.55 		268.9 		9.189
v -507.441 		268.682 		8.211
v -508.413 		268.9 		8.909
v -506.078 		267.968 		10.758
v -506.166 		267.968 		10.788
v -508.282 		269.7 		8.168
v -508.2825 		269.7 		8.1687
v -508.457 		269.382 		11.717
v -506.257 		267.968 		10.806
v -508.697 		269.135 		9.128
v -506.35 		267.968 		10.812
v -508.65 		269.382 		11.428
v -508.0133 		269.7 		7.9326
v -508.2186 		269.7 		8.1126
v -508.55 		269.135 		8.83
v -508.532 		269.7 		11.774
v -506.003 		267.917 		10.007
v -508.513 		269.639 		11.76
v -505.994 		267.917 		10.053
v -505.947 		268.052 		11.072
v -505.991 		267.917 		10.1
v -507.9434 		269.7 		7.8858
v -505.994 		267.917 		10.147
v -506.078 		268.052 		11.117
v -506.003 		267.917 		10.193
v -506.018 		267.917 		10.237
v -508.732 		269.7 		11.475
v -506.213 		268.052 		11.143
v -506.35 		268.052 		11.152
v -508.711 		269.639 		11.463
v -508.239 		268.9 		8.65
v -508.034 		268.9 		8.416
v -508.366 		269.135 		8.553
v -508.147 		269.135 		8.303
v -506.443 		267.968 		10.806
v -506.534 		267.968 		10.788
v -508.5174 		269.7 		11.7633
v -506.622 		267.968 		10.758
v -506.487 		268.052 		11.143
v -508.7159 		269.7 		11.4658
v -506.622 		268.052 		11.117
v -508.7155 		269.7 		11.4665
v -508.5642 		269.7 		11.6934
v -506.753 		268.052 		11.072
v -506.876 		268.052 		11.011
v -508.8154 		269.7 		11.264
v -508.7531 		269.7 		11.3903
v -508.081 		268.682 		11.428
v -505.917 		267.968 		10.665
v -508.034 		268.9 		11.784
v -508.239 		268.9 		11.55
v -508.413 		268.9 		11.291
v -508.147 		269.135 		11.897
v -508.366 		269.135 		11.647
v -508.55 		269.135 		11.37
v -506.35 		267.9 		10.1
v -508.804 		269.382 		11.117
v -508.916 		269.382 		10.788
v -508.891 		269.7 		11.152
v -508.869 		269.639 		11.143
v -508.8741 		269.7 		11.1451
v -508.8734 		269.7 		11.1467
v -508.901 		269.7 		11.0656
v -506.096 		267.917 		9.846
v -506.065 		267.917 		9.881
v -506.039 		267.917 		9.921
v -506.018 		267.917 		9.963
v -506.35 		267.917 		9.741
v -506.303 		267.917 		9.744
v -506.257 		267.917 		9.753
v -506.213 		267.917 		9.768
v -506.171 		267.917 		9.789
v -506.132 		267.917 		9.815
v -506.709 		267.917 		10.1
v -506.706 		267.917 		10.053
v -506.697 		267.917 		10.007
v -506.682 		267.917 		10.237
v -506.697 		267.917 		10.193
v -506.706 		267.917 		10.147
v -506.604 		267.917 		9.846
v -506.569 		267.917 		9.815
v -506.529 		267.917 		9.789
v -506.487 		267.917 		9.768
v -506.443 		267.917 		9.753
v -506.397 		267.917 		9.744
v -506.682 		267.917 		9.963
v -506.661 		267.917 		9.921
v -506.635 		267.917 		9.881
# 869 vertices

g group_0_40919

usemtl color_40919
s 0

f 281 	279 	5
f 4 	5 	279
f 11 	281 	5
f 6 	11 	5
f 7 	11 	6
f 8 	285 	7
f 9 	288 	8
f 10 	289 	9
f 279 	277 	4
f 3 	4 	277
f 16 	114 	15
f 17 	114 	16
f 18 	114 	17
f 19 	114 	18
f 15 	114 	14
f 21 	22 	114
f 22 	23 	114
f 14 	114 	23
f 9 	21 	20
f 9 	20 	10
f 8 	22 	21
f 8 	21 	9
f 7 	23 	22
f 7 	22 	8
f 6 	14 	23
f 6 	23 	7
f 5 	15 	14
f 5 	14 	6
f 4 	16 	15
f 4 	15 	5
f 3 	17 	16
f 3 	16 	4
f 2 	18 	17
f 2 	17 	3
f 1 	19 	18
f 1 	18 	2
f 1 	179 	19
f 20 	24 	12
f 20 	12 	10
f 30 	299 	28
f 31 	304 	30
f 32 	305 	31
f 33 	305 	32
f 27 	28 	34
f 324 	39 	34
f 320 	318 	37
f 37 	38 	320
f 323 	320 	38
f 324 	323 	39
f 27 	34 	39
f 42 	43 	41
f 40 	41 	43
f 40 	43 	44
f 40 	44 	45
f 40 	45 	46
f 40 	46 	48
f 40 	48 	49
f 40 	49 	50
f 40 	50 	51
f 45 	27 	39
f 45 	39 	46
f 39 	38 	48
f 39 	48 	46
f 38 	37 	49
f 38 	49 	48
f 37 	36 	50
f 37 	50 	49
f 36 	35 	51
f 36 	51 	50
f 55 	57 	52
f 531 	53 	626
f 56 	807 	511
f 472 	475 	58
f 60 	71 	64
f 69 	71 	60
f 76 	77 	68
f 65 	790 	66
f 70 	79 	68
f 75 	68 	79
f 78 	70 	83
f 81 	83 	589
f 75 	76 	68
f 75 	69 	76
f 69 	77 	76
f 79 	70 	78
f 95 	74 	73
f 75 	79 	69
f 78 	71 	79
f 69 	79 	71
f 70 	589 	83
f 81 	591 	83
f 71 	78 	83
f 70 	68 	239
f 70 	239 	589
f 240 	589 	239
f 80 	817 	82
f 817 	819 	82
f 85 	84 	72
f 819 	72 	84
f 72 	73 	85
f 85 	73 	86
f 73 	74 	86
f 87 	86 	74
f 74 	88 	87
f 89 	126 	858
f 130 	92 	129
f 93 	95 	73
f 90 	97 	91
f 93 	99 	95
f 98 	99 	93
f 94 	97 	90
f 99 	100 	95
f 68 	77 	96
f 97 	69 	91
f 33 	40 	297
f 33 	32 	41
f 33 	41 	40
f 32 	31 	42
f 32 	42 	41
f 31 	30 	43
f 31 	43 	42
f 30 	28 	44
f 30 	44 	43
f 28 	27 	45
f 28 	45 	44
f 112 	231 	106
f 106 	107 	112
f 107 	108 	112
f 238 	112 	108
f 109 	239 	108
f 110 	240 	109
f 111 	242 	110
f 102 	242 	111
f 231 	229 	106
f 229 	228 	105
f 104 	105 	228
f 228 	227 	104
f 117 	20 	116
f 118 	20 	117
f 119 	20 	118
f 121 	122 	20
f 122 	123 	20
f 115 	20 	123
f 124 	20 	119
f 728 	101 	100
f 102 	114 	176
f 120 	114 	111
f 102 	111 	114
f 111 	110 	121
f 111 	121 	120
f 110 	109 	122
f 110 	122 	121
f 74 	125 	88
f 88 	126 	89
f 125 	126 	88
f 127 	858 	126
f 132 	137 	97
f 69 	97 	77
f 137 	77 	97
f 91 	69 	60
f 129 	92 	134
f 92 	231 	96
f 130 	129 	94
f 131 	74 	95
f 95 	100 	131
f 134 	96 	133
f 132 	133 	96
f 125 	74 	131
f 131 	135 	125
f 97 	133 	132
f 131 	101 	135
f 133 	97 	134
f 94 	134 	97
f 100 	101 	131
f 125 	135 	126
f 129 	134 	94
f 135 	136 	126
f 96 	137 	132
f 137 	96 	77
f 126 	136 	127
f 127 	138 	128
f 112 	238 	96
f 136 	138 	127
f 112 	96 	231
f 68 	96 	238
f 96 	134 	92
f 146 	140 	145
f 142 	135 	101
f 141 	94 	139
f 142 	136 	135
f 143 	136 	142
f 130 	147 	92
f 141 	147 	94
f 136 	143 	138
f 139 	94 	90
f 143 	144 	138
f 146 	145 	141
f 140 	92 	147
f 130 	94 	147
f 147 	145 	140
f 140 	229 	92
f 145 	147 	141
f 91 	60 	153
f 149 	264 	148
f 229 	140 	264
f 148 	264 	146
f 269 	149 	148
f 141 	139 	255
f 148 	146 	269
f 141 	269 	146
f 264 	228 	229
f 152 	153 	150
f 90 	91 	152
f 152 	91 	153
f 150 	153 	151
f 154 	161 	157
f 154 	159 	161
f 160 	164 	155
f 162 	249 	158
f 159 	163 	165
f 165 	161 	159
f 165 	346 	161
f 217 	166 	163
f 160 	249 	164
f 109 	108 	123
f 109 	123 	122
f 108 	107 	115
f 108 	115 	123
f 163 	151 	165
f 107 	106 	116
f 107 	116 	115
f 106 	105 	117
f 106 	117 	116
f 150 	151 	163
f 105 	104 	118
f 105 	118 	117
f 202 	154 	157
f 104 	103 	119
f 104 	119 	118
f 202 	157 	203
f 124 	119 	113
f 103 	113 	119
f 168 	114 	167
f 179 	180 	114
f 114 	168 	169
f 114 	169 	170
f 114 	170 	171
f 114 	171 	172
f 114 	172 	173
f 114 	173 	174
f 176 	114 	175
f 174 	175 	114
f 114 	120 	20
f 120 	121 	20
f 167 	114 	181
f 180 	181 	114
f 20 	21 	114
f 179 	114 	19
f 182 	20 	124
f 115 	116 	20
f 20 	182 	40
f 51 	184 	40
f 184 	24 	40
f 20 	40 	24
f 178 	152 	166
f 178 	90 	152
f 170 	194 	171
f 194 	172 	171
f 166 	152 	150
f 465 	139 	178
f 178 	139 	90
f 201 	180 	179
f 181 	180 	201
f 51 	313 	184
f 313 	24 	184
f 124 	113 	182
f 182 	297 	40
f 187 	204 	206
f 213 	212 	194
f 193 	194 	212
f 199 	213 	194
f 195 	199 	194
f 196 	199 	195
f 197 	216 	196
f 198 	220 	197
f 212 	210 	193
f 192 	193 	210
f 187 	206 	189
f 201 	222 	200
f 177 	202 	183
f 181 	198 	167
f 177 	188 	202
f 167 	198 	168
f 197 	168 	198
f 196 	169 	168
f 196 	168 	197
f 169 	196 	170
f 195 	170 	196
f 185 	183 	203
f 195 	194 	170
f 172 	194 	193
f 193 	192 	173
f 193 	173 	172
f 174 	173 	191
f 192 	191 	173
f 174 	191 	175
f 190 	175 	191
f 230 	398 	204
f 200 	181 	201
f 181 	200 	198
f 208 	247 	190
f 190 	246 	207
f 102 	207 	246
f 102 	246 	244
f 244 	242 	102
f 207 	176 	175
f 207 	175 	190
f 183 	202 	203
f 207 	102 	176
f 189 	206 	159
f 190 	191 	208
f 210 	208 	192
f 191 	192 	208
f 159 	206 	163
f 189 	159 	154
f 214 	204 	398
f 199 	196 	215
f 216 	197 	220
f 398 	424 	214
f 215 	196 	216
f 204 	217 	206
f 220 	198 	222
f 155 	164 	156
f 204 	214 	217
f 363 	338 	162
f 26 	47 	13
f 163 	206 	217
f 252 	253 	218
f 103 	104 	227
f 340 	25 	226
f 218 	253 	209
f 223 	113 	227
f 217 	214 	166
f 113 	103 	227
f 150 	163 	166
f 226 	225 	26
f 225 	25 	234
f 25 	29 	234
f 232 	233 	29
f 243 	328 	237
f 235 	236 	158
f 239 	109 	240
f 105 	106 	229
f 238 	108 	239
f 232 	47 	233
f 235 	160 	236
f 230 	204 	187
f 233 	47 	234
f 26 	234 	47
f 240 	110 	242
f 236 	160 	237
f 330 	237 	160
f 225 	234 	26
f 245 	232 	29
f 243 	237 	330
f 246 	190 	247
f 224 	450 	205
f 232 	245 	47
f 235 	158 	249
f 249 	162 	248
f 248 	162 	256
f 251 	209 	250
f 235 	249 	160
f 251 	250 	211
f 309 	29 	25
f 250 	209 	253
f 164 	249 	248
f 162 	247 	208
f 252 	224 	253
f 211 	253 	224
f 339 	164 	256
f 248 	256 	164
f 92 	229 	231
f 162 	158 	247
f 239 	68 	238
f 250 	253 	211
f 246 	158 	244
f 262 	261 	224
f 158 	246 	247
f 262 	252 	218
f 140 	146 	264
f 252 	262 	224
f 222 	201 	265
f 266 	271 	201
f 200 	222 	198
f 273 	271 	1
f 266 	179 	1
f 266 	201 	179
f 259 	269 	241
f 265 	201 	271
f 290 	291 	257
f 266 	1 	271
f 273 	1 	275
f 301 	302 	264
f 149 	300 	264
f 1 	2 	275
f 277 	275 	3
f 2 	3 	275
f 274 	345 	278
f 241 	269 	255
f 11 	7 	284
f 293 	289 	12
f 426 	846 	418
f 284 	7 	285
f 276 	286 	280
f 283 	286 	276
f 285 	8 	288
f 287 	268 	565
f 269 	141 	255
f 288 	9 	289
f 292 	257 	291
f 10 	12 	289
f 260 	258 	631
f 296 	254 	151
f 297 	309 	33
f 34 	28 	298
f 151 	153 	296
f 113 	297 	182
f 290 	259 	291
f 292 	291 	259
f 298 	28 	299
f 113 	309 	297
f 646 	254 	296
f 290 	257 	302
f 257 	264 	302
f 301 	264 	300
f 283 	295 	286
f 299 	30 	304
f 290 	302 	259
f 304 	31 	305
f 305 	33 	307
f 153 	60 	296
f 303 	308 	445
f 307 	33 	309
f 223 	309 	113
f 60 	64 	296
f 306 	310 	295
f 303 	330 	308
f 296 	64 	646
f 317 	330 	303
f 202 	188 	154
f 189 	154 	188
f 316 	312 	35
f 313 	312 	12
f 35 	312 	313
f 51 	35 	313
f 267 	484 	270
f 12 	24 	313
f 267 	637 	484
f 311 	336 	315
f 293 	12 	312
f 36 	37 	318
f 316 	35 	318
f 35 	36 	318
f 565 	581 	287
f 295 	319 	286
f 157 	311 	203
f 287 	325 	268
f 300 	269 	301
f 310 	319 	295
f 366 	377 	321
f 38 	39 	323
f 301 	269 	302
f 259 	302 	269
f 319 	310 	327
f 319 	327 	322
f 244 	158 	328
f 327 	643 	322
f 328 	349 	314
f 341 	342 	314
f 315 	332 	458
f 363 	162 	208
f 157 	161 	334
f 839 	205 	310
f 308 	160 	155
f 236 	237 	158
f 339 	338 	164
f 334 	311 	157
f 339 	162 	338
f 256 	162 	339
f 330 	160 	308
f 334 	336 	311
f 268 	325 	274
f 342 	343 	314
f 624 	332 	315
f 365 	164 	338
f 344 	143 	337
f 341 	317 	342
f 300 	149 	269
f 346 	334 	161
f 591 	343 	317
f 342 	317 	343
f 334 	347 	336
f 341 	314 	349
f 348 	349 	328
f 243 	348 	328
f 158 	237 	328
f 346 	347 	334
f 257 	227 	264
f 321 	340 	394
f 228 	264 	227
f 341 	349 	317
f 352 	731 	280
f 314 	242 	328
f 731 	352 	337
f 369 	208 	210
f 348 	330 	349
f 317 	349 	330
f 352 	354 	337
f 165 	151 	254
f 254 	346 	165
f 337 	354 	344
f 254 	294 	346
f 348 	243 	330
f 347 	346 	294
f 294 	221 	347
f 325 	345 	274
f 328 	242 	244
f 225 	226 	25
f 326 	443 	447
f 355 	357 	425
f 326 	447 	329
f 329 	177 	331
f 408 	392 	340
f 233 	234 	29
f 345 	26 	278
f 359 	332 	625
f 177 	329 	447
f 47 	360 	351
f 362 	282 	361
f 331 	177 	183
f 382 	383 	356
f 331 	183 	333
f 156 	164 	365
f 369 	404 	363
f 361 	287 	362
f 581 	362 	287
f 185 	335 	333
f 208 	369 	363
f 280 	368 	352
f 365 	355 	156
f 280 	286 	368
f 351 	360 	353
f 368 	372 	352
f 371 	862 	370
f 292 	388 	257
f 333 	183 	185
f 335 	185 	186
f 365 	375 	355
f 352 	372 	354
f 360 	259 	353
f 350 	335 	186
f 372 	660 	354
f 447 	188 	177
f 356 	257 	388
f 385 	406 	369
f 319 	368 	286
f 360 	388 	259
f 368 	319 	372
f 322 	372 	319
f 353 	259 	241
f 355 	375 	357
f 29 	356 	383
f 245 	29 	383
f 212 	385 	369
f 223 	356 	309
f 327 	310 	205
f 282 	321 	377
f 361 	282 	377
f 357 	386 	358
f 258 	866 	380
f 223 	257 	356
f 205 	437 	327
f 47 	245 	383
f 142 	337 	143
f 143 	344 	144
f 360 	47 	383
f 382 	360 	383
f 382 	356 	388
f 375 	386 	357
f 292 	259 	388
f 663 	374 	371
f 386 	470 	358
f 223 	227 	257
f 664 	376 	374
f 382 	388 	360
f 212 	469 	385
f 457 	311 	315
f 29 	309 	356
f 299 	321 	282
f 315 	458 	457
f 366 	325 	377
f 287 	377 	325
f 361 	377 	287
f 394 	340 	393
f 393 	340 	392
f 669 	380 	378
f 338 	363 	397
f 395 	397 	363
f 392 	345 	393
f 381 	187 	391
f 393 	345 	394
f 325 	394 	345
f 395 	365 	397
f 366 	321 	394
f 338 	397 	365
f 366 	394 	325
f 387 	402 	367
f 404 	369 	403
f 395 	363 	404
f 403 	369 	401
f 447 	391 	188
f 369 	210 	212
f 367 	402 	460
f 395 	404 	365
f 189 	188 	391
f 401 	375 	403
f 403 	375 	404
f 365 	404 	375
f 448 	155 	387
f 401 	369 	406
f 405 	406 	385
f 469 	411 	385
f 379 	230 	381
f 387 	156 	402
f 387 	155 	156
f 400 	452 	407
f 226 	408 	340
f 401 	406 	375
f 230 	187 	381
f 392 	408 	345
f 405 	386 	406
f 375 	406 	386
f 391 	187 	189
f 26 	345 	226
f 408 	226 	345
f 359 	625 	409
f 405 	385 	412
f 389 	441 	396
f 470 	386 	411
f 412 	411 	386
f 625 	415 	409
f 405 	412 	386
f 398 	230 	541
f 860 	416 	399
f 547 	421 	390
f 390 	424 	398
f 415 	417 	409
f 419 	431 	422
f 272 	270 	432
f 428 	431 	419
f 431 	620 	422
f 270 	484 	432
f 390 	421 	424
f 418 	272 	435
f 422 	620 	606
f 402 	355 	425
f 272 	432 	435
f 418 	435 	439
f 483 	438 	389
f 205 	450 	437
f 425 	357 	428
f 433 	438 	483
f 415 	434 	367
f 357 	358 	428
f 438 	441 	389
f 367 	434 	387
f 428 	358 	431
f 413 	446 	420
f 418 	439 	426
f 415 	367 	417
f 426 	439 	443
f 423 	396 	373
f 221 	219 	445
f 441 	373 	396
f 426 	443 	326
f 444 	446 	413
f 373 	384 	423
f 430 	221 	445
f 434 	430 	448
f 445 	448 	430
f 429 	364 	433
f 359 	364 	429
f 437 	450 	451
f 448 	387 	434
f 469 	212 	213
f 441 	557 	373
f 442 	517 	440
f 420 	446 	449
f 400 	467 	452
f 452 	522 	407
f 219 	303 	445
f 421 	454 	424
f 474 	469 	199
f 445 	308 	448
f 407 	522 	410
f 424 	454 	456
f 410 	523 	414
f 457 	185 	203
f 522 	523 	410
f 575 	525 	442
f 414 	524 	510
f 523 	524 	414
f 424 	456 	214
f 457 	186 	185
f 215 	485 	199
f 456 	166 	214
f 457 	458 	186
f 308 	155 	448
f 435 	432 	504
f 435 	504 	379
f 128 	471 	416
f 458 	455 	186
f 455 	458 	463
f 493 	459 	454
f 486 	452 	467
f 454 	465 	456
f 460 	462 	497
f 459 	465 	454
f 461 	478 	464
f 470 	478 	461
f 463 	429 	479
f 439 	435 	379
f 486 	570 	452
f 462 	428 	419
f 456 	178 	166
f 466 	467 	399
f 425 	428 	462
f 466 	399 	416
f 178 	456 	465
f 203 	311 	457
f 419 	422 	501
f 400 	399 	467
f 463 	458 	332
f 459 	255 	465
f 425 	460 	402
f 241 	255 	459
f 128 	138 	471
f 412 	385 	411
f 463 	332 	359
f 463 	359 	429
f 465 	255 	139
f 224 	261 	450
f 358 	470 	461
f 416 	471 	466
f 437 	451 	436
f 425 	462 	460
f 477 	466 	476
f 443 	439 	381
f 379 	381 	439
f 443 	381 	391
f 469 	474 	508
f 156 	355 	402
f 453 	481 	444
f 443 	391 	447
f 444 	481 	446
f 485 	514 	474
f 466 	477 	467
f 475 	472 	389
f 477 	486 	467
f 478 	487 	464
f 483 	389 	472
f 389 	396 	475
f 481 	491 	446
f 557 	480 	490
f 138 	144 	471
f 473 	493 	421
f 446 	491 	449
f 473 	492 	493
f 466 	471 	476
f 493 	454 	421
f 495 	551 	449
f 144 	476 	471
f 491 	495 	449
f 464 	487 	468
f 551 	495 	496
f 496 	498 	492
f 489 	484 	637
f 481 	453 	274
f 519 	520 	485
f 484 	489 	500
f 482 	479 	429
f 480 	501 	490
f 429 	433 	482
f 499 	501 	480
f 482 	433 	483
f 500 	432 	484
f 411 	469 	503
f 490 	502 	494
f 504 	432 	500
f 501 	502 	490
f 503 	470 	411
f 502 	539 	494
f 508 	474 	507
f 474 	506 	507
f 213 	199 	469
f 606 	539 	422
f 474 	199 	485
f 806 	505 	509
f 478 	507 	506
f 488 	573 	590
f 507 	478 	508
f 470 	508 	478
f 268 	274 	453
f 508 	503 	469
f 503 	508 	470
f 274 	278 	481
f 472 	56 	511
f 489 	488 	590
f 513 	485 	512
f 506 	474 	514
f 514 	485 	513
f 517 	518 	440
f 521 	261 	440
f 261 	262 	218
f 511 	483 	472
f 481 	278 	491
f 489 	534 	500
f 472 	58 	56
f 506 	514 	478
f 13 	495 	491
f 512 	487 	513
f 350 	455 	505
f 513 	487 	514
f 478 	514 	487
f 442 	515 	516
f 518 	521 	440
f 516 	517 	442
f 350 	186 	455
f 512 	485 	520
f 11 	442 	440
f 512 	520 	487
f 496 	353 	498
f 505 	455 	479
f 460 	497 	417
f 519 	487 	520
f 492 	498 	493
f 505 	479 	509
f 517 	450 	518
f 498 	459 	493
f 509 	482 	511
f 218 	440 	261
f 509 	479 	482
f 482 	483 	511
f 455 	463 	479
f 351 	496 	495
f 515 	451 	516
f 541 	230 	379
f 516 	451 	517
f 450 	517 	451
f 215 	216 	540
f 216 	220 	540
f 515 	525 	451
f 510 	527 	370
f 351 	353 	496
f 626 	468 	531
f 498 	241 	459
f 468 	542 	531
f 353 	241 	498
f 533 	55 	53
f 518 	450 	521
f 261 	521 	450
f 530 	546 	532
f 11 	440 	218
f 544 	546 	530
f 531 	533 	53
f 533 	536 	55
f 524 	527 	510
f 284 	442 	11
f 527 	538 	370
f 55 	536 	57
f 218 	281 	11
f 535 	504 	500
f 500 	534 	535
f 494 	539 	528
f 504 	535 	541
f 442 	543 	575
f 539 	544 	528
f 541 	379 	504
f 519 	485 	540
f 436 	545 	427
f 528 	544 	530
f 515 	442 	525
f 568 	323 	324
f 534 	615 	547
f 417 	367 	460
f 542 	468 	487
f 535 	534 	547
f 497 	462 	499
f 535 	390 	541
f 462 	419 	499
f 535 	547 	390
f 542 	549 	531
f 499 	419 	501
f 541 	390 	398
f 548 	588 	540
f 501 	422 	502
f 487 	519 	542
f 539 	611 	544
f 502 	422 	539
f 539 	606 	611
f 550 	438 	433
f 629 	551 	492
f 550 	433 	364
f 531 	549 	533
f 550 	552 	438
f 551 	496 	492
f 580 	576 	298
f 220 	222 	548
f 34 	576 	568
f 568 	324 	34
f 533 	555 	536
f 552 	441 	438
f 370 	538 	371
f 552 	557 	441
f 538 	663 	371
f 559 	384 	373
f 522 	452 	570
f 549 	555 	533
f 557 	559 	373
f 553 	742 	598
f 554 	384 	559
f 553 	222 	265
f 409 	364 	359
f 409 	562 	364
f 558 	577 	561
f 598 	599 	553
f 409 	417 	562
f 569 	577 	558
f 364 	562 	550
f 524 	696 	527
f 550 	564 	552
f 519 	540 	566
f 215 	540 	485
f 562 	564 	550
f 552 	564 	480
f 564 	499 	480
f 552 	480 	557
f 451 	545 	436
f 522 	571 	523
f 578 	579 	543
f 557 	490 	559
f 522 	570 	571
f 708 	427 	545
f 554 	528 	556
f 494 	528 	554
f 490 	494 	559
f 574 	575 	543
f 571 	572 	523
f 556 	530 	560
f 559 	494 	554
f 528 	530 	556
f 525 	575 	451
f 530 	532 	560
f 568 	576 	609
f 608 	609 	576
f 560 	532 	563
f 523 	572 	524
f 417 	497 	562
f 574 	545 	575
f 451 	575 	545
f 537 	567 	563
f 532 	537 	563
f 497 	564 	562
f 708 	545 	578
f 579 	578 	545
f 526 	570 	486
f 574 	543 	579
f 497 	499 	564
f 526 	529 	570
f 574 	579 	545
f 577 	581 	561
f 285 	543 	284
f 442 	284 	543
f 529 	571 	570
f 34 	298 	576
f 566 	542 	519
f 585 	646 	64
f 585 	303 	219
f 566 	540 	588
f 587 	588 	548
f 587 	548 	594
f 617 	618 	580
f 220 	548 	540
f 64 	71 	591
f 587 	549 	588
f 542 	588 	549
f 566 	588 	542
f 561 	581 	565
f 593 	553 	592
f 594 	553 	593
f 240 	242 	589
f 553 	548 	222
f 586 	582 	597
f 585 	64 	591
f 592 	555 	593
f 534 	489 	590
f 282 	362 	580
f 593 	555 	594
f 549 	594 	555
f 585 	317 	303
f 553 	594 	548
f 52 	57 	582
f 587 	594 	549
f 592 	553 	599
f 601 	568 	600
f 591 	317 	585
f 592 	599 	555
f 602 	573 	621
f 604 	589 	613
f 81 	589 	604
f 598 	555 	599
f 600 	569 	601
f 569 	662 	601
f 608 	576 	607
f 600 	568 	609
f 573 	602 	610
f 604 	591 	81
f 71 	83 	591
f 602 	627 	610
f 577 	608 	607
f 613 	589 	343
f 573 	610 	590
f 608 	577 	609
f 569 	609 	577
f 611 	614 	544
f 314 	589 	242
f 534 	590 	615
f 611 	626 	614
f 343 	591 	613
f 600 	609 	569
f 590 	610 	615
f 622 	626 	611
f 314 	343 	589
f 544 	614 	546
f 576 	580 	619
f 607 	576 	619
f 619 	580 	618
f 604 	613 	591
f 607 	619 	577
f 617 	581 	618
f 597 	582 	57
f 618 	581 	619
f 577 	619 	581
f 620 	622 	606
f 596 	413 	420
f 362 	623 	580
f 617 	580 	623
f 57 	536 	733
f 282 	580 	299
f 298 	299 	580
f 617 	623 	581
f 420 	602 	596
f 624 	315 	336
f 606 	622 	611
f 362 	581 	623
f 624 	625 	332
f 733 	597 	57
f 627 	602 	420
f 420 	449 	627
f 53 	614 	626
f 620 	431 	461
f 610 	627 	629
f 358 	461 	431
f 461 	464 	620
f 631 	258 	595
f 347 	630 	336
f 620 	464 	622
f 468 	626 	622
f 624 	336 	630
f 464 	468 	622
f 630 	633 	624
f 634 	263 	260
f 221 	630 	347
f 634 	260 	631
f 624 	633 	625
f 644 	635 	52
f 634 	637 	263
f 625 	633 	415
f 614 	53 	635
f 53 	55 	635
f 635 	55 	52
f 656 	320 	323
f 263 	637 	267
f 638 	595 	669
f 633 	630 	430
f 705 	605 	603
f 669 	680 	638
f 595 	638 	641
f 583 	642 	584
f 630 	221 	430
f 642 	583 	643
f 430 	434 	633
f 644 	537 	532
f 633 	434 	415
f 254 	646 	294
f 640 	662 	645
f 644 	532 	546
f 610 	629 	615
f 658 	662 	640
f 322 	643 	583
f 644 	647 	537
f 219 	294 	646
f 615 	473 	547
f 646 	585 	219
f 615 	629 	473
f 473 	421 	547
f 643 	327 	437
f 294 	219 	221
f 647 	628 	537
f 647 	651 	628
f 670 	671 	648
f 627 	449 	551
f 647 	582 	651
f 477 	650 	665
f 627 	551 	629
f 344 	654 	652
f 628 	651 	632
f 639 	762 	649
f 651 	653 	632
f 652 	654 	655
f 629 	492 	473
f 595 	641 	631
f 631 	641 	657
f 654 	659 	655
f 649 	658 	639
f 652 	655 	650
f 657 	634 	631
f 650 	667 	665
f 634 	488 	637
f 655 	667 	650
f 657 	488 	634
f 637 	488 	489
f 344 	354 	654
f 677 	678 	656
f 680 	612 	638
f 654 	660 	659
f 638 	616 	641
f 323 	661 	656
f 616 	638 	612
f 649 	679 	658
f 639 	658 	640
f 354 	660 	654
f 573 	488 	657
f 660 	583 	584
f 660 	584 	659
f 677 	656 	682
f 661 	682 	656
f 372 	583 	660
f 663 	664 	374
f 322 	583 	372
f 568 	601 	661
f 644 	546 	635
f 614 	635 	546
f 526 	486 	665
f 661 	323 	568
f 376 	666 	378
f 662 	569 	645
f 647 	644 	52
f 661 	685 	681
f 376 	664 	666
f 666 	669 	378
f 668 	526 	665
f 675 	666 	664
f 658 	682 	662
f 612 	706 	709
f 685 	661 	601
f 667 	668 	665
f 668 	769 	526
f 380 	595 	258
f 685 	601 	662
f 681 	685 	662
f 380 	669 	595
f 616 	709 	596
f 645 	569 	558
f 596 	709 	413
f 648 	679 	670
f 672 	648 	671
f 596 	621 	616
f 318 	648 	316
f 663 	701 	674
f 655 	673 	667
f 320 	656 	318
f 621 	596 	602
f 670 	649 	671
f 663 	674 	664
f 655 	659 	673
f 664 	674 	675
f 671 	649 	672
f 673 	676 	667
f 648 	656 	679
f 678 	679 	656
f 648 	318 	656
f 666 	680 	669
f 52 	582 	647
f 666 	675 	680
f 670 	679 	649
f 582 	586 	651
f 677 	658 	678
f 668 	667 	676
f 678 	658 	679
f 651 	586 	653
f 681 	682 	661
f 676 	784 	776
f 677 	682 	658
f 681 	662 	682
f 584 	684 	659
f 673 	659 	684
f 691 	791 	684
f 683 	632 	686
f 674 	603 	675
f 675 	605 	680
f 676 	673 	782
f 675 	603 	605
f 680 	605 	612
f 784 	676 	782
f 688 	690 	98
f 689 	698 	692
f 684 	584 	691
f 695 	698 	689
f 642 	691 	584
f 641 	616 	621
f 567 	628 	683
f 641 	621 	657
f 537 	628 	567
f 628 	632 	683
f 657 	621 	573
f 693 	695 	687
f 686 	694 	688
f 436 	427 	642
f 694 	686 	632
f 687 	695 	689
f 524 	572 	696
f 642 	427 	691
f 694 	697 	688
f 527 	696 	699
f 692 	453 	444
f 698 	453 	692
f 688 	697 	690
f 643 	436 	642
f 527 	699 	538
f 643 	437 	436
f 538 	701 	663
f 697 	700 	690
f 699 	701 	538
f 558 	561 	693
f 653 	694 	632
f 693 	561 	695
f 711 	572 	571
f 694 	703 	697
f 695 	565 	698
f 561 	565 	695
f 691 	427 	702
f 565 	268 	698
f 653 	703 	694
f 268 	453 	698
f 603 	636 	705
f 706 	612 	605
f 605 	705 	706
f 757 	674 	701
f 701 	755 	757
f 706 	718 	709
f 616 	612 	709
f 702 	427 	708
f 713 	636 	749
f 529 	711 	571
f 702 	712 	704
f 529 	736 	711
f 716 	598 	742
f 721 	723 	710
f 723 	724 	710
f 572 	714 	696
f 705 	636 	713
f 555 	750 	536
f 705 	713 	715
f 711 	714 	572
f 702 	708 	712
f 706 	705 	715
f 714 	717 	696
f 716 	750 	598
f 718 	706 	715
f 696 	717 	699
f 709 	718 	413
f 699 	717 	755
f 712 	744 	704
f 727 	687 	713
f 707 	719 	720
f 713 	689 	715
f 687 	689 	713
f 289 	710 	707
f 689 	692 	715
f 719 	708 	720
f 578 	720 	708
f 715 	692 	718
f 692 	444 	718
f 413 	718 	444
f 99 	98 	690
f 719 	707 	724
f 707 	710 	724
f 725 	99 	690
f 690 	700 	725
f 721 	712 	723
f 723 	712 	724
f 708 	724 	712
f 99 	725 	100
f 209 	277 	279
f 719 	724 	708
f 725 	728 	100
f 721 	729 	712
f 101 	731 	142
f 728 	731 	101
f 209 	279 	218
f 281 	218 	279
f 142 	731 	337
f 288 	289 	707
f 750 	733 	536
f 700 	276 	725
f 725 	276 	728
f 722 	734 	726
f 732 	734 	722
f 733 	752 	735
f 726 	737 	727
f 750 	752 	733
f 704 	744 	738
f 734 	737 	726
f 769 	736 	529
f 737 	693 	727
f 280 	731 	728
f 736 	740 	711
f 276 	280 	728
f 727 	693 	687
f 711 	740 	714
f 741 	754 	710
f 732 	730 	639
f 714 	761 	717
f 639 	730 	762
f 732 	640 	734
f 765 	759 	741
f 639 	640 	732
f 640 	645 	734
f 734 	645 	737
f 737 	558 	693
f 736 	775 	740
f 645 	558 	737
f 775 	736 	777
f 739 	738 	767
f 742 	768 	716
f 767 	738 	744
f 748 	813 	730
f 730 	732 	748
f 748 	732 	722
f 783 	722 	726
f 729 	710 	754
f 721 	710 	729
f 753 	754 	741
f 751 	773 	742
f 289 	741 	710
f 749 	747 	727
f 701 	699 	755
f 726 	727 	747
f 729 	754 	712
f 746 	563 	756
f 749 	727 	713
f 560 	563 	746
f 753 	744 	754
f 712 	754 	744
f 753 	741 	759
f 674 	757 	603
f 758 	767 	759
f 771 	772 	751
f 761 	714 	740
f 753 	759 	744
f 761 	763 	717
f 815 	762 	730
f 289 	293 	741
f 765 	741 	312
f 293 	312 	741
f 755 	717 	763
f 543 	707 	578
f 720 	578 	707
f 755 	766 	757
f 554 	743 	384
f 759 	765 	758
f 763 	766 	755
f 768 	742 	773
f 288 	707 	543
f 743 	556 	745
f 757 	766 	636
f 554 	556 	743
f 285 	288 	543
f 556 	560 	745
f 766 	749 	636
f 745 	560 	746
f 768 	750 	716
f 555 	598 	750
f 757 	636 	603
f 529 	526 	769
f 772 	773 	751
f 739 	767 	774
f 742 	265 	751
f 770 	795 	765
f 668 	676 	776
f 563 	567 	756
f 772 	771 	752
f 756 	567 	760
f 772 	752 	773
f 750 	773 	752
f 668 	776 	769
f 776 	777 	769
f 760 	683 	764
f 775 	778 	740
f 271 	751 	265
f 683 	760 	567
f 768 	773 	750
f 767 	795 	774
f 736 	769 	777
f 774 	762 	739
f 771 	751 	780
f 751 	797 	780
f 761 	740 	778
f 673 	684 	782
f 648 	672 	770
f 761 	783 	763
f 771 	780 	752
f 761 	778 	783
f 649 	762 	774
f 763 	747 	766
f 683 	686 	764
f 763 	783 	747
f 764 	686 	781
f 779 	799 	780
f 316 	648 	770
f 98 	781 	688
f 265 	742 	553
f 686 	688 	781
f 803 	770 	672
f 749 	766 	747
f 748 	778 	775
f 776 	812 	777
f 787 	788 	765
f 758 	765 	788
f 778 	722 	783
f 787 	767 	788
f 748 	722 	778
f 788 	767 	758
f 744 	759 	767
f 684 	791 	782
f 791 	796 	782
f 787 	765 	795
f 794 	795 	770
f 783 	726 	747
f 818 	779 	797
f 787 	795 	767
f 782 	796 	784
f 752 	799 	735
f 779 	780 	797
f 814 	784 	796
f 423 	801 	54
f 794 	774 	795
f 54 	801 	785
f 702 	791 	691
f 785 	805 	786
f 649 	774 	672
f 803 	672 	774
f 735 	799 	789
f 770 	803 	794
f 801 	805 	785
f 702 	704 	791
f 805 	809 	786
f 794 	803 	774
f 791 	704 	796
f 786 	809 	790
f 704 	738 	796
f 765 	312 	770
f 312 	316 	770
f 798 	333 	800
f 790 	810 	792
f 799 	811 	789
f 784 	812 	776
f 809 	810 	790
f 784 	814 	812
f 802 	800 	335
f 777 	812 	813
f 752 	780 	799
f 333 	335 	800
f 813 	775 	777
f 802 	335 	350
f 748 	775 	813
f 802 	350 	804
f 812 	815 	813
f 804 	350 	505
f 814 	815 	812
f 801 	423 	384
f 815 	730 	813
f 804 	505 	806
f 384 	743 	801
f 789 	811 	793
f 509 	807 	806
f 805 	801 	743
f 827 	808 	840
f 745 	809 	805
f 509 	511 	807
f 738 	814 	796
f 738 	739 	814
f 743 	745 	805
f 814 	739 	815
f 739 	762 	815
f 746 	810 	809
f 477 	476 	650
f 745 	746 	809
f 652 	650 	476
f 746 	756 	810
f 665 	486 	477
f 344 	652 	144
f 799 	824 	811
f 67 	792 	816
f 476 	144 	652
f 25 	307 	309
f 816 	80 	67
f 816 	817 	80
f 305 	340 	304
f 797 	824 	818
f 321 	299 	304
f 321 	304 	340
f 84 	82 	819
f 797 	751 	273
f 271 	273 	751
f 25 	340 	307
f 273 	275 	797
f 810 	820 	792
f 779 	818 	799
f 816 	792 	820
f 305 	307 	340
f 823 	824 	808
f 797 	808 	824
f 821 	823 	808
f 827 	828 	808
f 278 	13 	491
f 816 	822 	817
f 278 	26 	13
f 13 	351 	495
f 820 	822 	816
f 824 	823 	811
f 822 	825 	817
f 13 	47 	351
f 821 	811 	823
f 822 	764 	825
f 817 	825 	819
f 72 	819 	826
f 818 	824 	799
f 825 	826 	819
f 821 	808 	828
f 72 	93 	73
f 826 	93 	72
f 811 	821 	828
f 827 	811 	828
f 810 	756 	820
f 756 	760 	820
f 808 	797 	275
f 820 	760 	822
f 822 	760 	764
f 826 	825 	781
f 697 	703 	829
f 781 	825 	764
f 703 	832 	829
f 781 	98 	826
f 829 	700 	697
f 826 	98 	93
f 59 	58 	475
f 700 	283 	276
f 59 	830 	61
f 283 	700 	829
f 653 	586 	831
f 830 	59 	475
f 54 	61 	830
f 396 	830 	475
f 703 	653 	831
f 396 	423 	830
f 830 	423 	54
f 831 	832 	703
f 61 	54 	62
f 829 	833 	283
f 785 	63 	54
f 62 	54 	63
f 832 	833 	829
f 833 	295 	283
f 63 	785 	65
f 786 	65 	785
f 586 	834 	831
f 786 	790 	65
f 586 	597 	834
f 834 	835 	831
f 66 	792 	67
f 66 	790 	792
f 831 	835 	832
f 835 	836 	832
f 832 	836 	833
f 833 	306 	295
f 836 	306 	833
f 735 	597 	733
f 834 	597 	735
f 834 	789 	835
f 735 	789 	834
f 835 	793 	836
f 789 	793 	835
f 306 	836 	838
f 793 	838 	836
f 838 	839 	306
f 839 	310 	306
f 793 	811 	841
f 843 	827 	840
f 808 	275 	840
f 277 	840 	275
f 811 	827 	841
f 851 	852 	837
f 793 	841 	838
f 852 	853 	837
f 844 	840 	251
f 840 	277 	209
f 853 	854 	837
f 839 	838 	211
f 854 	845 	837
f 843 	840 	842
f 209 	251 	840
f 841 	211 	838
f 211 	224 	839
f 839 	224 	205
f 798 	800 	837
f 802 	837 	800
f 842 	841 	843
f 804 	837 	802
f 843 	841 	827
f 837 	804 	806
f 842 	840 	844
f 806 	807 	837
f 842 	844 	841
f 807 	56 	837
f 56 	58 	837
f 211 	841 	251
f 844 	251 	841
f 58 	59 	837
f 59 	61 	837
f 61 	62 	837
f 62 	63 	837
f 63 	65 	837
f 65 	66 	837
f 66 	67 	837
f 67 	80 	837
f 80 	82 	837
f 82 	84 	837
f 84 	85 	837
f 85 	86 	837
f 86 	87 	837
f 87 	88 	837
f 88 	89 	837
f 89 	858 	837
f 858 	859 	837
f 859 	860 	837
f 837 	847 	848
f 848 	798 	837
f 854 	272 	418
f 854 	418 	845
f 845 	418 	846
f 846 	326 	847
f 846 	426 	326
f 847 	326 	848
f 329 	848 	326
f 848 	329 	331
f 848 	331 	798
f 331 	333 	798
f 837 	866 	849
f 850 	837 	849
f 837 	850 	851
f 837 	845 	846
f 846 	847 	837
f 258 	849 	866
f 849 	258 	260
f 849 	260 	850
f 850 	260 	263
f 850 	263 	851
f 851 	267 	852
f 851 	263 	267
f 853 	852 	270
f 267 	270 	852
f 854 	853 	272
f 853 	270 	272
f 856 	837 	855
f 856 	857 	837
f 857 	867 	837
f 867 	868 	837
f 837 	860 	855
f 855 	399 	400
f 855 	400 	856
f 407 	856 	400
f 858 	127 	859
f 128 	859 	127
f 859 	416 	860
f 128 	416 	859
f 399 	855 	860
f 837 	868 	869
f 869 	861 	837
f 861 	862 	837
f 863 	837 	862
f 837 	863 	864
f 837 	864 	865
f 866 	837 	865
f 861 	370 	862
f 862 	374 	863
f 862 	371 	374
f 376 	864 	374
f 864 	863 	374
f 864 	376 	378
f 864 	378 	865
f 865 	380 	866
f 865 	378 	380
f 856 	407 	857
f 867 	857 	410
f 407 	410 	857
f 868 	867 	414
f 410 	414 	867
f 510 	868 	414
f 868 	510 	869
f 510 	370 	869
f 861 	869 	370
# 1734 faces

 #end of obj_0

