# Object Export From Tinkercad Server 2015

mtllib obj.mtl

o obj_0
v -506.8395 		275.8 		6.2321
v -506.35 		275.8 		6.2
v -506.35 		275.8 		9.95
v -507.3206 		275.8 		6.3278
v -507.7851 		275.8 		6.4855
v -508.225 		275.8 		6.7024
v -508.6329 		275.8 		6.9749
v -509.0017 		275.8 		7.2983
v -509.3251 		275.8 		7.6671
v -509.5976 		275.8 		8.075
v -509.8145 		275.8 		8.5149
v -509.9722 		275.8 		8.9794
v -510.0679 		275.8 		9.4605
v -510.1 		275.8 		9.95
v -510.0679 		275.8 		10.4395
v -509.9722 		275.8 		10.9206
v -509.8145 		275.8 		11.3851
v -509.5976 		275.8 		11.825
v -509.3251 		275.8 		12.2329
v -509.0017 		275.8 		12.6017
v -508.6329 		275.8 		12.9251
v -508.225 		275.8 		13.1976
v -507.7851 		275.8 		13.4145
v -507.3206 		275.8 		13.5722
v -506.8395 		275.8 		13.6679
v -506.35 		275.8 		13.7
v -505.8605 		275.8 		13.6679
v -505.3794 		275.8 		13.5722
v -504.9149 		275.8 		13.4145
v -504.475 		275.8 		13.1976
v -504.0671 		275.8 		12.9251
v -503.6983 		275.8 		12.6017
v -503.3749 		275.8 		12.2329
v -503.1024 		275.8 		11.825
v -502.8855 		275.8 		11.3851
v -502.7278 		275.8 		10.9206
v -502.6321 		275.8 		10.4395
v -502.6 		275.8 		9.95
v -502.6321 		275.8 		9.4605
v -502.7278 		275.8 		8.9794
v -502.8855 		275.8 		8.5149
v -503.1024 		275.8 		8.075
v -503.3749 		275.8 		7.6671
v -503.6983 		275.8 		7.2983
v -504.0671 		275.8 		6.9749
v -504.475 		275.8 		6.7024
v -504.9149 		275.8 		6.4855
v -505.3794 		275.8 		6.3278
v -505.8605 		275.8 		6.2321
v -506.35 		291.9 		6.2
v -506.8395 		291.9 		6.2321
v -506.35 		291.9 		9.95
v -507.3206 		291.9 		6.3278
v -507.7851 		291.9 		6.4855
v -508.225 		291.9 		6.7024
v -508.6329 		291.9 		6.9749
v -509.0017 		291.9 		7.2983
v -509.3251 		291.9 		7.6671
v -509.5976 		291.9 		8.075
v -509.8145 		291.9 		8.5149
v -509.9722 		291.9 		8.9794
v -510.0679 		291.9 		9.4605
v -510.1 		291.9 		9.95
v -510.0679 		291.9 		10.4395
v -509.9722 		291.9 		10.9206
v -509.8145 		291.9 		11.3851
v -509.5976 		291.9 		11.825
v -509.3251 		291.9 		12.2329
v -509.0017 		291.9 		12.6017
v -508.6329 		291.9 		12.9251
v -508.225 		291.9 		13.1976
v -507.7851 		291.9 		13.4145
v -507.3206 		291.9 		13.5722
v -506.8395 		291.9 		13.6679
v -506.35 		291.9 		13.7
v -505.8605 		291.9 		13.6679
v -505.3794 		291.9 		13.5722
v -504.9149 		291.9 		13.4145
v -504.475 		291.9 		13.1976
v -504.0671 		291.9 		12.9251
v -503.6983 		291.9 		12.6017
v -503.3749 		291.9 		12.2329
v -503.1024 		291.9 		11.825
v -502.8855 		291.9 		11.3851
v -502.7278 		291.9 		10.9206
v -502.6321 		291.9 		10.4395
v -502.6 		291.9 		9.95
v -502.6321 		291.9 		9.4605
v -502.7278 		291.9 		8.9794
v -502.8855 		291.9 		8.5149
v -503.1024 		291.9 		8.075
v -503.3749 		291.9 		7.6671
v -503.6983 		291.9 		7.2983
v -504.0671 		291.9 		6.9749
v -504.475 		291.9 		6.7024
v -504.9149 		291.9 		6.4855
v -505.3794 		291.9 		6.3278
v -505.8605 		291.9 		6.2321
# 98 vertices

g group_0_15708628

usemtl color_15708628
s 0

f 1 	2 	3
f 4 	1 	3
f 5 	4 	3
f 6 	5 	3
f 7 	6 	3
f 8 	7 	3
f 9 	8 	3
f 10 	9 	3
f 11 	10 	3
f 12 	11 	3
f 13 	12 	3
f 14 	13 	3
f 15 	14 	3
f 16 	15 	3
f 17 	16 	3
f 18 	17 	3
f 19 	18 	3
f 20 	19 	3
f 21 	20 	3
f 22 	21 	3
f 23 	22 	3
f 24 	23 	3
f 25 	24 	3
f 26 	25 	3
f 27 	26 	3
f 28 	27 	3
f 29 	28 	3
f 30 	29 	3
f 31 	30 	3
f 32 	31 	3
f 33 	32 	3
f 34 	33 	3
f 35 	34 	3
f 36 	35 	3
f 37 	36 	3
f 38 	37 	3
f 39 	38 	3
f 40 	39 	3
f 41 	40 	3
f 42 	41 	3
f 43 	42 	3
f 44 	43 	3
f 45 	44 	3
f 46 	45 	3
f 47 	46 	3
f 48 	47 	3
f 49 	48 	3
f 2 	49 	3
f 50 	51 	52
f 51 	53 	52
f 53 	54 	52
f 54 	55 	52
f 55 	56 	52
f 56 	57 	52
f 57 	58 	52
f 58 	59 	52
f 59 	60 	52
f 60 	61 	52
f 61 	62 	52
f 62 	63 	52
f 63 	64 	52
f 64 	65 	52
f 65 	66 	52
f 66 	67 	52
f 67 	68 	52
f 68 	69 	52
f 69 	70 	52
f 70 	71 	52
f 71 	72 	52
f 72 	73 	52
f 73 	74 	52
f 74 	75 	52
f 75 	76 	52
f 76 	77 	52
f 77 	78 	52
f 78 	79 	52
f 79 	80 	52
f 80 	81 	52
f 81 	82 	52
f 82 	83 	52
f 83 	84 	52
f 84 	85 	52
f 85 	86 	52
f 86 	87 	52
f 87 	88 	52
f 88 	89 	52
f 89 	90 	52
f 90 	91 	52
f 91 	92 	52
f 92 	93 	52
f 93 	94 	52
f 94 	95 	52
f 95 	96 	52
f 96 	97 	52
f 97 	98 	52
f 98 	50 	52
f 2 	1 	1
f 1 	4 	4
f 4 	5 	5
f 5 	6 	6
f 6 	7 	7
f 7 	8 	8
f 8 	9 	9
f 9 	10 	10
f 10 	11 	11
f 11 	12 	12
f 12 	13 	13
f 13 	14 	14
f 14 	15 	15
f 15 	16 	16
f 16 	17 	17
f 17 	18 	18
f 18 	19 	19
f 19 	20 	20
f 20 	21 	21
f 21 	22 	22
f 22 	23 	23
f 23 	24 	24
f 24 	25 	25
f 25 	26 	26
f 26 	27 	27
f 27 	28 	28
f 28 	29 	29
f 29 	30 	30
f 30 	31 	31
f 31 	32 	32
f 32 	33 	33
f 33 	34 	34
f 34 	35 	35
f 35 	36 	36
f 36 	37 	37
f 37 	38 	38
f 38 	39 	39
f 39 	40 	40
f 40 	41 	41
f 41 	42 	42
f 42 	43 	43
f 43 	44 	44
f 44 	45 	45
f 45 	46 	46
f 46 	47 	47
f 47 	48 	48
f 48 	49 	49
f 49 	2 	2
f 2 	1 	51
f 2 	51 	50
f 1 	4 	53
f 1 	53 	51
f 4 	5 	54
f 4 	54 	53
f 5 	6 	55
f 5 	55 	54
f 6 	7 	56
f 6 	56 	55
f 7 	8 	57
f 7 	57 	56
f 8 	9 	58
f 8 	58 	57
f 9 	10 	59
f 9 	59 	58
f 10 	11 	60
f 10 	60 	59
f 11 	12 	61
f 11 	61 	60
f 12 	13 	62
f 12 	62 	61
f 13 	14 	63
f 13 	63 	62
f 14 	15 	64
f 14 	64 	63
f 15 	16 	65
f 15 	65 	64
f 16 	17 	66
f 16 	66 	65
f 17 	18 	67
f 17 	67 	66
f 18 	19 	68
f 18 	68 	67
f 19 	20 	69
f 19 	69 	68
f 20 	21 	70
f 20 	70 	69
f 21 	22 	71
f 21 	71 	70
f 22 	23 	72
f 22 	72 	71
f 23 	24 	73
f 23 	73 	72
f 24 	25 	74
f 24 	74 	73
f 25 	26 	75
f 25 	75 	74
f 26 	27 	76
f 26 	76 	75
f 27 	28 	77
f 27 	77 	76
f 28 	29 	78
f 28 	78 	77
f 29 	30 	79
f 29 	79 	78
f 30 	31 	80
f 30 	80 	79
f 31 	32 	81
f 31 	81 	80
f 32 	33 	82
f 32 	82 	81
f 33 	34 	83
f 33 	83 	82
f 34 	35 	84
f 34 	84 	83
f 35 	36 	85
f 35 	85 	84
f 36 	37 	86
f 36 	86 	85
f 37 	38 	87
f 37 	87 	86
f 38 	39 	88
f 38 	88 	87
f 39 	40 	89
f 39 	89 	88
f 40 	41 	90
f 40 	90 	89
f 41 	42 	91
f 41 	91 	90
f 42 	43 	92
f 42 	92 	91
f 43 	44 	93
f 43 	93 	92
f 44 	45 	94
f 44 	94 	93
f 45 	46 	95
f 45 	95 	94
f 46 	47 	96
f 46 	96 	95
f 47 	48 	97
f 47 	97 	96
f 48 	49 	98
f 48 	98 	97
f 49 	2 	50
f 49 	50 	98
f 50 	51 	51
f 51 	53 	53
f 53 	54 	54
f 54 	55 	55
f 55 	56 	56
f 56 	57 	57
f 57 	58 	58
f 58 	59 	59
f 59 	60 	60
f 60 	61 	61
f 61 	62 	62
f 62 	63 	63
f 63 	64 	64
f 64 	65 	65
f 65 	66 	66
f 66 	67 	67
f 67 	68 	68
f 68 	69 	69
f 69 	70 	70
f 70 	71 	71
f 71 	72 	72
f 72 	73 	73
f 73 	74 	74
f 74 	75 	75
f 75 	76 	76
f 76 	77 	77
f 77 	78 	78
f 78 	79 	79
f 79 	80 	80
f 80 	81 	81
f 81 	82 	82
f 82 	83 	83
f 83 	84 	84
f 84 	85 	85
f 85 	86 	86
f 86 	87 	87
f 87 	88 	88
f 88 	89 	89
f 89 	90 	90
f 90 	91 	91
f 91 	92 	92
f 92 	93 	93
f 93 	94 	94
f 94 	95 	95
f 95 	96 	96
f 96 	97 	97
f 97 	98 	98
f 98 	50 	50
# 288 faces

 #end of obj_0

