# Object Export From Tinkercad Server 2015

mtllib obj.mtl

o obj_0
v -474.2123 		287.7 		16.9469
v -474.1463 		287.7 		19.848
v -474.1463 		279.7 		19.848
v -474.2123 		279.7 		16.9469
v -476.9139 		282.8367 		16.9204
v -476.872 		282.899 		16.9208
v -481.872 		279.7 		19.7796
v -476.8123 		283.0197 		16.9214
v -476.7794 		283.087 		16.9217
v -478.8724 		282.219 		16.9011
v -478.7452 		282.176 		16.9024
v -494.3708 		287.7 		13.6476
v -493.9357 		287.7 		13.3562
v -478.674 		282.152 		16.9031
v -484.6713 		279.7 		13.6469
v -516.4614 		283.699 		16.8846
v -516.3655 		283.086 		19.6296
v -516.3799 		283.1286 		19.6295
v -478.5417 		282.1257 		16.9044
v -482.7037 		279.7 		10.7038
v -516.4333 		283.285 		19.6292
v -516.4474 		283.49 		16.8848
v -482.7034 		279.7 		10.7003
v -516.2733 		282.898 		19.6301
v -494.8409 		287.7 		13.8784
v -516.4064 		283.285 		16.8852
v -516.2932 		282.9383 		19.63
v -478.4684 		282.111 		16.9051
v -482.8066 		279.7 		11.2171
v -475.7576 		279.7 		19.8397
v -516.3623 		283.1559 		16.8856
v -476.7363 		283.2148 		16.9221
v -475.7576 		287.7 		19.8397
v -482.9743 		279.7 		11.7122
v -476.7121 		283.286 		16.9224
v -495.3359 		287.7 		14.0468
v -481.8721 		279.7 		16.8716
v -476.6857 		283.4176 		16.9226
v -478.3342 		282.1027 		16.9064
v -516.3388 		283.086 		16.8858
v -476.6714 		283.491 		16.9227
v -495.8498 		287.7 		14.1489
v -487.1945 		279.7 		14.1489
v -516.1563 		282.724 		19.6307
v -516.2791 		282.964 		16.8864
v -486.672 		279.7 		14.183
v -516.1814 		282.7613 		19.6305
v -516.2464 		282.898 		16.8868
v -496.3725 		287.7 		14.1838
v -487.7078 		279.7 		14.047
v -481.8721 		287.7 		16.8716
v -481.872 		287.7 		19.7796
v -476.6631 		283.6259 		16.9228
v -476.658 		283.701 		16.9229
v -497.9034 		287.7 		13.879
v -478.2594 		282.0977 		16.9071
v -488.2039 		279.7 		13.8783
v -476.6664 		283.8352 		16.9228
v -498.3734 		287.7 		13.6467
v -476.6714 		283.91 		16.9227
v -478.1252 		282.106 		16.9085
v -478.05 		282.111 		16.9092
v -488.673 		279.7 		13.647
v -498.8084 		287.7 		13.3561
v -477.0168 		282.725 		19.8273
v -516.0193 		284.833 		19.6314
v -515.9857 		284.8625 		19.6316
v -499.2024 		287.7 		13.0112
v -489.1089 		279.7 		13.3564
v -476.7124 		284.115 		16.9224
v -476.9254 		282.862 		19.8282
v -499.5476 		287.7 		12.6171
v -516.1705 		282.7851 		16.8875
v -516.1573 		284.675 		19.6307
v -476.7561 		284.2428 		16.9219
v -489.502 		279.7 		13.0115
v -476.78 		284.314 		16.9217
v -499.8381 		287.7 		12.182
v -476.8391 		284.4347 		16.9211
v -476.8724 		284.502 		16.9208
v -516.1294 		282.724 		16.8879
v -516.2736 		284.501 		19.6301
v -500.0699 		287.7 		11.7128
v -476.9006 		282.899 		19.8284
v -489.8471 		279.7 		12.6174
v -516.2485 		284.5383 		19.6302
v -477.9184 		282.1373 		16.9105
v -477.845 		282.152 		16.9112
v -516.3663 		284.313 		19.6296
v -516.3466 		284.3533 		19.6297
v -490.1386 		279.7 		12.1822
v -476.8273 		283.0471 		19.8292
v -476.8077 		283.087 		19.8294
v -492.4041 		287.7 		10.7035
v -492.4039 		287.7 		10.7001
v -476.9475 		284.6137 		16.92
v -490.3704 		279.7 		11.7121
v -492.5061 		287.7 		11.2168
v -516.4335 		284.114 		19.6292
v -516.419 		284.1566 		19.6293
v -515.9373 		284.8815 		16.8898
v -477.7172 		282.1957 		16.9125
v -485.1404 		279.7 		13.8787
v -516.4743 		283.909 		19.629
v -500.2383 		287.7 		11.2168
v -516.4658 		283.9529 		19.6291
v -515.9924 		284.833 		16.8892
v -476.755 		283.2437 		19.8299
v -500.3403 		287.7 		10.703
v -477.646 		282.22 		16.9132
v -479.4417 		282.6226 		16.8955
v -485.6364 		279.7 		14.0471
v -479.3924 		282.566 		16.896
v -500.3405 		287.7 		10.7006
v -476.7405 		283.286 		19.83
v -501.1719 		279.7 		19.7082
v -479.2915 		282.4774 		16.897
v -486.1493 		279.7 		14.1492
v -479.235 		282.428 		16.8976
v -477.5253 		282.2797 		16.9144
v -476.7082 		283.4474 		19.8303
v -501.1724 		279.7 		10.7005
v -501.1724 		287.7 		10.7005
v -476.6998 		283.491 		19.8304
v -516.4883 		283.699 		19.629
v -501.1724 		287.7 		10.7007
v -501.1724 		279.7 		10.7007
v -516.1304 		284.675 		16.8879
v -518.7489 		287.7 		19.6173
v -518.8116 		287.7 		16.8615
v -518.8116 		279.7 		16.8615
v -518.7489 		279.7 		19.6173
v -490.5378 		279.7 		11.2171
v -516.2057 		284.5621 		16.8872
v -477.458 		282.3127 		16.915
v -490.6409 		279.7 		10.7033
v -479.1226 		282.3535 		16.8987
v -513.781 		282.5185 		16.911
v -479.0603 		282.312 		16.8993
v -513.7255 		282.567 		16.9115
v -516.2468 		284.501 		16.8867
v -477.3463 		282.3871 		16.9161
v -490.6411 		279.7 		10.7
v -477.284 		282.429 		16.9167
v -516.3071 		284.3791 		16.8862
v -516.3394 		284.313 		16.8858
v -513.5875 		282.725 		16.9129
v -476.6895 		283.6564 		19.8305
v -513.5116 		282.8379 		16.9136
v -513.4708 		282.899 		16.914
v -476.6866 		283.701 		19.8306
v -483.2056 		287.7 		12.1822
v -476.6968 		283.8656 		19.8304
v -476.6998 		283.91 		19.8304
v -477.1826 		282.5176 		16.9177
v -513.7862 		282.5374 		19.6429
v -483.4972 		287.7 		12.6172
v -477.1264 		282.567 		16.9183
v -513.4111 		283.021 		16.9146
v -513.3785 		283.087 		16.9149
v -516.3829 		284.1839 		16.8854
v -483.8421 		287.7 		13.0113
v -513.3344 		283.2161 		16.9154
v -513.3108 		283.286 		16.9156
v -513.7523 		282.567 		19.6431
v -484.2352 		287.7 		13.3564
v -516.4068 		284.114 		16.8852
v -484.6713 		287.7 		13.6469
v -516.4334 		283.981 		16.8849
v -476.7408 		284.115 		19.83
v -513.2849 		283.419 		16.9159
v -516.4474 		283.909 		16.8848
v -513.2705 		283.491 		16.916
v -513.6143 		282.725 		19.6438
v -476.7943 		284.2717 		19.8295
v -482.7037 		287.7 		10.7038
v -482.7034 		287.7 		10.7003
v -476.9884 		282.725 		16.9196
v -513.2565 		283.701 		16.9161
v -482.8066 		287.7 		11.2171
v -476.8085 		284.314 		19.8293
v -513.5224 		282.8616 		19.6443
v -513.4975 		282.899 		19.6444
v -513.2705 		283.91 		16.916
v -482.9743 		287.7 		11.7122
v -476.881 		284.462 		19.8286
v -476.9007 		284.502 		19.8284
v -513.3115 		284.115 		16.9156
v -510.8719 		287.7 		10.7002
v -510.8719 		279.7 		10.7002
v -487.1945 		287.7 		14.1489
v -486.672 		287.7 		14.183
v -513.3785 		284.314 		16.9149
v -513.4252 		283.0466 		19.6448
v -476.989 		284.676 		16.9196
v -510.8722 		279.7 		16.9396
v -510.8722 		287.7 		16.9396
v -513.4388 		284.4359 		16.9143
v -513.4715 		284.502 		16.914
v -487.7078 		287.7 		14.047
v -476.9929 		284.639 		19.8275
v -513.5467 		284.6149 		16.9133
v -513.5878 		284.676 		16.9129
v -502.2743 		287.7 		11.7124
v -477.0777 		284.7775 		16.9188
v -513.4052 		283.087 		19.6449
v -488.2039 		287.7 		13.8783
v -502.5065 		287.7 		12.1824
v -477.1274 		284.834 		16.9183
v -477.0176 		284.676 		19.8273
v -513.3519 		283.2433 		19.6452
v -513.3375 		283.286 		19.6453
v -502.7971 		287.7 		12.6174
v -488.673 		287.7 		13.647
v -513.678 		284.7785 		16.912
v -513.7265 		284.834 		16.9115
v -503.1421 		287.7 		13.0114
v -513.8283 		284.9235 		16.9105
v -489.1089 		287.7 		13.3564
v -477.2288 		284.9226 		16.9173
v -503.5361 		287.7 		13.3566
v -489.502 		287.7 		13.0115
v -503.9713 		287.7 		13.6471
v -489.8471 		287.7 		12.6174
v -504.4404 		287.7 		13.8789
v -477.285 		284.972 		16.9167
v -479.45 		282.5996 		19.8034
v -513.306 		283.447 		19.6454
v -504.9364 		287.7 		14.0473
v -515.9914 		282.566 		16.8893
v -490.1386 		287.7 		12.1822
v -477.3967 		285.0465 		16.9156
v -505.4503 		287.7 		14.1493
v -477.4594 		285.088 		16.915
v -490.3704 		287.7 		11.7121
v -513.2973 		283.491 		19.6455
v -515.8889 		282.4765 		16.8903
v -515.8338 		282.428 		16.8908
v -505.9719 		287.7 		14.1832
v -479.4207 		282.566 		19.8037
v -506.4944 		287.7 		14.1491
v -485.1404 		287.7 		13.8787
v -515.7209 		282.3528 		16.8919
v -513.2833 		283.701 		19.6455
v -515.6594 		282.312 		16.8925
v -507.0077 		287.7 		14.0471
v -507.5038 		287.7 		13.8784
v -479.2971 		282.4573 		19.8049
v -485.6364 		287.7 		14.0471
v -479.2635 		282.428 		19.8052
v -507.9739 		287.7 		13.6472
v -486.1493 		287.7 		14.1492
v -508.4089 		287.7 		13.3566
v -513.2973 		283.91 		19.6455
v -515.4714 		282.219 		16.8944
v -508.8019 		287.7 		13.0106
v -477.5801 		285.1477 		16.9138
v -509.1481 		287.7 		12.6175
v -513.3382 		284.115 		19.6453
v -490.5378 		287.7 		11.2171
v -509.4386 		287.7 		12.1824
v -515.3424 		282.1755 		16.8956
v -515.2728 		282.152 		16.8963
v -477.6474 		285.181 		16.9132
v -490.6409 		287.7 		10.7033
v -515.1398 		282.1254 		16.8976
v -515.0675 		282.111 		16.8983
v -513.4052 		284.314 		19.6449
v -479.1257 		282.3366 		19.8066
v -490.6411 		287.7 		10.7
v -477.7751 		285.224 		16.9119
v -487.0903 		279.7 		19.7811
v -487.0903 		287.7 		19.7811
v -509.6704 		287.7 		11.7123
v -492.6748 		287.7 		11.7129
v -513.4783 		284.4616 		19.6445
v -479.0887 		282.312 		19.8069
v -492.906 		287.7 		12.1819
v -514.9319 		282.1026 		16.8997
v -514.8584 		282.0977 		16.9004
v -502.0034 		287.7 		10.7004
v -502.0036 		287.7 		10.7029
v -493.1967 		287.7 		12.6179
v -514.7229 		282.1061 		16.9017
v -478.9007 		282.219 		19.8088
v -514.6495 		282.111 		16.9024
v -513.4983 		284.502 		19.6444
v -502.1066 		287.7 		11.2172
v -477.846 		285.248 		16.9112
v -477.9777 		285.2743 		16.9099
v -513.5893 		284.6386 		19.644
v -509.8388 		287.7 		11.2173
v -514.5158 		282.1376 		16.9038
v -513.6145 		284.676 		19.6438
v -514.4435 		282.152 		16.9045
v -478.0514 		285.289 		16.9092
v -509.9408 		287.7 		10.7034
v -509.941 		287.7 		10.7002
v -478.7448 		282.1662 		19.8103
v -478.7025 		282.152 		19.8107
v -514.3144 		282.1961 		16.9057
v -514.2448 		282.22 		16.9064
v -478.1855 		285.298 		16.9079
v -478.2604 		285.3026 		16.9071
v -513.7236 		284.8001 		19.6433
v -514.1235 		282.2803 		16.9076
v -514.0575 		282.3127 		16.9083
v -478.5403 		282.1197 		19.8123
v -513.9439 		282.3879 		16.9094
v -513.8828 		282.429 		16.91
v -513.7533 		284.834 		19.6431
v -496.895 		287.7 		14.1496
v -478.4967 		282.111 		19.8128
v -502.2743 		279.7 		11.7124
v -513.8766 		284.9424 		19.6425
v -478.3952 		285.2936 		16.9058
v -478.47 		285.289 		16.9051
v -497.4082 		287.7 		14.0467
v -502.5065 		279.7 		12.1824
v -478.3321 		282.1008 		19.8144
v -502.7971 		279.7 		12.6174
v -478.6016 		285.2627 		16.9038
v -478.6753 		285.248 		16.9031
v -493.5416 		287.7 		13.011
v -513.8838 		284.972 		16.91
v -478.8032 		285.2043 		16.9018
v -478.874 		285.18 		16.9011
v -513.9974 		285.0472 		16.9089
v -503.1421 		279.7 		13.0114
v -514.0585 		285.088 		16.9083
v -478.2877 		282.0978 		19.8148
v -503.5361 		279.7 		13.3566
v -503.9713 		279.7 		13.6471
v -478.9947 		285.1209 		16.8999
v -514.1804 		285.1483 		16.9071
v -514.2465 		285.181 		16.9064
v -516.0183 		282.566 		19.6314
v -478.1231 		282.108 		19.8164
v -504.4404 		279.7 		13.8789
v -478.0785 		282.111 		19.8169
v -514.3749 		285.2245 		16.9051
v -514.4445 		285.248 		16.9045
v -504.9364 		279.7 		14.0473
v -515.8942 		282.4576 		19.632
v -505.4503 		279.7 		14.1493
v -479.8483 		283.49 		16.8915
v -514.5781 		285.2746 		16.9032
v -514.6505 		285.289 		16.9024
v -515.8605 		282.428 		19.6322
v -506.4944 		279.7 		14.1491
v -505.9719 		279.7 		14.1832
v -479.8073 		283.285 		16.8919
v -514.786 		285.2981 		16.9011
v -507.0077 		279.7 		14.0471
v -514.8595 		285.3026 		16.9004
v -479.7643 		283.1572 		16.8924
v -479.74 		283.086 		16.8926
v -515.7238 		282.3369 		19.6329
v -507.5038 		279.7 		13.8784
v -515.6863 		282.312 		19.6331
v -477.9171 		282.1433 		19.8185
v -477.8735 		282.152 		19.8189
v -507.9739 		279.7 		13.6472
v -500.4428 		287.7 		14.1127
v -514.995 		285.2936 		16.899
v -508.4089 		279.7 		13.3566
v -515.0685 		285.289 		16.8983
v -479.6803 		282.9653 		16.8932
v -508.8019 		279.7 		13.0106
v -479.6474 		282.898 		16.8935
v -515.2021 		285.2624 		16.897
v -477.7168 		282.2055 		19.8204
v -509.1481 		279.7 		12.6175
v -479.5728 		282.7863 		16.8942
v -515.2745 		285.248 		16.8963
v -479.531 		282.724 		16.8946
v -509.4386 		279.7 		12.1824
v -515.4983 		282.219 		19.6341
v -515.4724 		285.18 		16.8944
v -477.6745 		282.22 		19.8208
v -515.5944 		285.1203 		16.8932
v -515.6604 		285.0876 		16.8925
v -515.3419 		282.1664 		19.6349
v -509.6704 		279.7 		11.7123
v -477.5265 		282.2932 		19.8223
v -515.7733 		285.0118 		16.8914
v -502.0036 		279.7 		10.7029
v -515.2995 		282.152 		19.6351
v -515.8348 		284.971 		16.8908
v -502.0034 		279.7 		10.7004
v -479.6065 		284.5633 		16.8939
v -502.1066 		279.7 		11.2172
v -479.648 		284.501 		16.8935
v -515.1385 		282.1198 		19.6359
v -515.0943 		282.111 		19.6362
v -477.4865 		282.3128 		19.8227
v -509.8388 		279.7 		11.2173
v -491.5719 		287.7 		10.7
v -509.9408 		279.7 		10.7034
v -492.6748 		279.7 		11.7129
v -479.7071 		284.3803 		16.8929
v -479.7403 		284.313 		16.8926
v -509.941 		279.7 		10.7002
v -477.3495 		282.4041 		19.824
v -477.3125 		282.429 		19.8244
v -492.906 		279.7 		12.1819
v -479.784 		284.1852 		16.8922
v -479.808 		284.114 		16.8919
v -493.1967 		279.7 		12.6179
v -514.9301 		282.1008 		19.637
v -496.895 		279.7 		14.1496
v -496.3725 		279.7 		14.1838
v -479.849 		283.909 		16.8915
v -477.1881 		282.5377 		19.8256
v -497.4082 		279.7 		14.0467
v -477.1548 		282.567 		19.826
v -514.8853 		282.0978 		19.6372
v -479.8623 		283.699 		16.8914
v -514.7211 		282.108 		19.6381
v -514.6763 		282.111 		19.6383
v -493.5416 		279.7 		13.011
v -493.9357 		279.7 		13.3562
v -479.8573 		283.7741 		16.8914
v -494.3708 		279.7 		13.6476
v -494.8409 		279.7 		13.8784
v -479.062 		285.0876 		16.8993
v -495.3359 		279.7 		14.0468
v -495.8498 		279.7 		14.1489
v -479.1737 		285.0125 		16.8982
v -479.236 		284.971 		16.8975
v -514.5145 		282.1432 		19.6392
v -514.4703 		282.152 		19.6394
v -497.9034 		279.7 		13.879
v -479.3368 		284.8824 		16.8966
v -479.3933 		284.833 		16.896
v -498.3734 		279.7 		13.6467
v -479.5313 		284.675 		16.8946
v -498.8084 		279.7 		13.3561
v -514.314 		282.2054 		19.6402
v -499.2024 		279.7 		13.0112
v -514.2715 		282.22 		19.6404
v -499.5476 		279.7 		12.6171
v -499.8381 		279.7 		12.182
v -477.1262 		284.8004 		19.8262
v -477.1557 		284.834 		19.8259
v -500.0699 		279.7 		11.7128
v -514.1246 		282.293 		19.6412
v -492.4041 		279.7 		10.7035
v -492.4039 		279.7 		10.7001
v -492.5061 		279.7 		11.2168
v -514.0843 		282.3128 		19.6414
v -477.2802 		284.9427 		19.8247
v -513.9468 		282.4039 		19.6421
v -513.9095 		282.429 		19.6423
v -500.2383 		279.7 		11.2168
v -500.3403 		279.7 		10.703
v -500.3405 		279.7 		10.7006
v -477.3135 		284.972 		19.8244
v -477.4505 		285.0634 		19.823
v -477.4878 		285.088 		19.8227
v -491.5719 		279.7 		10.7
v -513.9105 		284.972 		19.6423
v -514.0479 		285.0631 		19.6416
v -477.6358 		285.1612 		19.8212
v -514.0853 		285.088 		19.6414
v -514.2329 		285.161 		19.6406
v -477.6758 		285.181 		19.8208
v -477.8324 		285.2338 		19.8193
v -514.2733 		285.181 		19.6404
v -514.4288 		285.2336 		19.6396
v -514.4713 		285.248 		19.6394
v -477.8745 		285.248 		19.8189
v -478.036 		285.2803 		19.8173
v -478.0797 		285.289 		19.8169
v -514.6331 		285.2802 		19.6386
v -514.6773 		285.289 		19.6383
v -514.8415 		285.3 		19.6375
v -514.8863 		285.3028 		19.6373
v -478.2443 		285.3 		19.8152
v -478.2887 		285.3028 		19.8148
v -481.8725 		279.7 		10.7003
v -481.8725 		287.7 		10.7003
v -515.0505 		285.2918 		19.6364
v -481.872 		287.7 		19.7807
v -481.872 		279.7 		19.7807
v -515.0953 		285.289 		19.6362
v -478.4541 		285.2917 		19.8132
v -515.2571 		285.2568 		19.6353
v -478.4985 		285.289 		19.8127
v -478.6599 		285.2567 		19.8112
v -515.3013 		285.248 		19.6351
v -515.4993 		285.18 		19.6341
v -478.7037 		285.248 		19.8107
v -515.647 		285.1077 		19.6333
v -515.6873 		285.0878 		19.6331
v -478.8604 		285.1945 		19.8092
v -478.9025 		285.18 		19.8088
v -515.824 		284.9959 		19.6324
v -515.8615 		284.971 		19.6322
v -479.0505 		285.1075 		19.8073
v -516.4743 		283.49 		19.629
v -479.8767 		283.49 		19.7992
v -479.8357 		283.285 		19.7996
v -479.783 		283.1283 		19.8001
v -479.7685 		283.086 		19.8003
v -479.6952 		282.938 		19.801
v -483.2056 		279.7 		12.1822
v -479.6757 		282.898 		19.8012
v -483.4972 		279.7 		12.6172
v -483.8421 		279.7 		13.0113
v -479.5843 		282.761 		19.8021
v -479.5595 		282.724 		19.8023
v -484.2352 		279.7 		13.3564
v -479.0905 		285.0878 		19.8069
v -479.2275 		284.9957 		19.8056
v -479.2645 		284.971 		19.8052
v -479.3881 		284.8623 		19.804
v -479.4217 		284.833 		19.8037
v -479.5597 		284.675 		19.8023
v -479.6519 		284.538 		19.8014
v -479.6765 		284.501 		19.8012
v -479.749 		284.353 		19.8005
v -479.7687 		284.313 		19.8003
v -479.8223 		284.1563 		19.7997
v -479.8365 		284.114 		19.7996
v -479.8775 		283.909 		19.7992
v -479.8877 		283.7436 		19.7991
v -479.8907 		283.699 		19.7991
# 528 vertices

g group_0_13165757

usemtl color_13165757
s 0

f 1 	2 	3
f 1 	3 	4
f 380 	372 	30
f 340 	338 	30
f 7 	30 	313
f 300 	299 	7
f 12 	13 	422
f 14 	300 	19
f 9 	4 	8
f 8 	4 	6
f 5 	4 	178
f 21 	132 	18
f 29 	180 	20
f 34 	180 	29
f 32 	4 	9
f 7 	37 	30
f 4 	30 	37
f 132 	27 	17
f 17 	18 	132
f 4 	3 	30
f 38 	4 	35
f 35 	4 	32
f 51 	52 	33
f 51 	33 	1
f 24 	132 	47
f 24 	27 	132
f 50 	200 	43
f 2 	1 	33
f 41 	4 	38
f 57 	200 	50
f 436 	59 	55
f 33 	30 	3
f 33 	3 	2
f 64 	59 	436
f 54 	4 	53
f 60 	1 	58
f 66 	67 	129
f 77 	1 	75
f 75 	1 	70
f 70 	1 	60
f 76 	222 	69
f 74 	66 	129
f 85 	222 	76
f 79 	1 	77
f 80 	1 	79
f 97 	235 	91
f 100 	89 	129
f 89 	90 	129
f 82 	129 	90
f 88 	362 	102
f 195 	1 	96
f 80 	96 	1
f 102 	372 	110
f 129 	106 	99
f 99 	100 	129
f 112 	242 	103
f 122 	123 	126
f 122 	126 	127
f 44 	47 	132
f 125 	104 	129
f 104 	106 	129
f 131 	129 	130
f 117 	37 	113
f 119 	37 	117
f 129 	131 	132
f 235 	97 	133
f 82 	86 	129
f 86 	74 	129
f 486 	483 	129
f 476 	475 	129
f 483 	478 	129
f 139 	37 	137
f 501 	125 	132
f 147 	196 	140
f 133 	260 	235
f 417 	410 	132
f 136 	260 	133
f 270 	136 	143
f 149 	196 	147
f 11 	37 	10
f 14 	37 	11
f 137 	37 	119
f 160 	196 	159
f 150 	196 	149
f 28 	37 	19
f 14 	19 	37
f 157 	510 	162
f 166 	162 	510
f 163 	196 	160
f 139 	10 	37
f 37 	28 	39
f 37 	39 	56
f 15 	168 	166
f 103 	242 	15
f 173 	179 	196
f 171 	173 	196
f 164 	196 	163
f 23 	20 	176
f 23 	176 	177
f 61 	4 	56
f 176 	20 	180
f 34 	185 	180
f 188 	197 	184
f 71 	5 	65
f 189 	190 	196
f 192 	46 	191
f 43 	191 	46
f 193 	197 	188
f 179 	184 	197
f 189 	196 	197
f 199 	197 	198
f 110 	4 	102
f 88 	4 	87
f 200 	191 	43
f 135 	4 	120
f 120 	4 	110
f 102 	4 	88
f 364 	78 	208
f 198 	197 	193
f 57 	207 	200
f 213 	364 	208
f 63 	214 	207
f 63 	207 	57
f 216 	197 	215
f 203 	197 	202
f 144 	4 	142
f 214 	63 	219
f 69 	219 	63
f 221 	364 	217
f 222 	219 	69
f 155 	4 	144
f 158 	4 	155
f 142 	4 	135
f 223 	364 	221
f 225 	364 	223
f 217 	364 	213
f 218 	197 	216
f 203 	215 	197
f 85 	224 	222
f 220 	452 	226
f 81 	230 	131
f 91 	231 	224
f 91 	224 	85
f 273 	364 	229
f 235 	231 	91
f 238 	131 	237
f 230 	237 	131
f 168 	15 	242
f 178 	4 	158
f 6 	4 	5
f 112 	249 	242
f 243 	131 	238
f 245 	131 	243
f 118 	252 	249
f 118 	249 	112
f 255 	131 	245
f 46 	192 	118
f 252 	118 	192
f 253 	197 	251
f 209 	1 	205
f 263 	131 	262
f 262 	131 	255
f 258 	197 	256
f 136 	265 	260
f 226 	1 	220
f 209 	220 	1
f 195 	205 	1
f 265 	136 	270
f 269 	137 	250
f 273 	116 	272
f 266 	131 	263
f 277 	139 	269
f 1 	226 	232
f 234 	1 	232
f 267 	131 	266
f 196 	131 	280
f 288 	126 	282
f 282 	126 	281
f 271 	468 	289
f 257 	1 	234
f 264 	1 	257
f 78 	83 	208
f 297 	189 	292
f 1 	264 	271
f 274 	292 	189
f 298 	189 	297
f 293 	196 	286
f 300 	14 	299
f 289 	472 	290
f 296 	303 	1
f 289 	1 	271
f 299 	11 	285
f 10 	285 	11
f 225 	229 	364
f 239 	197 	233
f 229 	233 	273
f 241 	197 	239
f 246 	197 	241
f 247 	197 	246
f 251 	197 	247
f 256 	197 	253
f 261 	197 	258
f 261 	274 	197
f 189 	197 	274
f 273 	233 	197
f 302 	196 	301
f 307 	196 	306
f 295 	301 	196
f 19 	300 	308
f 480 	304 	479
f 303 	479 	304
f 51 	1 	304
f 303 	304 	1
f 289 	290 	1
f 283 	324 	222
f 83 	105 	204
f 123 	281 	126
f 309 	196 	307
f 310 	196 	309
f 306 	196 	302
f 313 	28 	308
f 19 	308 	28
f 296 	474 	303
f 140 	196 	138
f 310 	138 	196
f 28 	313 	39
f 304 	480 	316
f 13 	273 	324
f 218 	325 	197
f 320 	39 	313
f 219 	222 	324
f 25 	273 	12
f 330 	197 	328
f 325 	328 	197
f 36 	273 	25
f 12 	273 	13
f 331 	56 	320
f 39 	320 	56
f 327 	51 	326
f 323 	51 	322
f 317 	489 	322
f 42 	273 	36
f 335 	197 	330
f 336 	197 	335
f 219 	324 	273
f 49 	273 	42
f 329 	116 	332
f 61 	338 	62
f 340 	62 	338
f 334 	51 	327
f 323 	326 	51
f 59 	364 	55
f 493 	323 	490
f 322 	490 	323
f 332 	116 	333
f 342 	197 	341
f 197 	336 	341
f 64 	364 	59
f 343 	116 	345
f 68 	364 	64
f 318 	55 	364
f 326 	496 	327
f 347 	197 	342
f 348 	197 	347
f 61 	56 	331
f 338 	61 	331
f 72 	364 	68
f 78 	364 	72
f 360 	245 	358
f 204 	208 	83
f 87 	361 	88
f 362 	88 	361
f 130 	197 	355
f 353 	355 	197
f 238 	349 	243
f 62 	340 	87
f 361 	87 	340
f 98 	398 	94
f 95 	94 	398
f 368 	37 	357
f 356 	37 	352
f 366 	363 	196
f 367 	130 	365
f 372 	102 	362
f 275 	235 	98
f 377 	373 	196
f 369 	196 	373
f 110 	372 	380
f 374 	37 	370
f 376 	111 	37
f 109 	126 	105
f 288 	204 	105
f 500 	334 	497
f 327 	497 	334
f 126 	288 	105
f 126 	109 	114
f 381 	130 	379
f 382 	130 	381
f 379 	130 	375
f 385 	120 	380
f 110 	380 	120
f 384 	377 	196
f 368 	370 	37
f 113 	37 	111
f 374 	376 	37
f 389 	130 	386
f 386 	130 	382
f 387 	390 	127
f 122 	127 	390
f 273 	49 	312
f 364 	273 	318
f 312 	318 	273
f 346 	502 	352
f 392 	387 	127
f 393 	51 	391
f 120 	385 	135
f 396 	135 	385
f 273 	214 	219
f 384 	190 	397
f 402 	51 	401
f 393 	401 	51
f 142 	404 	144
f 405 	144 	404
f 399 	397 	190
f 503 	356 	352
f 404 	142 	396
f 135 	396 	142
f 403 	399 	190
f 384 	196 	190
f 407 	51 	402
f 408 	51 	407
f 406 	91 	409
f 40 	131 	31
f 31 	131 	26
f 410 	279 	395
f 413 	51 	408
f 369 	366 	196
f 359 	196 	363
f 116 	196 	350
f 354 	350 	196
f 351 	116 	350
f 345 	116 	351
f 359 	354 	196
f 125 	501 	16
f 22 	16 	501
f 412 	116 	411
f 279 	410 	280
f 417 	280 	410
f 155 	414 	158
f 416 	158 	414
f 45 	131 	40
f 48 	131 	45
f 339 	116 	343
f 333 	116 	339
f 116 	329 	321
f 127 	455 	392
f 314 	392 	455
f 455 	446 	314
f 319 	314 	446
f 51 	418 	37
f 346 	352 	37
f 356 	357 	37
f 26 	22 	21
f 501 	21 	22
f 511 	376 	374
f 144 	405 	155
f 414 	155 	405
f 73 	131 	48
f 81 	131 	73
f 22 	26 	131
f 409 	272 	421
f 422 	421 	272
f 418 	51 	423
f 413 	423 	51
f 370 	508 	374
f 26 	21 	31
f 18 	31 	21
f 424 	422 	272
f 425 	424 	272
f 427 	425 	272
f 116 	428 	272
f 31 	18 	40
f 17 	40 	18
f 430 	51 	429
f 426 	429 	51
f 334 	426 	51
f 427 	272 	428
f 123 	390 	281
f 158 	416 	178
f 65 	178 	416
f 107 	130 	101
f 512 	111 	376
f 434 	51 	430
f 27 	48 	45
f 128 	130 	107
f 389 	101 	130
f 190 	189 	403
f 298 	403 	189
f 415 	116 	433
f 390 	123 	122
f 436 	433 	116
f 521 	393 	520
f 391 	520 	393
f 141 	130 	134
f 45 	17 	27
f 302 	439 	441
f 391 	51 	437
f 435 	437 	51
f 434 	435 	51
f 436 	116 	438
f 520 	391 	519
f 204 	314 	319
f 134 	130 	128
f 440 	116 	442
f 316 	51 	304
f 317 	51 	316
f 317 	322 	51
f 290 	296 	1
f 205 	444 	209
f 445 	209 	444
f 17 	45 	40
f 393 	521 	401
f 522 	401 	521
f 146 	130 	145
f 167 	130 	161
f 161 	130 	146
f 443 	442 	319
f 321 	319 	442
f 329 	217 	321
f 447 	306 	441
f 346 	37 	418
f 523 	402 	522
f 401 	522 	402
f 444 	205 	210
f 195 	210 	205
f 332 	217 	329
f 449 	461 	448
f 450 	448 	461
f 169 	130 	167
f 172 	130 	169
f 141 	145 	130
f 44 	81 	47
f 461 	133 	450
f 62 	4 	61
f 87 	4 	62
f 37 	56 	4
f 407 	524 	408
f 310 	453 	454
f 209 	445 	220
f 452 	220 	445
f 41 	53 	4
f 58 	1 	54
f 4 	54 	1
f 16 	130 	172
f 22 	131 	16
f 457 	456 	127
f 343 	229 	339
f 458 	226 	452
f 456 	455 	127
f 446 	443 	319
f 229 	343 	345
f 355 	365 	130
f 371 	130 	367
f 371 	375 	130
f 348 	353 	197
f 230 	81 	337
f 460 	234 	459
f 232 	459 	234
f 116 	321 	442
f 440 	438 	116
f 116 	415 	411
f 412 	428 	116
f 525 	526 	408
f 130 	16 	131
f 350 	239 	351
f 232 	226 	458
f 459 	232 	458
f 218 	315 	325
f 84 	71 	30
f 354 	246 	350
f 279 	280 	131
f 284 	196 	280
f 286 	196 	284
f 295 	196 	293
f 150 	159 	196
f 197 	196 	179
f 267 	279 	131
f 449 	95 	461
f 389 	499 	101
f 418 	528 	346
f 359 	246 	354
f 114 	457 	127
f 463 	328 	462
f 202 	197 	199
f 164 	171 	196
f 93 	92 	30
f 92 	84 	30
f 196 	116 	132
f 196 	132 	131
f 423 	527 	418
f 234 	460 	257
f 464 	257 	460
f 107 	66 	128
f 273 	197 	129
f 500 	426 	334
f 114 	127 	126
f 369 	256 	366
f 121 	115 	30
f 115 	108 	30
f 108 	93 	30
f 257 	464 	264
f 467 	264 	464
f 128 	74 	134
f 398 	461 	95
f 130 	129 	197
f 256 	369 	373
f 98 	450 	275
f 116 	156 	454
f 148 	124 	30
f 30 	124 	121
f 468 	271 	467
f 275 	400 	406
f 275 	406 	278
f 429 	515 	430
f 278 	406 	409
f 156 	116 	165
f 174 	165 	116
f 145 	90 	146
f 89 	146 	90
f 467 	271 	264
f 153 	151 	33
f 30 	33 	151
f 151 	148 	30
f 342 	470 	471
f 351 	239 	345
f 384 	274 	377
f 49 	412 	312
f 411 	312 	412
f 154 	153 	33
f 289 	468 	472
f 141 	82 	145
f 312 	411 	415
f 175 	170 	33
f 170 	154 	33
f 434 	517 	435
f 290 	473 	296
f 474 	296 	473
f 90 	145 	82
f 435 	518 	519
f 435 	519 	437
f 183 	182 	116
f 174 	116 	182
f 186 	181 	33
f 181 	175 	33
f 314 	204 	392
f 342 	471 	347
f 475 	347 	471
f 146 	89 	161
f 421 	324 	409
f 283 	409 	324
f 397 	292 	384
f 33 	187 	186
f 476 	348 	475
f 292 	397 	399
f 437 	519 	391
f 161 	100 	167
f 206 	194 	116
f 194 	183 	116
f 422 	324 	421
f 473 	290 	472
f 467 	464 	33
f 460 	459 	33
f 458 	452 	33
f 444 	210 	33
f 210 	201 	33
f 187 	33 	201
f 212 	211 	116
f 211 	206 	116
f 424 	12 	422
f 169 	106 	172
f 228 	212 	116
f 12 	424 	25
f 425 	25 	424
f 51 	37 	482
f 481 	482 	37
f 319 	208 	204
f 228 	116 	236
f 485 	7 	484
f 52 	484 	7
f 427 	36 	25
f 427 	25 	425
f 479 	303 	474
f 321 	213 	319
f 208 	319 	213
f 236 	116 	244
f 36 	427 	42
f 428 	42 	427
f 162 	166 	51
f 213 	321 	217
f 244 	116 	254
f 227 	7 	240
f 169 	167 	99
f 412 	49 	42
f 412 	42 	428
f 166 	168 	51
f 487 	316 	480
f 332 	221 	217
f 276 	268 	273
f 259 	116 	268
f 168 	242 	51
f 433 	55 	415
f 157 	162 	51
f 248 	240 	7
f 172 	104 	16
f 489 	317 	487
f 316 	487 	317
f 55 	433 	436
f 333 	223 	221
f 333 	221 	332
f 273 	291 	287
f 287 	276 	273
f 242 	249 	51
f 249 	273 	51
f 438 	64 	436
f 490 	322 	489
f 223 	333 	225
f 339 	225 	333
f 64 	438 	68
f 440 	68 	438
f 305 	294 	273
f 294 	291 	273
f 229 	225 	339
f 177 	176 	482
f 442 	72 	68
f 442 	68 	440
f 156 	140 	138
f 345 	233 	229
f 299 	285 	7
f 277 	7 	285
f 72 	442 	78
f 443 	78 	442
f 311 	273 	315
f 462 	315 	273
f 311 	305 	273
f 239 	233 	345
f 446 	83 	78
f 446 	78 	443
f 350 	241 	239
f 273 	129 	471
f 469 	466 	273
f 462 	273 	463
f 497 	327 	496
f 448 	94 	95
f 448 	95 	449
f 246 	241 	350
f 300 	7 	308
f 313 	308 	7
f 94 	448 	98
f 450 	98 	448
f 323 	493 	326
f 359 	247 	246
f 386 	495 	498
f 400 	275 	450
f 496 	326 	493
f 363 	251 	247
f 363 	247 	359
f 499 	389 	498
f 455 	105 	83
f 455 	83 	446
f 331 	320 	30
f 320 	313 	30
f 278 	283 	231
f 251 	363 	253
f 366 	253 	363
f 105 	455 	109
f 456 	109 	455
f 456 	457 	109
f 114 	109 	457
f 349 	344 	132
f 337 	132 	344
f 256 	253 	366
f 159 	194 	160
f 373 	258 	256
f 30 	361 	340
f 338 	331 	30
f 377 	261 	258
f 377 	258 	373
f 360 	358 	132
f 358 	349 	132
f 337 	44 	132
f 278 	409 	283
f 372 	362 	30
f 30 	362 	361
f 377 	274 	261
f 346 	528 	502
f 252 	273 	249
f 380 	30 	385
f 206 	163 	160
f 192 	273 	252
f 503 	352 	502
f 415 	318 	312
f 265 	398 	260
f 388 	383 	132
f 383 	378 	132
f 378 	360 	132
f 404 	396 	30
f 396 	385 	30
f 55 	318 	415
f 398 	98 	260
f 235 	260 	98
f 398 	265 	270
f 356 	504 	357
f 505 	357 	504
f 282 	281 	387
f 390 	387 	281
f 164 	212 	171
f 235 	275 	231
f 392 	288 	387
f 282 	387 	288
f 395 	394 	132
f 394 	388 	132
f 410 	395 	132
f 405 	404 	30
f 504 	356 	503
f 228 	173 	171
f 288 	392 	204
f 422 	13 	324
f 24 	48 	27
f 274 	384 	292
f 52 	51 	273
f 484 	52 	273
f 273 	192 	191
f 273 	191 	200
f 214 	273 	207
f 200 	207 	273
f 224 	231 	283
f 275 	278 	231
f 222 	224 	283
f 173 	244 	179
f 116 	420 	132
f 71 	65 	30
f 416 	414 	30
f 414 	405 	30
f 399 	297 	292
f 357 	505 	368
f 506 	368 	505
f 403 	298 	399
f 297 	399 	298
f 176 	180 	482
f 180 	185 	482
f 152 	157 	51
f 185 	152 	51
f 482 	185 	51
f 254 	116 	259
f 273 	268 	116
f 184 	179 	244
f 431 	420 	116
f 419 	132 	420
f 417 	132 	419
f 508 	370 	506
f 368 	506 	370
f 48 	24 	73
f 47 	73 	24
f 416 	30 	65
f 507 	37 	509
f 188 	259 	193
f 432 	116 	439
f 116 	432 	431
f 509 	37 	510
f 512 	376 	511
f 73 	47 	81
f 193 	268 	198
f 447 	441 	116
f 116 	441 	439
f 513 	37 	15
f 101 	67 	107
f 66 	107 	67
f 23 	481 	20
f 29 	20 	481
f 454 	453 	116
f 451 	447 	116
f 511 	374 	508
f 445 	444 	33
f 451 	116 	453
f 74 	128 	66
f 34 	37 	507
f 86 	134 	74
f 82 	141 	86
f 134 	86 	141
f 452 	445 	33
f 514 	426 	500
f 458 	33 	459
f 44 	337 	81
f 465 	273 	466
f 465 	463 	273
f 344 	237 	337
f 230 	337 	237
f 426 	514 	429
f 515 	429 	514
f 161 	89 	100
f 460 	33 	464
f 237 	344 	238
f 349 	238 	344
f 99 	167 	100
f 516 	430 	515
f 243 	358 	245
f 76 	409 	85
f 69 	409 	76
f 104 	172 	106
f 358 	243 	349
f 99 	106 	169
f 472 	468 	33
f 467 	33 	468
f 430 	516 	434
f 517 	434 	516
f 406 	400 	91
f 91 	400 	97
f 85 	409 	91
f 471 	470 	273
f 469 	273 	470
f 477 	476 	129
f 255 	245 	378
f 360 	378 	245
f 125 	16 	104
f 383 	262 	378
f 255 	378 	262
f 474 	473 	33
f 473 	472 	33
f 479 	474 	33
f 310 	454 	138
f 156 	138 	454
f 475 	471 	129
f 262 	383 	263
f 388 	263 	383
f 518 	435 	517
f 165 	140 	156
f 103 	37 	112
f 118 	112 	272
f 266 	394 	267
f 395 	267 	394
f 97 	450 	133
f 478 	477 	129
f 165 	174 	140
f 147 	140 	174
f 266 	388 	394
f 129 	488 	486
f 489 	52 	490
f 263 	388 	266
f 136 	133 	461
f 143 	136 	461
f 149 	182 	150
f 183 	150 	182
f 488 	129 	491
f 395 	279 	267
f 147 	174 	149
f 182 	149 	174
f 284 	419 	286
f 420 	286 	419
f 129 	494 	492
f 492 	491 	129
f 194 	159 	183
f 150 	183 	159
f 450 	97 	400
f 63 	272 	69
f 57 	272 	63
f 50 	43 	272
f 43 	46 	272
f 46 	118 	272
f 15 	37 	103
f 57 	50 	272
f 409 	69 	272
f 280 	417 	284
f 206 	160 	194
f 498 	495 	129
f 495 	494 	129
f 419 	284 	417
f 163 	211 	164
f 212 	164 	211
f 510 	37 	513
f 481 	37 	34
f 29 	481 	34
f 272 	112 	37
f 272 	37 	7
f 272 	7 	485
f 293 	431 	295
f 432 	295 	431
f 500 	497 	52
f 52 	497 	496
f 67 	499 	129
f 499 	498 	129
f 273 	272 	484
f 206 	211 	163
f 484 	272 	485
f 431 	293 	420
f 286 	420 	293
f 129 	132 	125
f 439 	302 	301
f 228 	171 	212
f 21 	501 	132
f 439 	301 	432
f 295 	432 	301
f 270 	143 	461
f 236 	173 	228
f 302 	441 	306
f 306 	447 	307
f 451 	307 	447
f 525 	408 	524
f 482 	23 	177
f 236 	244 	173
f 453 	310 	309
f 503 	502 	7
f 461 	398 	270
f 184 	244 	254
f 309 	307 	451
f 482 	481 	23
f 402 	523 	407
f 453 	309 	451
f 507 	152 	34
f 185 	34 	152
f 184 	254 	188
f 259 	188 	254
f 503 	7 	504
f 152 	507 	509
f 152 	509 	157
f 157 	509 	510
f 268 	193 	259
f 524 	407 	523
f 513 	166 	510
f 15 	166 	513
f 198 	268 	276
f 325 	462 	328
f 508 	506 	7
f 505 	7 	506
f 198 	276 	199
f 287 	199 	276
f 413 	408 	526
f 465 	330 	463
f 328 	463 	330
f 202 	291 	203
f 294 	203 	291
f 466 	335 	465
f 199 	287 	202
f 527 	423 	526
f 413 	526 	423
f 330 	465 	335
f 511 	508 	7
f 512 	511 	7
f 7 	227 	512
f 291 	202 	287
f 469 	336 	466
f 335 	466 	336
f 305 	215 	294
f 203 	294 	215
f 341 	470 	342
f 311 	216 	305
f 215 	305 	216
f 528 	418 	527
f 470 	341 	469
f 462 	325 	315
f 469 	341 	336
f 178 	65 	5
f 216 	311 	218
f 315 	218 	311
f 347 	475 	348
f 84 	6 	71
f 5 	71 	6
f 517 	516 	52
f 515 	52 	516
f 478 	355 	477
f 353 	477 	355
f 477 	353 	476
f 348 	476 	353
f 93 	9 	92
f 8 	92 	9
f 520 	519 	52
f 519 	518 	52
f 518 	517 	52
f 483 	365 	478
f 355 	478 	365
f 92 	8 	84
f 486 	367 	483
f 365 	483 	367
f 521 	520 	52
f 8 	6 	84
f 367 	486 	371
f 488 	371 	486
f 491 	375 	488
f 371 	488 	375
f 524 	523 	52
f 523 	522 	52
f 522 	521 	52
f 108 	32 	93
f 9 	93 	32
f 375 	491 	379
f 525 	524 	52
f 492 	379 	491
f 115 	35 	108
f 32 	108 	35
f 495 	382 	494
f 381 	494 	382
f 379 	492 	381
f 494 	381 	492
f 505 	504 	7
f 502 	528 	7
f 124 	41 	121
f 38 	121 	41
f 495 	386 	382
f 386 	498 	389
f 121 	38 	115
f 35 	115 	38
f 526 	52 	527
f 526 	525 	52
f 527 	52 	528
f 67 	101 	499
f 515 	514 	52
f 514 	500 	52
f 496 	493 	52
f 493 	490 	52
f 33 	52 	487
f 480 	33 	487
f 480 	479 	33
f 489 	487 	52
f 148 	53 	124
f 41 	124 	53
f 277 	269 	7
f 269 	250 	7
f 250 	248 	7
f 7 	528 	52
f 151 	54 	148
f 53 	148 	54
f 154 	60 	153
f 58 	153 	60
f 54 	151 	58
f 153 	58 	151
f 170 	70 	60
f 170 	60 	154
f 70 	170 	75
f 175 	75 	170
f 181 	77 	175
f 75 	175 	77
f 187 	80 	186
f 79 	186 	80
f 77 	181 	79
f 186 	79 	181
f 201 	96 	187
f 80 	187 	96
f 210 	195 	201
f 96 	201 	195
f 227 	111 	512
f 111 	227 	113
f 240 	113 	227
f 250 	119 	248
f 117 	248 	119
f 113 	240 	117
f 117 	240 	248
f 250 	137 	119
f 137 	269 	139
f 139 	277 	10
f 285 	10 	277
f 11 	299 	14
# 1060 faces

 #end of obj_0

