# Object Export From Tinkercad Server 2015

mtllib obj.mtl

o obj_0
v 84 		12.5 		3.1
v 84 		12.5 		5.1
v 84 		-2.5 		5.1
v 84 		-2.5 		3.1
v 67 		12.5 		5.1
v 67 		12.5 		3.1
v 67 		-2.5 		3.1
v 67 		-2.5 		5.1
v 76.5 		0.948 		5.1
v 76.297 		0.961 		5.1
v 75.555 		1.268 		5.1
v 76.098 		1 		5.1
v 77.934 		3.094 		5.1
v 75.906 		1.066 		5.1
v 78 		2.902 		5.1
v 75.724 		1.155 		5.1
v 78.039 		2.703 		5.1
v 78.053 		2.5 		5.1
v 75.555 		1.268 		3.1
v 78.039 		2.297 		5.1
v 75.268 		3.445 		3.1
v 76.5 		4.053 		5.1
v 77.276 		1.155 		5.1
v 77.094 		1.066 		5.1
v 77.934 		3.094 		3.1
v 75.155 		3.276 		3.1
v 78 		2.098 		5.1
v 77.732 		3.445 		3.1
v 78 		2.902 		3.1
v 75.402 		3.598 		3.1
v 77.934 		1.906 		5.1
v 78.053 		2.5 		3.1
v 78.039 		2.703 		3.1
v 77.598 		3.598 		3.1
v 77.845 		1.724 		5.1
v 76.902 		1 		5.1
v 77.732 		1.555 		5.1
v 76.5 		0.948 		3.1
v 77.845 		3.276 		3.1
v 77.598 		1.402 		5.1
v 76.703 		0.961 		5.1
v 77.445 		1.268 		5.1
v 74.948 		2.5 		3.1
v 78.039 		2.297 		3.1
v 75.402 		1.402 		5.1
v 75.268 		1.555 		5.1
v 75.555 		3.732 		5.1
v 78 		2.098 		3.1
v 75.155 		1.724 		5.1
v 75.724 		3.845 		5.1
v 77.934 		1.906 		3.1
v 75.906 		3.934 		5.1
v 77.845 		1.724 		3.1
v 75.066 		1.906 		5.1
v 76.098 		4 		5.1
v 77.732 		1.555 		3.1
v 75 		2.098 		5.1
v 76.297 		4.039 		5.1
v 77.598 		1.402 		3.1
v 74.961 		2.297 		5.1
v 76.297 		0.961 		3.1
v 77.445 		1.268 		3.1
v 74.948 		2.5 		5.1
v 74.961 		2.703 		5.1
v 76.703 		4.039 		5.1
v 76.098 		1 		3.1
v 75 		2.902 		5.1
v 75.066 		3.094 		5.1
v 75.906 		1.066 		3.1
v 75.555 		3.732 		3.1
v 75.724 		1.155 		3.1
v 75.155 		3.276 		5.1
v 75.724 		3.845 		3.1
v 75.906 		3.934 		3.1
v 75.268 		3.445 		5.1
v 77.276 		1.155 		3.1
v 76.902 		4 		5.1
v 75.402 		3.598 		5.1
v 76.098 		4 		3.1
v 77.094 		1.066 		3.1
v 77.094 		3.934 		5.1
v 76.297 		4.039 		3.1
v 77.276 		3.845 		5.1
v 76.902 		1 		3.1
v 77.445 		3.732 		5.1
v 76.5 		4.053 		3.1
v 76.703 		0.961 		3.1
v 76.703 		4.039 		3.1
v 77.598 		3.598 		5.1
v 76.902 		4 		3.1
v 77.732 		3.445 		5.1
v 75.402 		1.402 		3.1
v 77.094 		3.934 		3.1
v 77.845 		3.276 		5.1
v 77.276 		3.845 		3.1
v 75.268 		1.555 		3.1
v 77.445 		3.732 		3.1
v 75.155 		1.724 		3.1
v 75.066 		1.906 		3.1
v 75 		2.098 		3.1
v 74.961 		2.297 		3.1
v 74.961 		2.703 		3.1
v 75 		2.902 		3.1
v 75.066 		3.094 		3.1
# 104 vertices

g group_0_16089887

usemtl color_16089887
s 0

f 3 	1 	2
f 1 	3 	4
f 5 	6 	7
f 5 	7 	8
f 14 	8 	12
f 17 	2 	15
f 18 	3 	17
f 11 	8 	16
f 14 	16 	8
f 24 	3 	23
f 29 	15 	13
f 44 	32 	4
f 32 	33 	4
f 1 	4 	33
f 87 	4 	38
f 84 	4 	87
f 29 	25 	1
f 40 	3 	37
f 33 	29 	1
f 36 	3 	24
f 15 	29 	17
f 42 	3 	40
f 13 	39 	25
f 43 	7 	102
f 101 	7 	43
f 6 	102 	7
f 32 	18 	17
f 45 	8 	11
f 23 	3 	42
f 35 	37 	3
f 18 	32 	44
f 18 	44 	20
f 8 	7 	4
f 8 	4 	3
f 38 	10 	9
f 6 	5 	1
f 50 	5 	47
f 83 	2 	81
f 52 	55 	5
f 10 	66 	12
f 49 	8 	46
f 44 	4 	48
f 51 	48 	4
f 52 	5 	50
f 69 	14 	66
f 12 	66 	14
f 54 	8 	49
f 46 	8 	45
f 20 	3 	18
f 31 	3 	27
f 20 	27 	3
f 35 	3 	31
f 41 	9 	3
f 2 	17 	3
f 14 	69 	71
f 14 	71 	16
f 57 	8 	54
f 51 	4 	53
f 2 	1 	5
f 60 	63 	8
f 71 	19 	16
f 55 	58 	5
f 8 	3 	9
f 10 	8 	9
f 12 	8 	10
f 36 	41 	3
f 61 	10 	38
f 13 	25 	29
f 53 	4 	56
f 63 	64 	8
f 58 	22 	5
f 2 	5 	22
f 29 	33 	17
f 5 	8 	64
f 57 	60 	8
f 67 	68 	5
f 64 	67 	5
f 10 	61 	66
f 38 	7 	61
f 17 	33 	32
f 59 	56 	4
f 62 	59 	4
f 7 	66 	61
f 20 	44 	27
f 84 	36 	24
f 72 	5 	68
f 69 	66 	7
f 48 	27 	44
f 75 	5 	72
f 19 	71 	7
f 69 	7 	71
f 23 	62 	76
f 77 	2 	65
f 22 	65 	2
f 27 	48 	31
f 51 	31 	48
f 76 	62 	4
f 80 	24 	76
f 23 	76 	24
f 73 	6 	74
f 2 	77 	81
f 53 	35 	31
f 53 	31 	51
f 47 	5 	78
f 75 	78 	5
f 79 	6 	82
f 56 	37 	35
f 80 	76 	4
f 24 	80 	84
f 37 	56 	40
f 84 	80 	4
f 56 	35 	53
f 7 	38 	4
f 91 	2 	89
f 40 	62 	42
f 59 	40 	56
f 7 	92 	19
f 13 	2 	94
f 89 	2 	85
f 36 	84 	87
f 36 	87 	41
f 40 	59 	62
f 38 	9 	87
f 41 	87 	9
f 42 	62 	23
f 91 	94 	2
f 13 	15 	2
f 83 	85 	2
f 95 	1 	97
f 45 	19 	92
f 70 	47 	30
f 28 	34 	1
f 34 	97 	1
f 96 	45 	92
f 73 	47 	70
f 39 	1 	25
f 28 	1 	39
f 98 	96 	7
f 96 	92 	7
f 96 	46 	45
f 98 	49 	96
f 99 	98 	7
f 73 	50 	47
f 49 	46 	96
f 49 	98 	99
f 95 	93 	1
f 1 	93 	90
f 90 	88 	1
f 1 	88 	86
f 82 	6 	86
f 1 	86 	6
f 99 	54 	49
f 50 	73 	52
f 74 	52 	73
f 100 	99 	7
f 101 	100 	7
f 100 	57 	99
f 57 	54 	99
f 79 	55 	52
f 79 	52 	74
f 57 	100 	101
f 103 	102 	6
f 101 	60 	57
f 55 	79 	58
f 82 	58 	79
f 104 	103 	6
f 63 	101 	43
f 104 	6 	26
f 60 	101 	63
f 58 	82 	86
f 58 	86 	22
f 63 	43 	64
f 102 	64 	43
f 21 	26 	6
f 90 	77 	88
f 88 	65 	22
f 88 	22 	86
f 64 	102 	103
f 79 	74 	6
f 73 	70 	6
f 70 	30 	6
f 30 	21 	6
f 77 	90 	81
f 93 	81 	90
f 103 	67 	64
f 77 	65 	88
f 95 	83 	81
f 95 	81 	93
f 67 	103 	68
f 104 	68 	103
f 83 	95 	97
f 26 	72 	68
f 26 	68 	104
f 72 	26 	75
f 21 	75 	26
f 97 	85 	83
f 30 	78 	75
f 30 	75 	21
f 85 	97 	89
f 78 	30 	47
f 89 	97 	34
f 28 	91 	34
f 89 	34 	91
f 11 	16 	19
f 91 	28 	39
f 91 	39 	94
f 45 	11 	19
f 94 	39 	13
# 208 faces

 #end of obj_0

o obj_1
v 59.5 		12.5 		3.1
v 59.5 		12.5 		5.1
v 59.5 		-2.5 		5.1
v 59.5 		-2.5 		3.1
v 42.5 		12.5 		5.1
v 42.5 		12.5 		3.1
v 42.5 		-2.5 		3.1
v 42.5 		-2.5 		5.1
v 52 		0.948 		5.1
v 51.797 		0.961 		5.1
v 51.055 		1.268 		5.1
v 51.598 		1 		5.1
v 53.434 		3.094 		5.1
v 51.406 		1.066 		5.1
v 53.5 		2.902 		5.1
v 51.224 		1.155 		5.1
v 53.539 		2.703 		5.1
v 53.553 		2.5 		5.1
v 51.055 		1.268 		3.1
v 53.539 		2.297 		5.1
v 50.768 		3.445 		3.1
v 52 		4.053 		5.1
v 52.776 		1.155 		5.1
v 52.594 		1.066 		5.1
v 53.434 		3.094 		3.1
v 50.655 		3.276 		3.1
v 53.5 		2.098 		5.1
v 53.232 		3.445 		3.1
v 53.5 		2.902 		3.1
v 50.902 		3.598 		3.1
v 53.434 		1.906 		5.1
v 53.553 		2.5 		3.1
v 53.539 		2.703 		3.1
v 53.098 		3.598 		3.1
v 53.345 		1.724 		5.1
v 52.402 		1 		5.1
v 53.232 		1.555 		5.1
v 52 		0.948 		3.1
v 53.345 		3.276 		3.1
v 53.098 		1.402 		5.1
v 52.203 		0.961 		5.1
v 52.945 		1.268 		5.1
v 50.448 		2.5 		3.1
v 53.539 		2.297 		3.1
v 50.902 		1.402 		5.1
v 50.768 		1.555 		5.1
v 51.055 		3.732 		5.1
v 53.5 		2.098 		3.1
v 50.655 		1.724 		5.1
v 51.224 		3.845 		5.1
v 53.434 		1.906 		3.1
v 51.406 		3.934 		5.1
v 53.345 		1.724 		3.1
v 50.566 		1.906 		5.1
v 51.598 		4 		5.1
v 53.232 		1.555 		3.1
v 50.5 		2.098 		5.1
v 51.797 		4.039 		5.1
v 53.098 		1.402 		3.1
v 50.461 		2.297 		5.1
v 51.797 		0.961 		3.1
v 52.945 		1.268 		3.1
v 50.448 		2.5 		5.1
v 50.461 		2.703 		5.1
v 52.203 		4.039 		5.1
v 51.598 		1 		3.1
v 50.5 		2.902 		5.1
v 50.566 		3.094 		5.1
v 51.406 		1.066 		3.1
v 51.055 		3.732 		3.1
v 51.224 		1.155 		3.1
v 50.655 		3.276 		5.1
v 51.224 		3.845 		3.1
v 51.406 		3.934 		3.1
v 50.768 		3.445 		5.1
v 52.776 		1.155 		3.1
v 52.402 		4 		5.1
v 50.902 		3.598 		5.1
v 51.598 		4 		3.1
v 52.594 		1.066 		3.1
v 52.594 		3.934 		5.1
v 51.797 		4.039 		3.1
v 52.776 		3.845 		5.1
v 52.402 		1 		3.1
v 52.945 		3.732 		5.1
v 52 		4.053 		3.1
v 52.203 		0.961 		3.1
v 52.203 		4.039 		3.1
v 53.098 		3.598 		5.1
v 52.402 		4 		3.1
v 53.232 		3.445 		5.1
v 50.902 		1.402 		3.1
v 52.594 		3.934 		3.1
v 53.345 		3.276 		5.1
v 52.776 		3.845 		3.1
v 50.768 		1.555 		3.1
v 52.945 		3.732 		3.1
v 50.655 		1.724 		3.1
v 50.566 		1.906 		3.1
v 50.5 		2.098 		3.1
v 50.461 		2.297 		3.1
v 50.461 		2.703 		3.1
v 50.5 		2.902 		3.1
v 50.566 		3.094 		3.1
# 104 vertices

g group_1_16089887

usemtl color_16089887
s 0

f 107 	105 	106
f 105 	107 	108
f 109 	110 	111
f 109 	111 	112
f 118 	112 	116
f 121 	106 	119
f 122 	107 	121
f 115 	112 	120
f 118 	120 	112
f 128 	107 	127
f 133 	119 	117
f 148 	136 	108
f 136 	137 	108
f 105 	108 	137
f 191 	108 	142
f 188 	108 	191
f 133 	129 	105
f 144 	107 	141
f 137 	133 	105
f 140 	107 	128
f 119 	133 	121
f 146 	107 	144
f 117 	143 	129
f 147 	111 	206
f 205 	111 	147
f 110 	206 	111
f 136 	122 	121
f 149 	112 	115
f 127 	107 	146
f 139 	141 	107
f 122 	136 	148
f 122 	148 	124
f 112 	111 	108
f 112 	108 	107
f 142 	114 	113
f 110 	109 	105
f 154 	109 	151
f 187 	106 	185
f 156 	159 	109
f 114 	170 	116
f 153 	112 	150
f 148 	108 	152
f 155 	152 	108
f 156 	109 	154
f 173 	118 	170
f 116 	170 	118
f 158 	112 	153
f 150 	112 	149
f 124 	107 	122
f 135 	107 	131
f 124 	131 	107
f 139 	107 	135
f 145 	113 	107
f 106 	121 	107
f 118 	173 	175
f 118 	175 	120
f 161 	112 	158
f 155 	108 	157
f 106 	105 	109
f 164 	167 	112
f 175 	123 	120
f 159 	162 	109
f 112 	107 	113
f 114 	112 	113
f 116 	112 	114
f 140 	145 	107
f 165 	114 	142
f 117 	129 	133
f 157 	108 	160
f 167 	168 	112
f 162 	126 	109
f 106 	109 	126
f 133 	137 	121
f 109 	112 	168
f 161 	164 	112
f 171 	172 	109
f 168 	171 	109
f 114 	165 	170
f 142 	111 	165
f 121 	137 	136
f 163 	160 	108
f 166 	163 	108
f 111 	170 	165
f 124 	148 	131
f 188 	140 	128
f 176 	109 	172
f 173 	170 	111
f 152 	131 	148
f 179 	109 	176
f 123 	175 	111
f 173 	111 	175
f 127 	166 	180
f 181 	106 	169
f 126 	169 	106
f 131 	152 	135
f 155 	135 	152
f 180 	166 	108
f 184 	128 	180
f 127 	180 	128
f 177 	110 	178
f 106 	181 	185
f 157 	139 	135
f 157 	135 	155
f 151 	109 	182
f 179 	182 	109
f 183 	110 	186
f 160 	141 	139
f 184 	180 	108
f 128 	184 	188
f 141 	160 	144
f 188 	184 	108
f 160 	139 	157
f 111 	142 	108
f 195 	106 	193
f 144 	166 	146
f 163 	144 	160
f 111 	196 	123
f 117 	106 	198
f 193 	106 	189
f 140 	188 	191
f 140 	191 	145
f 144 	163 	166
f 142 	113 	191
f 145 	191 	113
f 146 	166 	127
f 195 	198 	106
f 117 	119 	106
f 187 	189 	106
f 199 	105 	201
f 149 	123 	196
f 174 	151 	134
f 132 	138 	105
f 138 	201 	105
f 200 	149 	196
f 177 	151 	174
f 143 	105 	129
f 132 	105 	143
f 202 	200 	111
f 200 	196 	111
f 200 	150 	149
f 202 	153 	200
f 203 	202 	111
f 177 	154 	151
f 153 	150 	200
f 153 	202 	203
f 199 	197 	105
f 105 	197 	194
f 194 	192 	105
f 105 	192 	190
f 186 	110 	190
f 105 	190 	110
f 203 	158 	153
f 154 	177 	156
f 178 	156 	177
f 204 	203 	111
f 205 	204 	111
f 204 	161 	203
f 161 	158 	203
f 183 	159 	156
f 183 	156 	178
f 161 	204 	205
f 207 	206 	110
f 205 	164 	161
f 159 	183 	162
f 186 	162 	183
f 208 	207 	110
f 167 	205 	147
f 208 	110 	130
f 164 	205 	167
f 162 	186 	190
f 162 	190 	126
f 167 	147 	168
f 206 	168 	147
f 125 	130 	110
f 194 	181 	192
f 192 	169 	126
f 192 	126 	190
f 168 	206 	207
f 183 	178 	110
f 177 	174 	110
f 174 	134 	110
f 134 	125 	110
f 181 	194 	185
f 197 	185 	194
f 207 	171 	168
f 181 	169 	192
f 199 	187 	185
f 199 	185 	197
f 171 	207 	172
f 208 	172 	207
f 187 	199 	201
f 130 	176 	172
f 130 	172 	208
f 176 	130 	179
f 125 	179 	130
f 201 	189 	187
f 134 	182 	179
f 134 	179 	125
f 189 	201 	193
f 182 	134 	151
f 193 	201 	138
f 132 	195 	138
f 193 	138 	195
f 115 	120 	123
f 195 	132 	143
f 195 	143 	198
f 149 	115 	123
f 198 	143 	117
# 208 faces

 #end of obj_1

o obj_2
v 59.5 		32 		3.1
v 59.5 		32 		5.1
v 59.5 		17 		5.1
v 59.5 		17 		3.1
v 42.5 		32 		5.1
v 42.5 		32 		3.1
v 42.5 		17 		3.1
v 42.5 		17 		5.1
v 52 		20.448 		5.1
v 51.797 		20.461 		5.1
v 51.055 		20.768 		5.1
v 51.598 		20.5 		5.1
v 53.434 		22.594 		5.1
v 51.406 		20.566 		5.1
v 53.5 		22.402 		5.1
v 51.224 		20.655 		5.1
v 53.539 		22.203 		5.1
v 53.553 		22 		5.1
v 51.055 		20.768 		3.1
v 53.539 		21.797 		5.1
v 50.768 		22.945 		3.1
v 52 		23.553 		5.1
v 52.776 		20.655 		5.1
v 52.594 		20.566 		5.1
v 53.434 		22.594 		3.1
v 50.655 		22.776 		3.1
v 53.5 		21.598 		5.1
v 53.232 		22.945 		3.1
v 53.5 		22.402 		3.1
v 50.902 		23.098 		3.1
v 53.434 		21.406 		5.1
v 53.553 		22 		3.1
v 53.539 		22.203 		3.1
v 53.098 		23.098 		3.1
v 53.345 		21.224 		5.1
v 52.402 		20.5 		5.1
v 53.232 		21.055 		5.1
v 52 		20.448 		3.1
v 53.345 		22.776 		3.1
v 53.098 		20.902 		5.1
v 52.203 		20.461 		5.1
v 52.945 		20.768 		5.1
v 50.448 		22 		3.1
v 53.539 		21.797 		3.1
v 50.902 		20.902 		5.1
v 50.768 		21.055 		5.1
v 51.055 		23.232 		5.1
v 53.5 		21.598 		3.1
v 50.655 		21.224 		5.1
v 51.224 		23.345 		5.1
v 53.434 		21.406 		3.1
v 51.406 		23.434 		5.1
v 53.345 		21.224 		3.1
v 50.566 		21.406 		5.1
v 51.598 		23.5 		5.1
v 53.232 		21.055 		3.1
v 50.5 		21.598 		5.1
v 51.797 		23.539 		5.1
v 53.098 		20.902 		3.1
v 50.461 		21.797 		5.1
v 51.797 		20.461 		3.1
v 52.945 		20.768 		3.1
v 50.448 		22 		5.1
v 50.461 		22.203 		5.1
v 52.203 		23.539 		5.1
v 51.598 		20.5 		3.1
v 50.5 		22.402 		5.1
v 50.566 		22.594 		5.1
v 51.406 		20.566 		3.1
v 51.055 		23.232 		3.1
v 51.224 		20.655 		3.1
v 50.655 		22.776 		5.1
v 51.224 		23.345 		3.1
v 51.406 		23.434 		3.1
v 50.768 		22.945 		5.1
v 52.776 		20.655 		3.1
v 52.402 		23.5 		5.1
v 50.902 		23.098 		5.1
v 51.598 		23.5 		3.1
v 52.594 		20.566 		3.1
v 52.594 		23.434 		5.1
v 51.797 		23.539 		3.1
v 52.776 		23.345 		5.1
v 52.402 		20.5 		3.1
v 52.945 		23.232 		5.1
v 52 		23.553 		3.1
v 52.203 		20.461 		3.1
v 52.203 		23.539 		3.1
v 53.098 		23.098 		5.1
v 52.402 		23.5 		3.1
v 53.232 		22.945 		5.1
v 50.902 		20.902 		3.1
v 52.594 		23.434 		3.1
v 53.345 		22.776 		5.1
v 52.776 		23.345 		3.1
v 50.768 		21.055 		3.1
v 52.945 		23.232 		3.1
v 50.655 		21.224 		3.1
v 50.566 		21.406 		3.1
v 50.5 		21.598 		3.1
v 50.461 		21.797 		3.1
v 50.461 		22.203 		3.1
v 50.5 		22.402 		3.1
v 50.566 		22.594 		3.1
# 104 vertices

g group_2_16089887

usemtl color_16089887
s 0

f 211 	209 	210
f 209 	211 	212
f 213 	214 	215
f 213 	215 	216
f 222 	216 	220
f 225 	210 	223
f 226 	211 	225
f 219 	216 	224
f 222 	224 	216
f 232 	211 	231
f 237 	223 	221
f 252 	240 	212
f 240 	241 	212
f 209 	212 	241
f 295 	212 	246
f 292 	212 	295
f 237 	233 	209
f 248 	211 	245
f 241 	237 	209
f 244 	211 	232
f 223 	237 	225
f 250 	211 	248
f 221 	247 	233
f 251 	215 	310
f 309 	215 	251
f 214 	310 	215
f 240 	226 	225
f 253 	216 	219
f 231 	211 	250
f 243 	245 	211
f 226 	240 	252
f 226 	252 	228
f 216 	215 	212
f 216 	212 	211
f 246 	218 	217
f 214 	213 	209
f 258 	213 	255
f 291 	210 	289
f 260 	263 	213
f 218 	274 	220
f 257 	216 	254
f 252 	212 	256
f 259 	256 	212
f 260 	213 	258
f 277 	222 	274
f 220 	274 	222
f 262 	216 	257
f 254 	216 	253
f 228 	211 	226
f 239 	211 	235
f 228 	235 	211
f 243 	211 	239
f 249 	217 	211
f 210 	225 	211
f 222 	277 	279
f 222 	279 	224
f 265 	216 	262
f 259 	212 	261
f 210 	209 	213
f 268 	271 	216
f 279 	227 	224
f 263 	266 	213
f 216 	211 	217
f 218 	216 	217
f 220 	216 	218
f 244 	249 	211
f 269 	218 	246
f 221 	233 	237
f 261 	212 	264
f 271 	272 	216
f 266 	230 	213
f 210 	213 	230
f 237 	241 	225
f 213 	216 	272
f 265 	268 	216
f 275 	276 	213
f 272 	275 	213
f 218 	269 	274
f 246 	215 	269
f 225 	241 	240
f 267 	264 	212
f 270 	267 	212
f 215 	274 	269
f 228 	252 	235
f 292 	244 	232
f 280 	213 	276
f 277 	274 	215
f 256 	235 	252
f 283 	213 	280
f 227 	279 	215
f 277 	215 	279
f 231 	270 	284
f 285 	210 	273
f 230 	273 	210
f 235 	256 	239
f 259 	239 	256
f 284 	270 	212
f 288 	232 	284
f 231 	284 	232
f 281 	214 	282
f 210 	285 	289
f 261 	243 	239
f 261 	239 	259
f 255 	213 	286
f 283 	286 	213
f 287 	214 	290
f 264 	245 	243
f 288 	284 	212
f 232 	288 	292
f 245 	264 	248
f 292 	288 	212
f 264 	243 	261
f 215 	246 	212
f 299 	210 	297
f 248 	270 	250
f 267 	248 	264
f 215 	300 	227
f 221 	210 	302
f 297 	210 	293
f 244 	292 	295
f 244 	295 	249
f 248 	267 	270
f 246 	217 	295
f 249 	295 	217
f 250 	270 	231
f 299 	302 	210
f 221 	223 	210
f 291 	293 	210
f 303 	209 	305
f 253 	227 	300
f 278 	255 	238
f 236 	242 	209
f 242 	305 	209
f 304 	253 	300
f 281 	255 	278
f 247 	209 	233
f 236 	209 	247
f 306 	304 	215
f 304 	300 	215
f 304 	254 	253
f 306 	257 	304
f 307 	306 	215
f 281 	258 	255
f 257 	254 	304
f 257 	306 	307
f 303 	301 	209
f 209 	301 	298
f 298 	296 	209
f 209 	296 	294
f 290 	214 	294
f 209 	294 	214
f 307 	262 	257
f 258 	281 	260
f 282 	260 	281
f 308 	307 	215
f 309 	308 	215
f 308 	265 	307
f 265 	262 	307
f 287 	263 	260
f 287 	260 	282
f 265 	308 	309
f 311 	310 	214
f 309 	268 	265
f 263 	287 	266
f 290 	266 	287
f 312 	311 	214
f 271 	309 	251
f 312 	214 	234
f 268 	309 	271
f 266 	290 	294
f 266 	294 	230
f 271 	251 	272
f 310 	272 	251
f 229 	234 	214
f 298 	285 	296
f 296 	273 	230
f 296 	230 	294
f 272 	310 	311
f 287 	282 	214
f 281 	278 	214
f 278 	238 	214
f 238 	229 	214
f 285 	298 	289
f 301 	289 	298
f 311 	275 	272
f 285 	273 	296
f 303 	291 	289
f 303 	289 	301
f 275 	311 	276
f 312 	276 	311
f 291 	303 	305
f 234 	280 	276
f 234 	276 	312
f 280 	234 	283
f 229 	283 	234
f 305 	293 	291
f 238 	286 	283
f 238 	283 	229
f 293 	305 	297
f 286 	238 	255
f 297 	305 	242
f 236 	299 	242
f 297 	242 	299
f 219 	224 	227
f 299 	236 	247
f 299 	247 	302
f 253 	219 	227
f 302 	247 	221
# 208 faces

 #end of obj_2

o obj_3
v 84 		32 		3.1
v 84 		32 		5.1
v 84 		17 		5.1
v 84 		17 		3.1
v 67 		32 		5.1
v 67 		32 		3.1
v 67 		17 		3.1
v 67 		17 		5.1
v 76.5 		20.448 		5.1
v 76.297 		20.461 		5.1
v 75.555 		20.768 		5.1
v 76.098 		20.5 		5.1
v 77.934 		22.594 		5.1
v 75.906 		20.566 		5.1
v 78 		22.402 		5.1
v 75.724 		20.655 		5.1
v 78.039 		22.203 		5.1
v 78.053 		22 		5.1
v 75.555 		20.768 		3.1
v 78.039 		21.797 		5.1
v 75.268 		22.945 		3.1
v 76.5 		23.553 		5.1
v 77.276 		20.655 		5.1
v 77.094 		20.566 		5.1
v 77.934 		22.594 		3.1
v 75.155 		22.776 		3.1
v 78 		21.598 		5.1
v 77.732 		22.945 		3.1
v 78 		22.402 		3.1
v 75.402 		23.098 		3.1
v 77.934 		21.406 		5.1
v 78.053 		22 		3.1
v 78.039 		22.203 		3.1
v 77.598 		23.098 		3.1
v 77.845 		21.224 		5.1
v 76.902 		20.5 		5.1
v 77.732 		21.055 		5.1
v 76.5 		20.448 		3.1
v 77.845 		22.776 		3.1
v 77.598 		20.902 		5.1
v 76.703 		20.461 		5.1
v 77.445 		20.768 		5.1
v 74.948 		22 		3.1
v 78.039 		21.797 		3.1
v 75.402 		20.902 		5.1
v 75.268 		21.055 		5.1
v 75.555 		23.232 		5.1
v 78 		21.598 		3.1
v 75.155 		21.224 		5.1
v 75.724 		23.345 		5.1
v 77.934 		21.406 		3.1
v 75.906 		23.434 		5.1
v 77.845 		21.224 		3.1
v 75.066 		21.406 		5.1
v 76.098 		23.5 		5.1
v 77.732 		21.055 		3.1
v 75 		21.598 		5.1
v 76.297 		23.539 		5.1
v 77.598 		20.902 		3.1
v 74.961 		21.797 		5.1
v 76.297 		20.461 		3.1
v 77.445 		20.768 		3.1
v 74.948 		22 		5.1
v 74.961 		22.203 		5.1
v 76.703 		23.539 		5.1
v 76.098 		20.5 		3.1
v 75 		22.402 		5.1
v 75.066 		22.594 		5.1
v 75.906 		20.566 		3.1
v 75.555 		23.232 		3.1
v 75.724 		20.655 		3.1
v 75.155 		22.776 		5.1
v 75.724 		23.345 		3.1
v 75.906 		23.434 		3.1
v 75.268 		22.945 		5.1
v 77.276 		20.655 		3.1
v 76.902 		23.5 		5.1
v 75.402 		23.098 		5.1
v 76.098 		23.5 		3.1
v 77.094 		20.566 		3.1
v 77.094 		23.434 		5.1
v 76.297 		23.539 		3.1
v 77.276 		23.345 		5.1
v 76.902 		20.5 		3.1
v 77.445 		23.232 		5.1
v 76.5 		23.553 		3.1
v 76.703 		20.461 		3.1
v 76.703 		23.539 		3.1
v 77.598 		23.098 		5.1
v 76.902 		23.5 		3.1
v 77.732 		22.945 		5.1
v 75.402 		20.902 		3.1
v 77.094 		23.434 		3.1
v 77.845 		22.776 		5.1
v 77.276 		23.345 		3.1
v 75.268 		21.055 		3.1
v 77.445 		23.232 		3.1
v 75.155 		21.224 		3.1
v 75.066 		21.406 		3.1
v 75 		21.598 		3.1
v 74.961 		21.797 		3.1
v 74.961 		22.203 		3.1
v 75 		22.402 		3.1
v 75.066 		22.594 		3.1
# 104 vertices

g group_3_16089887

usemtl color_16089887
s 0

f 315 	313 	314
f 313 	315 	316
f 317 	318 	319
f 317 	319 	320
f 326 	320 	324
f 329 	314 	327
f 330 	315 	329
f 323 	320 	328
f 326 	328 	320
f 336 	315 	335
f 341 	327 	325
f 356 	344 	316
f 344 	345 	316
f 313 	316 	345
f 399 	316 	350
f 396 	316 	399
f 341 	337 	313
f 352 	315 	349
f 345 	341 	313
f 348 	315 	336
f 327 	341 	329
f 354 	315 	352
f 325 	351 	337
f 355 	319 	414
f 413 	319 	355
f 318 	414 	319
f 344 	330 	329
f 357 	320 	323
f 335 	315 	354
f 347 	349 	315
f 330 	344 	356
f 330 	356 	332
f 320 	319 	316
f 320 	316 	315
f 350 	322 	321
f 318 	317 	313
f 362 	317 	359
f 395 	314 	393
f 364 	367 	317
f 322 	378 	324
f 361 	320 	358
f 356 	316 	360
f 363 	360 	316
f 364 	317 	362
f 381 	326 	378
f 324 	378 	326
f 366 	320 	361
f 358 	320 	357
f 332 	315 	330
f 343 	315 	339
f 332 	339 	315
f 347 	315 	343
f 353 	321 	315
f 314 	329 	315
f 326 	381 	383
f 326 	383 	328
f 369 	320 	366
f 363 	316 	365
f 314 	313 	317
f 372 	375 	320
f 383 	331 	328
f 367 	370 	317
f 320 	315 	321
f 322 	320 	321
f 324 	320 	322
f 348 	353 	315
f 373 	322 	350
f 325 	337 	341
f 365 	316 	368
f 375 	376 	320
f 370 	334 	317
f 314 	317 	334
f 341 	345 	329
f 317 	320 	376
f 369 	372 	320
f 379 	380 	317
f 376 	379 	317
f 322 	373 	378
f 350 	319 	373
f 329 	345 	344
f 371 	368 	316
f 374 	371 	316
f 319 	378 	373
f 332 	356 	339
f 396 	348 	336
f 384 	317 	380
f 381 	378 	319
f 360 	339 	356
f 387 	317 	384
f 331 	383 	319
f 381 	319 	383
f 335 	374 	388
f 389 	314 	377
f 334 	377 	314
f 339 	360 	343
f 363 	343 	360
f 388 	374 	316
f 392 	336 	388
f 335 	388 	336
f 385 	318 	386
f 314 	389 	393
f 365 	347 	343
f 365 	343 	363
f 359 	317 	390
f 387 	390 	317
f 391 	318 	394
f 368 	349 	347
f 392 	388 	316
f 336 	392 	396
f 349 	368 	352
f 396 	392 	316
f 368 	347 	365
f 319 	350 	316
f 403 	314 	401
f 352 	374 	354
f 371 	352 	368
f 319 	404 	331
f 325 	314 	406
f 401 	314 	397
f 348 	396 	399
f 348 	399 	353
f 352 	371 	374
f 350 	321 	399
f 353 	399 	321
f 354 	374 	335
f 403 	406 	314
f 325 	327 	314
f 395 	397 	314
f 407 	313 	409
f 357 	331 	404
f 382 	359 	342
f 340 	346 	313
f 346 	409 	313
f 408 	357 	404
f 385 	359 	382
f 351 	313 	337
f 340 	313 	351
f 410 	408 	319
f 408 	404 	319
f 408 	358 	357
f 410 	361 	408
f 411 	410 	319
f 385 	362 	359
f 361 	358 	408
f 361 	410 	411
f 407 	405 	313
f 313 	405 	402
f 402 	400 	313
f 313 	400 	398
f 394 	318 	398
f 313 	398 	318
f 411 	366 	361
f 362 	385 	364
f 386 	364 	385
f 412 	411 	319
f 413 	412 	319
f 412 	369 	411
f 369 	366 	411
f 391 	367 	364
f 391 	364 	386
f 369 	412 	413
f 415 	414 	318
f 413 	372 	369
f 367 	391 	370
f 394 	370 	391
f 416 	415 	318
f 375 	413 	355
f 416 	318 	338
f 372 	413 	375
f 370 	394 	398
f 370 	398 	334
f 375 	355 	376
f 414 	376 	355
f 333 	338 	318
f 402 	389 	400
f 400 	377 	334
f 400 	334 	398
f 376 	414 	415
f 391 	386 	318
f 385 	382 	318
f 382 	342 	318
f 342 	333 	318
f 389 	402 	393
f 405 	393 	402
f 415 	379 	376
f 389 	377 	400
f 407 	395 	393
f 407 	393 	405
f 379 	415 	380
f 416 	380 	415
f 395 	407 	409
f 338 	384 	380
f 338 	380 	416
f 384 	338 	387
f 333 	387 	338
f 409 	397 	395
f 342 	390 	387
f 342 	387 	333
f 397 	409 	401
f 390 	342 	359
f 401 	409 	346
f 340 	403 	346
f 401 	346 	403
f 323 	328 	331
f 403 	340 	351
f 403 	351 	406
f 357 	323 	331
f 406 	351 	325
# 208 faces

 #end of obj_3

