# Object Export From Tinkercad Server 2015

mtllib obj.mtl

o obj_0
v -153 		29.845 		13.3
v -153 		27.645 		13.3
v -153 		29.845 		16.3
v -153 		27.645 		19.3
v -153 		29.645 		19.3
v -153 		29.645 		25.15
v -147.219 		35.036 		31.016
v -147.308 		35.074 		31.016
v -147.225 		35.032 		31.17
v -147.09 		32.351 		31.17
v -147.037 		32.403 		31.016
v -153 		39.645 		13.3
v -153 		37.445 		13.3
v -147.045 		32.405 		31.17
v -153 		37.445 		16.3
v -147.747 		32.519 		32
v -153 		37.645 		19.3
v -153 		39.645 		19.3
v -147.009 		32.46 		31.016
v -152.289 		34.827 		31.988
v -152.306 		34.823 		31.988
v -147.018 		32.461 		31.17
v -153 		37.645 		25.15
v -147.63 		32.519 		31.988
v -153 		34.771 		31.016
v -147.408 		35.104 		31.016
v -153 		32.519 		31.016
v -152.253 		34.887 		31.952
v -152.919 		32.519 		31.463
v -152.253 		34.83 		31.988
v -147.516 		32.519 		31.952
v -147.412 		35.1 		31.17
v -152.306 		34.939 		31.893
v -152.963 		32.519 		31.32
v -147.143 		32.299 		31.016
v -152.253 		34.941 		31.893
v -152.68 		34.985 		31.594
v -152.742 		34.949 		31.594
v -147.56 		32.451 		31.952
v -147.584 		32.437 		31.952
v -152.791 		32.323 		31.463
v -147.542 		32.466 		31.952
v -152.791 		34.909 		31.594
v -147.225 		32.258 		31.17
v -152.724 		32.283 		31.463
v -152.828 		34.865 		31.594
v -147.528 		32.483 		31.952
v -147.519 		32.501 		31.952
v -147.408 		34.771 		31.893
v -152.358 		32.416 		31.952
v -147.412 		34.798 		31.893
v -152.324 		32.409 		31.952
v -147.308 		34.771 		31.812
v -147.313 		34.806 		31.812
v -152.416 		32.437 		31.952
v -147.412 		32.19 		31.17
v -147.507 		32.399 		31.893
v -153 		34.771 		25.15
v -152.388 		32.425 		31.952
v -147.313 		32.22 		31.17
v -153 		32.519 		25.15
v -147.473 		32.419 		31.893
v -138 		27.645 		13.3
v -138 		29.845 		13.3
v -138 		29.845 		16.3
v -138 		29.645 		19.3
v -138 		27.645 		19.3
v -138 		29.645 		25.15
v -147.747 		32.145 		25.15
v -152.253 		32.145 		25.15
v -147.219 		34.771 		31.712
v -147.225 		34.813 		31.712
v -147.408 		32.186 		31.016
v -152.85 		34.819 		31.594
v -147.143 		34.771 		31.594
v -147.308 		32.216 		31.016
v -152.253 		34.991 		31.812
v -147.219 		32.254 		31.016
v -147.081 		34.771 		31.463
v -152.828 		32.31 		31.32
v -152.481 		32.501 		31.952
v -150.203 		31.392 		16.3
v -145.698 		31.392 		16.3
v -152.755 		32.267 		31.32
v -152.472 		32.483 		31.952
v -152.458 		32.466 		31.952
v -147.711 		32.463 		31.988
v -147.037 		34.771 		31.32
v -147.694 		32.467 		31.988
v -147.679 		32.471 		31.988
v -147.009 		34.771 		31.17
v -147.665 		32.477 		31.988
v -150.203 		31.392 		20.903
v -145.698 		31.392 		20.903
v -147.653 		32.484 		31.988
v -152.644 		35.041 		31.463
v -147.643 		32.492 		31.988
v -152.575 		32.466 		31.893
v -147.636 		32.501 		31.988
v -152.724 		35.007 		31.463
v -147.632 		32.509 		31.988
v -147 		34.771 		31.016
v -152.321 		34.819 		31.988
v -152.555 		32.442 		31.893
v -152.791 		34.967 		31.463
v -152.324 		34.881 		31.952
v -147.542 		34.824 		31.952
v -152.358 		34.874 		31.952
v -147.56 		34.839 		31.952
v -152.527 		32.419 		31.893
v -152.388 		34.865 		31.952
v -147.584 		34.853 		31.952
v -147.408 		32.519 		31.893
v -152.493 		32.399 		31.893
v -152.67 		35.059 		31.32
v -152.416 		34.853 		31.952
v -147.308 		32.519 		31.812
v -152.44 		34.839 		31.952
v -152.755 		35.023 		31.32
v -147.473 		34.871 		31.893
v -152.828 		34.98 		31.32
v -147.507 		34.891 		31.893
v -147.445 		32.442 		31.893
v -147.548 		34.909 		31.893
v -147.711 		32.405 		31.952
v -147.425 		32.466 		31.893
v -147.676 		32.409 		31.952
v -147.412 		32.492 		31.893
v -147.642 		32.416 		31.952
v -147.612 		32.425 		31.952
v -147.747 		32.145 		31.016
v -152.91 		32.467 		31.463
v -147.679 		34.819 		31.988
v -147.694 		34.823 		31.988
v -152.886 		32.416 		31.463
v -147.711 		34.827 		31.988
v -152.452 		32.381 		31.893
v -152.846 		32.367 		31.463
v -152.407 		32.367 		31.893
v -152.253 		32.145 		31.016
v -152.955 		32.463 		31.32
v -147.437 		32.363 		31.812
v -152.358 		32.357 		31.893
v -147.612 		34.865 		31.952
v -152.929 		32.409 		31.32
v -147.642 		34.874 		31.952
v -147.392 		32.39 		31.812
v -138 		37.445 		13.3
v -138 		39.645 		13.3
v -138 		37.445 		16.3
v -138 		39.645 		19.3
v -138 		37.645 		19.3
v -147.676 		34.881 		31.952
v -147.356 		32.419 		31.812
v -145.698 		35.897 		16.3
v -150.203 		35.897 		16.3
v -147.711 		34.885 		31.952
v -147.33 		32.451 		31.812
v -152.846 		34.922 		31.463
v -152.886 		32.357 		31.32
v -147.313 		32.484 		31.812
v -152.886 		34.874 		31.463
v -152.563 		32.363 		31.812
v -147.694 		32.351 		31.893
v -152.91 		34.823 		31.463
v -152.358 		34.933 		31.893
v -152.511 		32.341 		31.812
v -147.642 		32.357 		31.893
v -152.452 		32.323 		31.812
v -152.407 		34.922 		31.893
v -152.886 		34.933 		31.32
v -147.593 		32.367 		31.893
v -152.388 		32.31 		31.812
v -152.929 		34.881 		31.32
v -147.593 		34.922 		31.893
v -147.548 		32.381 		31.893
v -147.642 		34.933 		31.893
v -152.321 		32.302 		31.812
v -152.955 		34.827 		31.32
v -147.694 		34.939 		31.893
v -147.219 		32.519 		31.712
v -147.143 		32.519 		31.594
v -145.698 		35.897 		20.903
v -150.203 		35.897 		20.903
v -147.172 		32.425 		31.594
v -138 		37.645 		25.15
v -147 		34.771 		25.15
v -147 		32.519 		25.15
v -147.679 		32.302 		31.812
v -147.15 		32.471 		31.594
v -147.489 		34.949 		31.812
v -147.612 		32.31 		31.812
v -147.548 		34.967 		31.812
v -147.548 		32.323 		31.812
v -152.644 		32.249 		31.463
v -152.563 		32.305 		31.712
v -147 		32.519 		31.016
v -147.489 		32.341 		31.812
v -152.493 		32.283 		31.712
v -147.612 		34.98 		31.812
v -152.416 		32.267 		31.712
v -147.679 		34.988 		31.812
v -152.67 		32.231 		31.32
v -152.588 		35.1 		31.17
v -147.437 		32.305 		31.712
v -152.335 		32.258 		31.712
v -152.687 		35.07 		31.17
v -147.374 		32.332 		31.712
v -147.32 		32.363 		31.712
v -152.775 		35.032 		31.17
v -152.253 		35.145 		25.15
v -147.747 		35.145 		25.15
v -152.991 		32.519 		31.17
v -147.276 		32.399 		31.712
v -147.747 		35.145 		31.016
v -147.729 		34.829 		31.988
v -147.245 		32.437 		31.712
v -147.747 		34.83 		31.988
v -152.775 		32.258 		31.17
v -152.253 		35.145 		31.016
v -147.747 		34.887 		31.952
v -152.592 		35.104 		31.016
v -147.225 		32.477 		31.712
v -147.747 		34.941 		31.893
v -152.253 		32.254 		31.712
v -152.692 		35.074 		31.016
v -152.527 		32.249 		31.594
v -152.982 		32.461 		31.17
v -147.747 		34.991 		31.812
v -147.747 		32.46 		31.988
v -147.747 		34.771 		32
v -147.729 		32.461 		31.988
v -152.44 		32.231 		31.594
v -152.955 		32.405 		31.17
v -152.458 		34.824 		31.952
v -152.347 		32.22 		31.594
v -152.452 		34.909 		31.893
v -152.91 		32.351 		31.17
v -152.493 		34.891 		31.893
v -152.253 		32.216 		31.594
v -147.507 		35.007 		31.712
v -152.253 		34.771 		32
v -152.781 		35.036 		31.016
v -152.527 		34.871 		31.893
v -147.584 		35.023 		31.712
v -152.85 		32.302 		31.17
v -147.665 		35.032 		31.712
v -147.747 		32.403 		31.952
v -147.392 		32.274 		31.594
v -152.555 		34.848 		31.893
v -152.575 		34.824 		31.893
v -147.747 		35.036 		31.712
v -147.32 		32.305 		31.594
v -152.85 		34.988 		31.17
v -147.747 		32.349 		31.893
v -147.473 		35.041 		31.594
v -152.91 		34.939 		31.17
v -147.258 		32.341 		31.594
v -152.555 		32.222 		31.463
v -147.747 		32.299 		31.812
v -147.56 		35.059 		31.594
v -152.955 		34.885 		31.17
v -152.458 		32.202 		31.463
v -147.209 		32.381 		31.594
v -152.982 		34.829 		31.17
v -147.653 		35.07 		31.594
v -152.357 		32.19 		31.463
v -152.857 		34.991 		31.016
v -147.747 		35.074 		31.594
v -152.321 		34.988 		31.812
v -152.253 		32.519 		32
v -152.919 		34.941 		31.016
v -152.253 		32.186 		31.463
v -147.425 		34.824 		31.893
v -152.388 		34.98 		31.812
v -147.445 		34.848 		31.893
v -152.963 		34.887 		31.016
v -152.452 		34.967 		31.812
v -152.575 		32.202 		31.32
v -152.991 		34.83 		31.016
v -152.472 		32.181 		31.32
v -152.991 		32.46 		31.016
v -147.081 		32.519 		31.463
v -147.665 		32.258 		31.712
v -152.963 		32.403 		31.016
v -152.364 		32.168 		31.32
v -147.037 		32.519 		31.32
v -147.584 		32.267 		31.712
v -152.253 		32.163 		31.32
v -152.919 		32.349 		31.016
v -147.542 		35.088 		31.463
v -147.507 		32.283 		31.712
v -147.154 		32.367 		31.463
v -147.643 		35.1 		31.463
v -152.857 		32.299 		31.016
v -147.114 		32.416 		31.463
v -152.511 		34.949 		31.812
v -147.33 		34.839 		31.812
v -147.356 		34.871 		31.812
v -152.481 		32.168 		31.17
v -147.09 		32.467 		31.463
v -152.368 		32.154 		31.17
v -147.747 		35.104 		31.463
v -147.392 		34.9 		31.812
v -152.253 		32.15 		31.17
v -147.437 		34.927 		31.812
v -152.687 		32.22 		31.17
v -147.528 		35.109 		31.32
v -152.484 		32.163 		31.016
v -152.588 		32.19 		31.17
v -147.636 		35.122 		31.32
v -152.37 		32.15 		31.016
v -152.335 		34.813 		31.988
v -147.747 		35.127 		31.32
v -152.347 		34.806 		31.988
v -147.747 		32.254 		31.712
v -152.357 		34.798 		31.988
v -152.364 		34.789 		31.988
v -147.747 		32.216 		31.594
v -152.781 		32.254 		31.016
v -152.368 		34.78 		31.988
v -147.653 		32.22 		31.594
v -152.37 		34.771 		31.988
v -152.692 		32.216 		31.016
v -147.56 		32.231 		31.594
v -152.592 		32.519 		31.893
v -152.588 		32.492 		31.893
v -152.592 		32.186 		31.016
v -147.15 		34.819 		31.594
v -147.473 		32.249 		31.594
v -152.472 		34.807 		31.952
v -152.692 		32.519 		31.812
v -147.172 		34.865 		31.594
v -152.687 		32.484 		31.812
v -152.481 		34.789 		31.952
v -147.519 		35.122 		31.17
v -152.67 		32.451 		31.812
v -152.484 		34.771 		31.952
v -147.632 		35.136 		31.17
v -152.563 		34.927 		31.812
v -152.644 		32.419 		31.812
v -147.245 		34.853 		31.712
v -147.747 		35.14 		31.17
v -152.608 		32.39 		31.812
v -147.276 		34.891 		31.712
v -147.747 		32.186 		31.463
v -147.516 		35.127 		31.016
v -147.643 		32.19 		31.463
v -147.542 		32.202 		31.463
v -147.172 		32.31 		31.32
v -147.32 		34.927 		31.712
v -147.63 		35.14 		31.016
v -147.114 		32.357 		31.32
v -147.747 		32.163 		31.32
v -147.374 		34.958 		31.712
v -147.636 		32.168 		31.32
v -147.437 		34.985 		31.712
v -147.071 		32.409 		31.32
v -147.045 		32.463 		31.32
v -147.528 		32.181 		31.32
v -147.516 		34.771 		31.952
v -152.253 		35.036 		31.712
v -147.519 		34.789 		31.952
v -152.588 		34.798 		31.893
v -152.592 		34.771 		31.893
v -147.528 		34.807 		31.952
v -147.209 		34.909 		31.594
v -152.781 		32.519 		31.712
v -147.747 		32.15 		31.17
v -147.258 		34.949 		31.594
v -152.857 		32.519 		31.594
v -147.276 		32.283 		31.463
v -147.632 		32.154 		31.17
v -152.687 		34.806 		31.812
v -147.209 		32.323 		31.463
v -147.519 		32.168 		31.17
v -147.32 		34.985 		31.594
v -152.692 		34.771 		31.812
v -147.392 		35.016 		31.594
v -147.245 		32.267 		31.32
v -147.009 		34.83 		25.15
v -152.775 		32.477 		31.712
v -147.037 		34.887 		25.15
v -152.755 		32.437 		31.712
v -152.775 		34.813 		31.712
v -147.081 		34.941 		25.15
v -147.143 		34.991 		25.15
v -152.781 		34.771 		31.712
v -147.219 		35.036 		25.15
v -147.63 		32.15 		31.016
v -152.724 		32.399 		31.712
v -147.308 		35.074 		25.15
v -147.408 		35.104 		25.15
v -152.857 		34.771 		31.594
v -147.445 		32.222 		31.463
v -152.68 		32.363 		31.712
v -152.919 		34.771 		31.463
v -147.356 		32.249 		31.463
v -147.09 		34.823 		31.463
v -152.253 		35.074 		31.594
v -147.425 		32.202 		31.32
v -152.963 		34.771 		31.32
v -147.114 		34.874 		31.463
v -152.626 		32.332 		31.712
v -147.154 		34.922 		31.463
v -147.408 		32.186 		25.15
v -152.335 		35.032 		31.712
v -147.33 		32.231 		31.32
v -152.991 		34.771 		31.17
v -147.308 		32.216 		25.15
v -147.045 		34.827 		31.32
v -147.219 		32.254 		25.15
v -152.416 		35.023 		31.712
v -147.143 		32.299 		25.15
v -147.081 		32.349 		25.15
v -147.037 		32.403 		25.15
v -147.071 		34.881 		31.32
v -147.009 		32.46 		25.15
v -152.493 		35.007 		31.712
v -147.516 		32.163 		31.016
v -147.009 		32.519 		31.17
v -152.563 		34.985 		31.712
v -147.516 		35.127 		25.15
v -147.15 		32.302 		31.17
v -147.63 		35.14 		25.15
v -152.347 		35.07 		31.594
v -147.63 		34.771 		31.988
v -147.114 		34.933 		31.32
v -147.632 		34.78 		31.988
v -152.828 		32.425 		31.594
v -152.44 		35.059 		31.594
v -147.636 		34.789 		31.988
v -147.172 		34.98 		31.32
v -147.643 		34.798 		31.988
v -147.653 		34.806 		31.988
v -152.791 		32.381 		31.594
v -147.665 		34.813 		31.988
v -152.527 		35.041 		31.594
v -152.742 		32.341 		31.594
v -147.081 		32.349 		31.016
v -152.68 		32.305 		31.594
v -152.608 		32.274 		31.594
v -147.209 		34.967 		31.463
v -147.276 		35.007 		31.463
v -152.357 		35.1 		31.463
v -152.253 		35.104 		31.463
v -152.458 		35.088 		31.463
v -147.356 		35.041 		31.463
v -152.555 		35.068 		31.463
v -152.253 		35.127 		31.32
v -152.364 		35.122 		31.32
v -147.445 		35.068 		31.463
v -152.271 		34.829 		31.988
v -152.472 		35.109 		31.32
v -152.575 		35.088 		31.32
v -152.85 		32.471 		31.594
v -147.245 		35.023 		31.32
v -152.289 		34.885 		31.952
v -147.33 		35.059 		31.32
v -147.425 		35.088 		31.32
v -152.368 		35.136 		31.17
v -152.253 		35.14 		31.17
v -152.481 		35.122 		31.17
v -152.37 		32.519 		31.988
v -147.63 		32.15 		25.15
v -152.37 		35.14 		31.016
v -147.516 		32.163 		25.15
v -152.484 		35.127 		31.016
v -152.608 		34.9 		31.812
v -152.484 		32.519 		31.952
v -152.644 		34.871 		31.812
v -147.018 		34.829 		31.17
v -152.67 		34.839 		31.812
v -147.045 		34.885 		31.17
v -147.09 		34.939 		31.17
v -152.626 		34.958 		31.712
v -152.68 		34.927 		31.712
v -152.306 		32.467 		31.988
v -147.15 		34.988 		31.17
v -152.724 		34.891 		31.712
v -152.289 		32.463 		31.988
v -152.271 		32.461 		31.988
v -152.755 		34.853 		31.712
v -152.253 		32.46 		31.988
v -147.009 		34.83 		31.016
v -152.37 		35.14 		25.15
v -152.484 		35.127 		25.15
v -147.037 		34.887 		31.016
v -152.592 		35.104 		25.15
v -152.692 		35.074 		25.15
v -152.289 		32.405 		31.952
v -147.081 		34.941 		31.016
v -152.781 		35.036 		25.15
v -152.857 		34.991 		25.15
v -152.253 		32.403 		31.952
v -152.919 		34.941 		25.15
v -147.143 		34.991 		31.016
v -152.306 		32.351 		31.893
v -152.963 		34.887 		25.15
v -152.991 		34.83 		25.15
v -152.608 		35.016 		31.594
v -152.253 		32.349 		31.893
v -147.313 		35.07 		31.17
v -152.484 		32.163 		25.15
v -152.37 		32.15 		25.15
v -152.253 		32.299 		31.812
v -152.991 		32.46 		25.15
v -152.963 		32.403 		25.15
v -152.919 		32.349 		25.15
v -152.857 		32.299 		25.15
v -152.781 		32.254 		25.15
v -152.368 		32.509 		31.988
v -152.692 		32.216 		25.15
v -152.364 		32.501 		31.988
v -152.592 		32.186 		25.15
v -152.357 		32.492 		31.988
v -152.347 		32.484 		31.988
v -152.335 		32.477 		31.988
v -152.321 		32.471 		31.988
v -152.44 		32.451 		31.952
# 520 vertices

g group_0_16768282

usemtl color_16768282
s 0

f 1 	2 	3
f 5 	3 	4
f 7 	8 	9
f 2 	4 	3
f 10 	11 	14
f 12 	13 	15
f 12 	15 	18
f 17 	18 	15
f 19 	22 	14
f 3 	5 	15
f 19 	14 	11
f 58 	27 	25
f 347 	32 	26
f 33 	28 	36
f 92 	40 	95
f 439 	41 	45
f 393 	423 	26
f 47 	48 	101
f 101 	48 	31
f 49 	54 	51
f 100 	105 	37
f 49 	53 	54
f 58 	23 	17
f 54 	298 	51
f 105 	38 	37
f 17 	61 	58
f 6 	61 	5
f 40 	57 	62
f 27 	58 	61
f 17 	5 	61
f 17 	15 	5
f 54 	53 	72
f 71 	72 	53
f 63 	64 	65
f 63 	65 	67
f 66 	67 	65
f 65 	150 	66
f 78 	44 	60
f 40 	62 	39
f 6 	69 	70
f 70 	505 	6
f 513 	6 	515
f 511 	6 	513
f 510 	6 	511
f 46 	165 	74
f 42 	126 	47
f 56 	76 	60
f 329 	71 	75
f 56 	73 	76
f 59 	139 	50
f 64 	1 	3
f 64 	3 	65
f 128 	48 	126
f 78 	60 	76
f 35 	44 	78
f 139 	143 	50
f 203 	195 	45
f 50 	143 	52
f 412 	35 	78
f 75 	182 	79
f 488 	485 	383
f 64 	63 	2
f 64 	2 	1
f 41 	80 	84
f 57 	147 	62
f 497 	387 	7
f 82 	83 	3
f 389 	8 	7
f 77 	362 	407
f 283 	88 	79
f 85 	81 	98
f 156 	82 	3
f 41 	84 	45
f 65 	3 	83
f 2 	63 	4
f 67 	4 	63
f 5 	4 	66
f 4 	67 	66
f 66 	6 	5
f 6 	66 	68
f 93 	94 	83
f 93 	83 	82
f 421 	197 	91
f 418 	19 	11
f 197 	19 	418
f 16 	97 	99
f 99 	101 	16
f 327 	98 	81
f 101 	24 	16
f 85 	98 	104
f 119 	100 	96
f 100 	121 	105
f 119 	121 	100
f 117 	53 	49
f 85 	104 	86
f 104 	110 	86
f 53 	117 	71
f 89 	130 	90
f 71 	182 	75
f 106 	108 	20
f 283 	79 	182
f 90 	130 	92
f 21 	108 	111
f 102 	91 	197
f 95 	39 	42
f 21 	111 	103
f 113 	31 	48
f 95 	42 	97
f 116 	313 	111
f 111 	313 	103
f 49 	31 	113
f 97 	47 	99
f 449 	115 	96
f 97 	42 	47
f 107 	276 	120
f 115 	119 	96
f 117 	49 	113
f 276 	304 	120
f 47 	101 	99
f 107 	120 	109
f 109 	122 	112
f 71 	117 	181
f 120 	122 	109
f 123 	42 	39
f 101 	31 	24
f 39 	62 	123
f 122 	124 	112
f 42 	123 	126
f 47 	126 	48
f 113 	48 	128
f 89 	87 	129
f 207 	210 	115
f 115 	210 	119
f 191 	124 	122
f 129 	87 	127
f 175 	124 	193
f 130 	89 	129
f 191 	193 	124
f 156 	93 	82
f 130 	40 	92
f 55 	137 	59
f 39 	95 	40
f 161 	128 	126
f 114 	137 	55
f 137 	139 	59
f 29 	141 	132
f 34 	141 	29
f 112 	144 	437
f 133 	437 	144
f 131 	70 	69
f 141 	145 	132
f 133 	146 	134
f 131 	140 	70
f 151 	150 	149
f 148 	149 	150
f 144 	146 	133
f 68 	66 	152
f 150 	152 	66
f 151 	152 	150
f 146 	153 	134
f 15 	13 	150
f 13 	148 	150
f 149 	12 	151
f 149 	148 	13
f 149 	13 	12
f 156 	15 	155
f 3 	15 	156
f 150 	155 	15
f 154 	123 	62
f 65 	83 	155
f 65 	155 	150
f 151 	12 	18
f 130 	57 	40
f 18 	17 	152
f 18 	152 	151
f 134 	153 	136
f 62 	147 	154
f 123 	154 	158
f 137 	169 	139
f 153 	157 	136
f 105 	159 	38
f 132 	145 	135
f 145 	160 	135
f 123 	158 	126
f 173 	143 	139
f 38 	159 	43
f 112 	124 	144
f 159 	162 	43
f 143 	173 	178
f 135 	160 	138
f 161 	126 	158
f 144 	175 	146
f 138 	80 	41
f 117 	128 	161
f 250 	235 	118
f 110 	163 	114
f 43 	162 	46
f 118 	244 	250
f 128 	117 	113
f 46 	162 	165
f 110 	344 	163
f 163 	167 	114
f 196 	167 	163
f 138 	160 	80
f 125 	164 	168
f 153 	180 	157
f 114 	167 	137
f 137 	167 	169
f 166 	170 	106
f 125 	168 	127
f 105 	171 	159
f 172 	129 	127
f 121 	171 	105
f 108 	106 	170
f 139 	169 	173
f 171 	174 	159
f 124 	175 	144
f 172 	127 	168
f 147 	214 	154
f 172 	176 	129
f 146 	177 	153
f 159 	174 	162
f 170 	237 	108
f 146 	175 	177
f 162 	179 	165
f 129 	176 	130
f 176 	57 	130
f 177 	180 	153
f 174 	179 	162
f 255 	189 	164
f 223 	161 	158
f 224 	157 	180
f 179 	402 	165
f 244 	118 	116
f 192 	168 	164
f 194 	172 	168
f 199 	169 	167
f 71 	181 	182
f 17 	186 	152
f 168 	192 	194
f 23 	186 	17
f 177 	202 	180
f 176 	172 	198
f 183 	184 	156
f 183 	156 	155
f 184 	183 	94
f 184 	94 	93
f 93 	156 	184
f 172 	194 	198
f 83 	94 	155
f 183 	155 	94
f 169 	201 	173
f 152 	186 	68
f 169 	199 	201
f 186 	187 	188
f 418 	68 	188
f 416 	68 	418
f 415 	68 	416
f 186 	188 	68
f 206 	178 	173
f 121 	254 	257
f 121 	257 	171
f 164 	189 	192
f 223 	190 	182
f 160 	246 	80
f 200 	175 	193
f 199 	167 	196
f 174 	265 	179
f 142 	57 	176
f 175 	200 	177
f 198 	142 	176
f 45 	84 	203
f 200 	202 	177
f 147 	57 	142
f 206 	173 	201
f 191 	241 	193
f 203 	307 	310
f 187 	102 	197
f 205 	253 	208
f 193 	245 	200
f 166 	278 	170
f 193 	241 	245
f 209 	147 	142
f 187 	197 	188
f 142 	208 	209
f 487 	486 	23
f 486 	211 	23
f 211 	212 	23
f 212 	425 	23
f 186 	23 	425
f 186 	425 	423
f 423 	393 	186
f 186 	393 	392
f 214 	147 	209
f 192 	292 	194
f 227 	199 	196
f 27 	282 	213
f 201 	199 	233
f 207 	243 	210
f 226 	243 	207
f 217 	158 	154
f 236 	206 	201
f 157 	216 	136
f 219 	84 	80
f 218 	216 	221
f 221 	216 	157
f 154 	214 	217
f 223 	158 	217
f 212 	211 	215
f 204 	226 	207
f 222 	226 	204
f 178 	206 	225
f 157 	224 	221
f 215 	211 	220
f 205 	198 	194
f 198 	205 	208
f 198 	208 	142
f 213 	228 	34
f 161 	223 	117
f 181 	117 	223
f 180 	229 	224
f 213 	282 	228
f 202 	229 	180
f 34 	228 	141
f 227 	233 	199
f 16 	232 	87
f 228 	234 	141
f 89 	16 	87
f 108 	237 	111
f 141 	234 	145
f 16 	231 	242
f 145 	234 	238
f 237 	239 	111
f 233 	236 	201
f 285 	234 	228
f 209 	264 	214
f 206 	236 	240
f 234 	290 	238
f 285 	290 	234
f 111 	239 	116
f 145 	238 	160
f 217 	214 	185
f 239 	244 	116
f 16 	89 	90
f 225 	206 	240
f 217 	185 	190
f 243 	268 	210
f 217 	190 	223
f 16 	95 	97
f 223 	182 	181
f 245 	247 	200
f 245 	266 	247
f 227 	259 	263
f 232 	248 	125
f 200 	247 	202
f 248 	232 	230
f 227 	263 	233
f 226 	222 	490
f 202 	252 	229
f 232 	125 	127
f 490 	243 	226
f 250 	251 	235
f 247 	252 	202
f 205 	249 	253
f 232 	127 	87
f 495 	502 	248
f 254 	121 	119
f 164 	125 	248
f 210 	254 	119
f 248 	255 	164
f 208 	253 	258
f 357 	256 	241
f 279 	259 	195
f 256 	261 	241
f 254 	272 	257
f 189 	255 	260
f 253 	375 	258
f 208 	258 	209
f 469 	244 	239
f 171 	262 	174
f 256 	291 	261
f 244 	471 	250
f 171 	257 	262
f 264 	209 	258
f 241 	261 	245
f 214 	264 	185
f 262 	265 	174
f 261 	266 	245
f 267 	236 	233
f 266 	269 	247
f 253 	372 	375
f 36 	77 	270
f 267 	233 	263
f 268 	254 	210
f 270 	33 	36
f 242 	271 	16
f 236 	267 	273
f 266 	303 	269
f 270 	275 	33
f 260 	506 	316
f 267 	289 	273
f 247 	269 	252
f 267 	286 	289
f 268 	272 	254
f 236 	273 	240
f 272 	277 	257
f 33 	275 	166
f 496 	277 	272
f 257 	277 	262
f 246 	160 	238
f 255 	248 	502
f 262 	280 	265
f 502 	506 	255
f 195 	203 	279
f 80 	246 	219
f 259 	279 	281
f 277 	280 	262
f 310 	279 	203
f 264 	296 	185
f 259 	281 	263
f 284 	260 	316
f 282 	285 	228
f 263 	286 	267
f 266 	294 	303
f 284 	189 	260
f 263 	281 	286
f 288 	192 	189
f 496 	272 	268
f 287 	88 	283
f 189 	284 	288
f 287 	421 	88
f 292 	192 	288
f 300 	281 	279
f 258 	293 	264
f 238 	290 	295
f 279 	310 	300
f 258 	375 	293
f 238 	295 	246
f 281 	302 	286
f 264 	293 	296
f 275 	278 	166
f 278 	297 	170
f 507 	282 	27
f 507 	285 	282
f 51 	298 	274
f 185 	296 	301
f 261 	294 	266
f 292 	205 	194
f 274 	299 	276
f 291 	294 	261
f 299 	274 	298
f 292 	249 	205
f 299 	304 	276
f 302 	281 	300
f 286 	302 	305
f 294 	314 	303
f 103 	313 	242
f 285 	508 	290
f 313 	315 	242
f 302 	140 	305
f 509 	295 	290
f 302 	312 	140
f 315 	317 	242
f 286 	305 	289
f 317 	318 	242
f 120 	306 	122
f 307 	203 	84
f 318 	321 	242
f 325 	288 	284
f 321 	323 	242
f 304 	306 	120
f 306 	191 	122
f 307 	84 	219
f 452 	308 	291
f 291 	311 	294
f 342 	298 	54
f 300 	309 	312
f 308 	311 	291
f 330 	249 	292
f 298 	342 	345
f 311 	314 	294
f 300 	312 	302
f 298 	345 	299
f 304 	299 	351
f 246 	320 	219
f 131 	305 	140
f 316 	322 	284
f 246 	295 	320
f 351 	355 	304
f 219 	320 	324
f 304 	355 	306
f 322 	316 	319
f 325 	284 	322
f 313 	116 	315
f 118 	315 	116
f 324 	307 	219
f 118 	235 	315
f 307 	324 	328
f 320 	511 	324
f 315 	235 	317
f 513 	328 	324
f 329 	72 	71
f 288 	330 	292
f 307 	328 	310
f 317 	331 	318
f 400 	362 	269
f 310 	309 	300
f 288 	325 	330
f 269 	303 	400
f 326 	334 	327
f 235 	331 	317
f 310 	328 	309
f 329 	333 	72
f 318 	335 	321
f 332 	334 	326
f 334 	337 	327
f 403 	333 	329
f 329 	399 	403
f 331 	335 	318
f 348 	322 	319
f 335 	338 	321
f 237 	170 	297
f 327 	337 	98
f 339 	311 	308
f 237 	340 	239
f 98 	341 	104
f 336 	339 	308
f 321 	338 	323
f 339 	343 	311
f 297 	340 	237
f 337 	341 	98
f 342 	54 	72
f 235 	251 	331
f 340 	469 	239
f 104 	341 	344
f 311 	343 	314
f 341 	396 	344
f 251 	335 	331
f 104 	344 	110
f 185 	301 	190
f 348 	319 	346
f 190 	283 	182
f 469 	471 	244
f 348 	349 	322
f 334 	332 	382
f 222 	489 	490
f 190 	301 	283
f 77 	407 	270
f 32 	347 	336
f 322 	349 	325
f 347 	352 	336
f 499 	280 	277
f 336 	352 	339
f 299 	345 	351
f 339 	215 	343
f 27 	61 	507
f 339 	352 	215
f 419 	278 	275
f 509 	290 	508
f 346 	354 	356
f 320 	295 	511
f 295 	510 	511
f 353 	293 	375
f 306 	357 	191
f 324 	511 	513
f 346 	356 	348
f 296 	293 	358
f 306 	355 	357
f 293 	353 	358
f 348 	356 	360
f 357 	241 	191
f 340 	297 	476
f 296 	359 	301
f 72 	333 	342
f 356 	376 	360
f 296 	358 	359
f 485 	381 	383
f 348 	360 	349
f 303 	446 	400
f 301 	359 	287
f 323 	464 	242
f 301 	287 	283
f 464 	323 	338
f 370 	351 	345
f 335 	251 	364
f 365 	335 	364
f 337 	391 	341
f 335 	365 	338
f 14 	358 	353
f 389 	7 	387
f 379 	256 	357
f 107 	432 	366
f 358 	22 	359
f 333 	367 	342
f 346 	319 	273
f 344 	404 	163
f 333 	405 	367
f 273 	354 	346
f 196 	163 	404
f 367 	345 	342
f 412 	78 	76
f 289 	305 	354
f 35 	412 	414
f 368 	382 	332
f 414 	415 	35
f 367 	370 	345
f 368 	394 	371
f 249 	372 	253
f 354 	373 	356
f 188 	197 	418
f 354 	369 	373
f 485 	102 	187
f 356 	373 	376
f 351 	377 	355
f 488 	383 	386
f 351 	370 	377
f 374 	378 	364
f 497 	386 	387
f 357 	355 	379
f 364 	378 	365
f 377 	379 	355
f 394 	397 	371
f 29 	371 	397
f 393 	26 	8
f 132 	371 	29
f 398 	380 	372
f 56 	360 	376
f 392 	389 	186
f 187 	186 	381
f 375 	372 	350
f 370 	367 	443
f 376 	420 	73
f 381 	186 	383
f 383 	186 	386
f 334 	384 	337
f 376 	73 	56
f 372 	380 	350
f 375 	350 	353
f 386 	186 	387
f 370 	444 	377
f 334 	382 	384
f 387 	186 	389
f 385 	388 	378
f 385 	378 	374
f 369 	131 	390
f 443 	444 	370
f 384 	391 	337
f 369 	390 	373
f 389 	392 	8
f 392 	393 	8
f 380 	44 	424
f 385 	394 	388
f 448 	452 	379
f 385 	74 	394
f 395 	330 	325
f 381 	485 	187
f 452 	256 	379
f 325 	349 	395
f 74 	397 	394
f 398 	249 	330
f 75 	79 	399
f 74 	165 	397
f 330 	395 	398
f 372 	249 	398
f 396 	341 	391
f 399 	329 	75
f 415 	416 	440
f 344 	396 	404
f 401 	395 	349
f 11 	416 	418
f 402 	397 	165
f 349 	360 	401
f 412 	410 	68
f 395 	401 	408
f 405 	333 	403
f 406 	467 	68
f 415 	414 	68
f 179 	409 	402
f 401 	60 	408
f 443 	367 	405
f 406 	410 	73
f 76 	73 	410
f 410 	406 	68
f 265 	409 	179
f 395 	408 	398
f 410 	412 	76
f 409 	213 	402
f 411 	399 	79
f 412 	68 	414
f 270 	413 	275
f 398 	408 	380
f 280 	25 	265
f 368 	456 	382
f 79 	88 	411
f 440 	35 	415
f 56 	401 	360
f 399 	411 	417
f 265 	25 	409
f 407 	413 	270
f 11 	440 	416
f 382 	430 	384
f 25 	213 	409
f 413 	419 	275
f 60 	401 	56
f 376 	373 	420
f 432 	107 	434
f 408 	60 	44
f 413 	438 	419
f 384 	430 	436
f 408 	44 	380
f 107 	109 	434
f 373 	390 	420
f 436 	391 	384
f 347 	26 	423
f 363 	361 	51
f 421 	91 	88
f 425 	352 	423
f 419 	422 	278
f 361 	49 	51
f 22 	19 	197
f 215 	425 	212
f 391 	439 	396
f 73 	420 	467
f 366 	363 	274
f 197 	421 	22
f 363 	51 	274
f 278 	422 	297
f 439 	441 	396
f 420 	390 	467
f 276 	366 	274
f 350 	380 	424
f 366 	276 	107
f 196 	404 	442
f 399 	417 	403
f 362 	426 	407
f 495 	248 	230
f 428 	405 	403
f 227 	196 	442
f 400 	426 	362
f 350 	424 	10
f 426 	431 	407
f 428 	403 	417
f 428 	433 	405
f 424 	440 	10
f 354 	273 	289
f 350 	10 	353
f 369 	354 	305
f 431 	413 	407
f 305 	131 	369
f 14 	353 	10
f 131 	69 	465
f 131 	465 	390
f 465 	467 	390
f 431 	438 	413
f 22 	358 	14
f 365 	326 	338
f 359 	421 	287
f 347 	423 	352
f 326 	365 	332
f 378 	332 	365
f 436 	439 	391
f 425 	215 	352
f 421 	359 	22
f 388 	368 	332
f 388 	332 	378
f 218 	30 	242
f 411 	474 	417
f 368 	388 	394
f 221 	28 	218
f 35 	424 	44
f 29 	397 	34
f 402 	34 	397
f 417 	475 	428
f 396 	441 	404
f 362 	229 	252
f 252 	269 	362
f 440 	424 	35
f 446 	303 	314
f 442 	404 	441
f 10 	440 	11
f 445 	447 	426
f 343 	215 	220
f 426 	447 	431
f 449 	438 	431
f 436 	430 	138
f 260 	255 	506
f 449 	96 	438
f 427 	363 	429
f 506 	225 	316
f 400 	445 	426
f 427 	361 	363
f 316 	225 	319
f 240 	319 	225
f 135 	138 	430
f 429 	363 	366
f 240 	273 	319
f 445 	400 	446
f 41 	436 	138
f 444 	448 	377
f 429 	366 	432
f 445 	454 	447
f 41 	439 	436
f 447 	449 	431
f 439 	45 	441
f 444 	459 	448
f 30 	218 	28
f 434 	109 	435
f 446 	450 	451
f 377 	448 	379
f 36 	28 	224
f 221 	224 	28
f 441 	45 	195
f 36 	224 	77
f 229 	77 	224
f 442 	441 	195
f 229 	362 	77
f 109 	112 	435
f 437 	435 	112
f 446 	451 	445
f 451 	454 	445
f 30 	453 	242
f 442 	195 	259
f 453 	20 	242
f 442 	259 	227
f 20 	21 	242
f 455 	449 	447
f 452 	291 	256
f 368 	371 	456
f 447 	454 	455
f 21 	103 	242
f 455 	115 	449
f 405 	433 	443
f 427 	231 	24
f 455 	207 	115
f 430 	382 	456
f 429 	231 	427
f 443 	433 	457
f 432 	231 	429
f 446 	314 	450
f 28 	458 	453
f 434 	231 	432
f 456 	371 	132
f 443 	457 	444
f 30 	28 	453
f 435 	231 	434
f 456 	135 	430
f 437 	231 	435
f 458 	106 	453
f 132 	135 	456
f 457 	459 	444
f 33 	458 	28
f 133 	231 	437
f 463 	454 	451
f 134 	231 	133
f 213 	34 	402
f 33 	166 	458
f 25 	27 	213
f 204 	455 	454
f 231 	134 	136
f 458 	166 	106
f 204 	207 	455
f 136 	216 	231
f 16 	271 	230
f 450 	314 	462
f 451 	450 	461
f 453 	106 	20
f 216 	218 	231
f 448 	460 	452
f 108 	21 	20
f 450 	462 	461
f 461 	463 	451
f 459 	460 	448
f 427 	24 	361
f 460 	308 	452
f 49 	361 	31
f 464 	271 	242
f 454 	463 	204
f 231 	16 	24
f 308 	460 	336
f 73 	467 	406
f 463 	222 	204
f 361 	24 	31
f 467 	465 	68
f 69 	6 	465
f 314 	343 	462
f 462 	220 	466
f 6 	68 	465
f 231 	218 	242
f 462 	466 	461
f 463 	461 	468
f 461 	466 	468
f 211 	486 	220
f 468 	222 	463
f 457 	503 	459
f 232 	16 	230
f 478 	481 	271
f 343 	220 	462
f 486 	466 	220
f 482 	271 	481
f 468 	466 	487
f 486 	487 	466
f 484 	271 	482
f 487 	222 	468
f 459 	32 	460
f 230 	271 	484
f 92 	16 	90
f 95 	16 	92
f 464 	338 	470
f 277 	496 	499
f 460 	32 	336
f 58 	25 	280
f 88 	91 	472
f 470 	81 	464
f 471 	473 	250
f 285 	507 	508
f 338 	326 	470
f 250 	473 	251
f 470 	327 	81
f 364 	251 	374
f 295 	509 	510
f 473 	374 	251
f 472 	411 	88
f 297 	422 	476
f 326 	327 	470
f 474 	411 	472
f 472 	485 	488
f 271 	514 	516
f 488 	474 	472
f 475 	417 	474
f 489 	222 	487
f 340 	477 	469
f 340 	476 	477
f 268 	243 	494
f 428 	479 	433
f 477 	480 	469
f 268 	494 	496
f 475 	479 	428
f 469 	480 	471
f 483 	473 	471
f 471 	480 	483
f 483 	385 	473
f 485 	472 	91
f 91 	102 	485
f 473 	385 	374
f 490 	489 	23
f 52 	481 	478
f 487 	23 	489
f 481 	491 	482
f 490 	23 	493
f 37 	38 	476
f 491 	481 	52
f 474 	492 	475
f 243 	490 	493
f 476 	38 	477
f 493 	23 	494
f 484 	482 	495
f 491 	495 	482
f 477 	43 	480
f 493 	494 	243
f 38 	43 	477
f 474 	488 	492
f 494 	23 	496
f 495 	230 	484
f 492 	497 	475
f 483 	480 	46
f 43 	46 	480
f 496 	23 	499
f 46 	74 	483
f 498 	491 	52
f 475 	497 	479
f 483 	74 	385
f 499 	23 	500
f 500 	280 	499
f 419 	501 	422
f 419 	438 	501
f 52 	143 	498
f 58 	500 	23
f 491 	498 	502
f 501 	37 	422
f 438 	96 	501
f 500 	58 	280
f 501 	100 	37
f 96 	100 	501
f 422 	37 	476
f 488 	386 	492
f 386 	497 	492
f 491 	502 	495
f 479 	9 	433
f 433 	9 	457
f 309 	328 	504
f 506 	502 	498
f 505 	312 	504
f 312 	505 	140
f 515 	6 	504
f 9 	503 	457
f 504 	6 	505
f 143 	178 	498
f 503 	32 	459
f 309 	504 	312
f 8 	503 	9
f 70 	140 	505
f 8 	26 	503
f 498 	178 	506
f 61 	6 	507
f 503 	26 	32
f 507 	6 	508
f 510 	509 	6
f 225 	506 	178
f 508 	6 	509
f 7 	9 	479
f 479 	497 	7
f 464 	512 	271
f 512 	514 	271
f 515 	328 	513
f 504 	328 	515
f 271 	516 	517
f 271 	517 	518
f 271 	518 	519
f 519 	478 	271
f 81 	512 	464
f 514 	512 	85
f 81 	85 	512
f 85 	86 	514
f 514 	86 	516
f 516 	520 	517
f 520 	516 	86
f 520 	55 	517
f 86 	110 	520
f 520 	114 	55
f 110 	114 	520
f 518 	517 	55
f 55 	59 	518
f 519 	518 	59
f 519 	50 	478
f 59 	50 	519
f 50 	52 	478
# 1036 faces

 #end of obj_0

