# Object Export From Tinkercad Server 2015

mtllib obj.mtl

o obj_0
v 496.1974 		58.5671 		0
v 496.222 		58.5172 		0
v 496.527 		57.9979 		0
v 496.5923 		57.9235 		0
v 496.3417 		58.275 		0
v 511.1096 		57.0867 		0.8
v 496.0867 		58.8904 		0
v 510.7832 		57.0221 		0.8
v 496 		59.55 		0
v 496.0066 		59.4512 		0
v 510.45 		74 		0.8
v 512.9804 		71.7449 		0.8
v 512.2528 		57.7471 		0.8
v 496.0132 		59.35 		0
v 496.0221 		59.2168 		0
v 512.0021 		57.527 		0.8
v 498.55 		57 		0.8
v 498.5337 		57.0011 		0.8
v 511.725 		57.3417 		0.8
v 513 		71.45 		0
v 512.9934 		71.5488 		0
v 512.9133 		72.1096 		0.8
v 512.9779 		71.7832 		0.8
v 511.4258 		57.1938 		0.8
v 496 		62.2683 		0
v 512.9794 		71.7614 		0.8
v 512.9868 		71.65 		0
v 513 		69.8376 		0
v 496 		62.2683 		0.0001
v 510.45 		57 		0.8
v 510.7449 		57.0196 		0.8
v 496.9979 		57.527 		0.8
v 496.7471 		57.7471 		0.8
v 498.55 		74 		0.8
v 496.7379 		57.7577 		0.8
v 513 		69.8376 		0.0001
v 512.473 		57.9979 		0.8
v 512.457 		57.9797 		0.8
v 496.7218 		57.776 		0.8
v 512.9133 		72.1096 		0
v 512.8062 		72.4258 		0
v 513 		59.55 		0.8
v 512.9989 		59.5337 		0.8
v 510.45 		74 		0
v 512.2528 		73.2529 		0.8
v 512.2621 		73.2423 		0.8
v 512.9975 		59.5117 		0.8
v 512.9779 		59.2168 		0.8
v 512.6583 		72.725 		0.8
v 512.8062 		72.4258 		0.8
v 498.5117 		57.0025 		0.8
v 498.2168 		57.0221 		0.8
v 497.8904 		57.0867 		0.8
v 512.9779 		71.7832 		0
v 510.4883 		73.9975 		0.8
v 510.7832 		73.9779 		0.8
v 496.1938 		58.5742 		0.0966
v 497.5742 		57.1938 		0.8
v 512.9133 		58.8904 		0.8
v 512.8062 		58.5742 		0.8
v 497.275 		57.3417 		0.8
v 512.8026 		72.4329 		0
v 512.778 		72.4828 		0
v 512.6583 		58.275 		0.8
v 512.6583 		72.725 		0
v 510.4663 		73.9989 		0.8
v 498.55 		74 		0
v 511.1096 		73.9133 		0.8
v 512.3094 		73.1886 		0
v 512.2528 		73.2529 		0
v 512.4477 		57.9691 		0.8
v 511.4258 		73.8062 		0.8
v 510.7832 		73.9779 		0
v 510.6844 		73.9845 		0
v 496 		59.55 		0.8
v 511.725 		73.6583 		0.8
v 496.527 		57.9979 		0.8
v 510.5499 		73.9935 		0
v 512.0021 		73.473 		0.8
v 496.0065 		71.5499 		0
v 496 		71.45 		0
v 496.3417 		58.275 		0.8
v 496.0155 		71.6844 		0
v 513 		62.2683 		0.0001
v 511.1096 		73.9133 		0
v 512.2782 		73.224 		0.8
v 512.473 		73.0021 		0.8
v 496 		71.45 		0.8
v 496.0011 		71.4663 		0.8
v 511.4258 		73.8062 		0
v 496.0025 		71.4883 		0.8
v 496 		69.8376 		0
v 511.725 		73.6583 		0
v 496 		69.8376 		0.0001
v 512.0021 		73.473 		0
v 498.2168 		73.9779 		0
v 497.8904 		73.9133 		0
v 512.473 		73.0021 		0
v 512.4077 		73.0765 		0
v 498.4512 		73.9934 		0
v 498.35 		73.9868 		0
v 510.5488 		57.0066 		0
v 510.65 		57.0132 		0
v 497.8904 		73.9133 		0.8
v 498.2168 		73.9779 		0.8
v 510.7832 		57.0221 		0
v 498.2386 		73.9794 		0.8
v 511.4258 		57.1938 		0.0966
v 498.2551 		73.9804 		0.8
v 510.45 		57 		0
v 511.1096 		57.0867 		0
v 511.4258 		57.1938 		0
v 497.5742 		73.8062 		0
v 511.725 		57.3417 		0
v 497.5671 		73.8026 		0
v 497.5172 		73.778 		0
v 511.4329 		57.1974 		0
v 511.4828 		57.222 		0
v 497.275 		73.6583 		0
v 512.8062 		72.4258 		0.0966
v 512.2528 		57.7471 		0
v 512.3181 		57.8215 		0
v 496.1938 		58.5742 		0.8
v 496.0867 		58.8904 		0.8
v 496.0196 		59.2551 		0.8
v 512.0021 		57.527 		0
v 496.0206 		59.2386 		0.8
v 496.0221 		59.2168 		0.8
v 498.4501 		57.0065 		0
v 498.55 		57 		0
v 496.9979 		57.527 		0
v 497.275 		57.3417 		0
v 496.7471 		57.7471 		0
v 496.6906 		57.8114 		0
v 498.3156 		57.0155 		0
v 498.2168 		57.0221 		0
v 497.8904 		57.0867 		0
v 497.5742 		57.1938 		0
v 513 		71.45 		0.8
v 496.1938 		58.5742 		0
v 512.473 		57.9979 		0
v 512.6583 		58.275 		0
v 512.3754 		57.8867 		0
v 512.8062 		58.5742 		0
v 497.5742 		73.8062 		0.8
v 512.9935 		59.4501 		0
v 513 		59.55 		0
v 496.7471 		73.2529 		0.8
v 512.9779 		59.2168 		0
v 512.9845 		59.3156 		0
v 496.5523 		73.0309 		0.8
v 496.7472 		73.2529 		0
v 496.6819 		73.1785 		0
v 496.543 		73.0203 		0.8
v 512.9133 		58.8904 		0
v 496.6246 		73.1133 		0
v 496.527 		73.0021 		0.8
v 496.527 		73.0021 		0
v 496.9979 		73.473 		0.8
v 497.275 		73.6583 		0.8
v 496.9979 		73.473 		0
v 513 		62.2683 		0
v 496.0221 		71.7832 		0.8
v 496.0221 		71.7832 		0
v 496.0867 		72.1096 		0
v 496.1938 		72.4258 		0
v 496.3417 		72.725 		0
v 496.0867 		72.1096 		0.8
v 496.1938 		72.4258 		0.8
v 496.3417 		72.725 		0.8
v 510.7614 		57.0206 		0.8
v 497.5742 		73.8062 		0.0966
# 172 vertices

g group_0_10988977

usemtl color_10988977
s 0

f 25 	110 	9
f 9 	10 	75
f 127 	125 	14
f 3 	5 	110
f 5 	2 	110
f 2 	1 	110
f 1 	140 	110
f 7 	110 	140
f 14 	110 	15
f 10 	110 	14
f 9 	110 	10
f 6 	24 	88
f 8 	6 	88
f 171 	8 	88
f 13 	88 	16
f 21 	69 	27
f 20 	69 	21
f 28 	69 	20
f 17 	30 	75
f 7 	124 	15
f 128 	15 	124
f 47 	88 	48
f 128 	127 	15
f 14 	15 	127
f 2 	5 	57
f 132 	58 	61
f 55 	45 	56
f 32 	131 	61
f 60 	64 	142
f 62 	27 	63
f 63 	27 	65
f 37 	142 	64
f 11 	34 	12
f 30 	31 	88
f 35 	51 	39
f 33 	51 	35
f 32 	52 	33
f 17 	75 	18
f 61 	52 	32
f 58 	53 	61
f 52 	61 	53
f 51 	33 	52
f 18 	75 	51
f 121 	122 	13
f 34 	11 	67
f 67 	11 	44
f 157 	158 	167
f 3 	4 	77
f 28 	167 	67
f 71 	88 	13
f 19 	16 	88
f 42 	139 	88
f 86 	55 	87
f 28 	92 	81
f 28 	81 	80
f 28 	80 	83
f 83 	164 	28
f 164 	165 	28
f 31 	171 	88
f 38 	88 	71
f 37 	88 	38
f 64 	88 	37
f 60 	88 	64
f 59 	88 	60
f 48 	88 	59
f 43 	88 	47
f 42 	88 	43
f 94 	92 	28
f 94 	28 	36
f 94 	36 	29
f 12 	91 	139
f 88 	139 	89
f 84 	29 	36
f 89 	139 	91
f 8 	171 	106
f 102 	25 	103
f 100 	167 	101
f 24 	6 	108
f 34 	67 	100
f 23 	22 	55
f 50 	55 	22
f 49 	55 	50
f 23 	55 	26
f 26 	55 	12
f 87 	55 	49
f 46 	55 	86
f 45 	55 	46
f 79 	56 	45
f 76 	56 	79
f 72 	68 	76
f 56 	76 	68
f 66 	12 	55
f 11 	12 	66
f 94 	29 	88
f 75 	88 	29
f 29 	9 	75
f 6 	111 	108
f 112 	108 	111
f 12 	139 	21
f 19 	24 	108
f 19 	108 	114
f 26 	12 	27
f 21 	27 	12
f 117 	118 	108
f 27 	54 	26
f 114 	108 	118
f 118 	117 	25
f 117 	112 	25
f 41 	120 	40
f 22 	40 	120
f 22 	120 	50
f 112 	117 	108
f 40 	22 	54
f 23 	54 	22
f 28 	44 	78
f 28 	78 	74
f 74 	73 	28
f 28 	73 	85
f 28 	85 	90
f 28 	90 	93
f 28 	93 	95
f 28 	95 	70
f 28 	70 	69
f 99 	27 	69
f 98 	27 	99
f 65 	27 	98
f 41 	40 	62
f 54 	62 	40
f 27 	62 	54
f 6 	8 	106
f 6 	106 	111
f 82 	3 	77
f 23 	26 	54
f 62 	63 	120
f 71 	13 	122
f 57 	123 	124
f 49 	120 	65
f 50 	120 	49
f 63 	65 	120
f 16 	126 	13
f 10 	125 	75
f 41 	62 	120
f 128 	51 	127
f 121 	13 	126
f 45 	46 	70
f 69 	70 	46
f 10 	14 	125
f 114 	126 	19
f 16 	19 	126
f 55 	56 	74
f 73 	74 	56
f 37 	38 	141
f 110 	130 	4
f 68 	73 	56
f 42 	43 	147
f 146 	147 	43
f 4 	3 	110
f 66 	55 	78
f 74 	78 	55
f 123 	57 	82
f 5 	82 	57
f 149 	150 	48
f 25 	29 	84
f 11 	66 	44
f 78 	44 	66
f 149 	48 	59
f 85 	73 	68
f 43 	47 	146
f 72 	90 	85
f 72 	85 	68
f 124 	51 	128
f 123 	51 	124
f 127 	51 	125
f 125 	51 	75
f 82 	51 	123
f 77 	51 	82
f 39 	51 	77
f 75 	30 	88
f 144 	59 	60
f 90 	72 	93
f 76 	93 	72
f 39 	4 	134
f 93 	76 	95
f 79 	95 	76
f 17 	18 	130
f 129 	130 	18
f 155 	149 	59
f 133 	131 	33
f 32 	33 	131
f 79 	45 	95
f 70 	95 	45
f 136 	137 	132
f 141 	142 	37
f 134 	133 	35
f 33 	35 	133
f 86 	87 	99
f 98 	99 	87
f 39 	77 	4
f 49 	98 	87
f 122 	143 	71
f 137 	58 	138
f 35 	39 	134
f 20 	21 	139
f 58 	132 	138
f 18 	51 	129
f 135 	129 	51
f 99 	69 	86
f 46 	86 	69
f 136 	135 	52
f 51 	52 	135
f 65 	98 	49
f 137 	136 	53
f 52 	53 	136
f 132 	131 	136
f 138 	132 	137
f 131 	133 	136
f 135 	136 	133
f 133 	134 	135
f 134 	4 	135
f 129 	135 	4
f 130 	129 	4
f 122 	121 	25
f 121 	126 	25
f 126 	114 	25
f 114 	118 	25
f 111 	25 	112
f 106 	25 	111
f 103 	25 	106
f 110 	25 	102
f 53 	58 	137
f 145 	160 	104
f 143 	141 	38
f 15 	110 	7
f 132 	61 	131
f 57 	140 	1
f 60 	142 	144
f 57 	7 	140
f 142 	141 	25
f 115 	158 	116
f 158 	156 	116
f 2 	57 	1
f 47 	48 	150
f 153 	151 	148
f 148 	159 	152
f 5 	3 	82
f 155 	144 	25
f 151 	12 	34
f 150 	146 	47
f 153 	156 	151
f 144 	155 	59
f 154 	151 	156
f 124 	7 	57
f 38 	71 	143
f 156 	158 	154
f 157 	154 	158
f 152 	159 	161
f 25 	9 	29
f 162 	147 	25
f 147 	146 	25
f 146 	150 	25
f 150 	149 	25
f 149 	155 	25
f 144 	142 	25
f 141 	143 	25
f 143 	122 	25
f 160 	119 	159
f 161 	159 	119
f 88 	81 	94
f 92 	94 	81
f 84 	162 	25
f 164 	168 	165
f 166 	165 	169
f 168 	169 	165
f 169 	167 	166
f 119 	116 	152
f 161 	119 	152
f 153 	152 	116
f 156 	153 	116
f 158 	115 	113
f 158 	113 	97
f 158 	97 	96
f 101 	167 	96
f 44 	28 	67
f 158 	96 	167
f 100 	67 	167
f 165 	166 	28
f 167 	28 	166
f 164 	83 	163
f 163 	168 	164
f 110 	30 	17
f 130 	110 	17
f 169 	170 	167
f 170 	157 	167
f 84 	42 	147
f 36 	139 	84
f 160 	159 	105
f 105 	104 	160
f 159 	148 	105
f 148 	151 	105
f 107 	105 	151
f 109 	107 	151
f 34 	109 	151
f 154 	12 	151
f 157 	170 	12
f 170 	169 	12
f 168 	12 	169
f 163 	12 	168
f 91 	12 	163
f 154 	157 	12
f 88 	89 	81
f 80 	81 	89
f 91 	163 	83
f 42 	84 	139
f 83 	80 	91
f 89 	91 	80
f 147 	162 	84
f 97 	104 	96
f 105 	96 	104
f 139 	36 	20
f 28 	20 	36
f 100 	101 	109
f 107 	109 	101
f 171 	31 	103
f 102 	103 	31
f 105 	107 	96
f 101 	96 	107
f 103 	106 	171
f 19 	88 	24
f 34 	100 	109
f 31 	30 	102
f 110 	102 	30
f 97 	113 	172
f 145 	104 	172
f 97 	172 	104
f 115 	116 	172
f 160 	145 	172
f 116 	119 	172
f 160 	172 	119
f 113 	115 	172
f 152 	153 	148
# 340 faces

 #end of obj_0

